M48
;DRILL file {Pcbnew (2011-nov-30)-testing} date Sat 15 Sep 2012 10:53:53 AM EDT
;FORMAT={-:-/ absolute / inch / decimal}
FMAT,2
INCH,TZ
T1C0.025
T2C0.029
T3C0.040
%
G90
G05
M72
T1
X7.675Y-6.2
X7.975Y-5.45
X8.05Y-5.865
X8.075Y-5.96
X8.15Y-6.035
X8.2Y-6.16
X8.325Y-5.825
X8.39Y-5.95
X8.465Y-6.165
X8.475Y-6.035
X8.55Y-5.975
X8.585Y-5.435
X8.62Y-5.27
X8.635Y-6.025
X8.695Y-5.78
X8.7Y-5.425
X8.775Y-5.425
X8.8Y-5.935
X8.8Y-6.2
X8.85Y-5.225
X8.875Y-5.775
X8.875Y-6.
X8.9Y-5.175
X8.9Y-5.675
X8.9Y-6.075
X8.925Y-5.1
X8.95Y-5.625
X9.05Y-5.225
X9.05Y-5.6
X9.05Y-5.725
X9.05Y-6.125
T2
X8.9896Y-5.4
X8.9896Y-5.9
X9.0604Y-5.4
X9.0604Y-5.9
T3
X7.725Y-5.9
X7.725Y-6.
X7.725Y-6.1
X7.825Y-5.9
X7.825Y-6.
X7.825Y-6.1
T0
M30
