G04 (created by PCBNEW-RS274X (2011-nov-30)-testing) date Sat 15 Sep 2012 10:52:54 AM EDT*
%MOIN*%
G04 Gerber Fmt 3.4, Leading zero omitted, Abs format*
%FSLAX34Y34*%
G01*
G70*
G90*
G04 APERTURE LIST*
%ADD10C,0.006*%
%ADD11C,0.015*%
%ADD12R,0.055X0.035*%
%ADD13R,0.0591X0.0394*%
%ADD14R,0.0984X0.1339*%
%ADD15C,0.0315*%
%ADD16R,0.0413X0.0551*%
%ADD17R,0.045X0.02*%
%ADD18R,0.035X0.055*%
%ADD19R,0.06X0.06*%
%ADD20C,0.06*%
%ADD21R,0.035X0.059*%
%ADD22C,0.035*%
%ADD23C,0.008*%
%ADD24C,0.01*%
G04 APERTURE END LIST*
G54D10*
G54D11*
X79500Y-62500D02*
X87500Y-62500D01*
X87500Y-62500D02*
X87500Y-63250D01*
X87500Y-63250D02*
X79500Y-63250D01*
X79500Y-63250D02*
X79500Y-62500D01*
X79500Y-50500D02*
X79500Y-49750D01*
X87500Y-50500D02*
X79500Y-50500D01*
X87500Y-49750D02*
X87500Y-50500D01*
X79500Y-49750D02*
X87500Y-49750D01*
X91000Y-64000D02*
X91000Y-49000D01*
X76000Y-64000D02*
X91000Y-64000D01*
X76000Y-49000D02*
X76000Y-64000D01*
X76000Y-64000D02*
X76000Y-49000D01*
X76000Y-49000D02*
X91000Y-49000D01*
G54D12*
X84000Y-57375D03*
X84000Y-56625D03*
X84500Y-58625D03*
X84500Y-59375D03*
X85000Y-55375D03*
X85000Y-54625D03*
X83750Y-55375D03*
X83750Y-54625D03*
X82500Y-55375D03*
X82500Y-54625D03*
G54D13*
X82835Y-57512D03*
X82835Y-56488D03*
G54D14*
X80000Y-57000D03*
G54D15*
X90604Y-59000D03*
G54D16*
X89965Y-58291D03*
X90535Y-59709D03*
X90535Y-58291D03*
X89965Y-59709D03*
G54D15*
X89896Y-59000D03*
X90604Y-54000D03*
G54D16*
X89965Y-53291D03*
X90535Y-54709D03*
X90535Y-53291D03*
X89965Y-54709D03*
G54D15*
X89896Y-54000D03*
G54D17*
X85900Y-55750D03*
X85900Y-56250D03*
X85900Y-56750D03*
X85900Y-57250D03*
X85900Y-57750D03*
X85900Y-58250D03*
X85900Y-58750D03*
X88000Y-58750D03*
X88000Y-58250D03*
X88000Y-57750D03*
X88000Y-57250D03*
X88000Y-56750D03*
X88000Y-56250D03*
X88000Y-55750D03*
G54D18*
X79875Y-53250D03*
X79125Y-53250D03*
G54D12*
X85500Y-60375D03*
X85500Y-61125D03*
G54D18*
X87875Y-53250D03*
X87125Y-53250D03*
X85375Y-53250D03*
X84625Y-53250D03*
X82875Y-53250D03*
X82125Y-53250D03*
G54D12*
X84000Y-61125D03*
X84000Y-60375D03*
X82750Y-61125D03*
X82750Y-60375D03*
X80000Y-58625D03*
X80000Y-59375D03*
G54D18*
X79875Y-52250D03*
X79125Y-52250D03*
X82875Y-52250D03*
X82125Y-52250D03*
X85375Y-52250D03*
X84625Y-52250D03*
X87875Y-52250D03*
X87125Y-52250D03*
G54D12*
X82500Y-58625D03*
X82500Y-59375D03*
G54D19*
X78250Y-61000D03*
G54D20*
X77250Y-61000D03*
X78250Y-60000D03*
X77250Y-60000D03*
X78250Y-59000D03*
X77250Y-59000D03*
G54D21*
X80385Y-60390D03*
X79815Y-60390D03*
X79815Y-61610D03*
X80385Y-61611D03*
G54D22*
X85500Y-59750D03*
X87750Y-54250D03*
X83250Y-58250D03*
X79750Y-54500D03*
X89500Y-56250D03*
X89250Y-51000D03*
X89000Y-56750D03*
X89000Y-51750D03*
X86200Y-52700D03*
X87000Y-54250D03*
X88500Y-52250D03*
X88750Y-57750D03*
X86950Y-57800D03*
X80500Y-58650D03*
X88000Y-59350D03*
X88000Y-62000D03*
X82000Y-61600D03*
X86350Y-60250D03*
X84650Y-61650D03*
X76750Y-62000D03*
X81500Y-60350D03*
X84750Y-60350D03*
X88750Y-60000D03*
X90500Y-52250D03*
X90500Y-56000D03*
X89000Y-60750D03*
X90500Y-61250D03*
X90500Y-57250D03*
X80750Y-59600D03*
X83900Y-59500D03*
X85850Y-54350D03*
G54D23*
X85500Y-60375D02*
X85500Y-59750D01*
X84500Y-58625D02*
X84500Y-58500D01*
X84500Y-58500D02*
X85250Y-57750D01*
X85500Y-60375D02*
X85500Y-58500D01*
X85250Y-58250D02*
X85250Y-57750D01*
X85500Y-58500D02*
X85250Y-58250D01*
G54D24*
X85900Y-57250D02*
X85750Y-57250D01*
X85750Y-57250D02*
X85250Y-57750D01*
X87875Y-53250D02*
X87875Y-54125D01*
X87875Y-54125D02*
X87750Y-54250D01*
X79750Y-54500D02*
X79875Y-54375D01*
X79875Y-54375D02*
X79875Y-53250D01*
X88000Y-56250D02*
X89500Y-56250D01*
X79875Y-52250D02*
X79875Y-51875D01*
X79875Y-51875D02*
X80750Y-51000D01*
X80750Y-51000D02*
X89250Y-51000D01*
X82875Y-52250D02*
X82875Y-51625D01*
X89000Y-56750D02*
X88000Y-56750D01*
X88500Y-51250D02*
X89000Y-51750D01*
X83250Y-51250D02*
X88500Y-51250D01*
X82875Y-51625D02*
X83250Y-51250D01*
G54D23*
X86200Y-52700D02*
X86200Y-52550D01*
X85900Y-52250D02*
X85375Y-52250D01*
X86200Y-52550D02*
X85900Y-52250D01*
X87000Y-54250D02*
X87000Y-55250D01*
X87000Y-56750D02*
X87250Y-57000D01*
X87000Y-55250D02*
X87000Y-56750D01*
X87250Y-57000D02*
X87500Y-57250D01*
G54D24*
X88000Y-57250D02*
X87500Y-57250D01*
X87500Y-57250D02*
X87250Y-57000D01*
G54D23*
X88000Y-57750D02*
X88750Y-57750D01*
X88500Y-52250D02*
X87875Y-52250D01*
X87875Y-52250D02*
X88500Y-52250D01*
X80000Y-58625D02*
X80475Y-58625D01*
X87400Y-58250D02*
X88000Y-58250D01*
X86950Y-57800D02*
X87400Y-58250D01*
X80475Y-58625D02*
X80500Y-58650D01*
G54D24*
X78250Y-60000D02*
X78250Y-59950D01*
X79575Y-58625D02*
X80000Y-58625D01*
X78250Y-59950D02*
X79575Y-58625D01*
G54D23*
X87100Y-62000D02*
X88000Y-62000D01*
X88000Y-59350D02*
X88000Y-58750D01*
G54D24*
X82750Y-61125D02*
X82750Y-61750D01*
X83000Y-62000D02*
X87100Y-62000D01*
X87100Y-62000D02*
X87250Y-62000D01*
X82750Y-61750D02*
X83000Y-62000D01*
X82475Y-61125D02*
X82750Y-61125D01*
X82000Y-61600D02*
X82475Y-61125D01*
G54D23*
X86350Y-59600D02*
X86350Y-60250D01*
X85900Y-58750D02*
X85900Y-59150D01*
X85900Y-59150D02*
X86350Y-59600D01*
X86350Y-59600D02*
X85900Y-59150D01*
X84650Y-61650D02*
X84650Y-61400D01*
X84650Y-61400D02*
X84375Y-61125D01*
X84375Y-61125D02*
X84000Y-61125D01*
G54D24*
X76750Y-61750D02*
X76750Y-62000D01*
X76750Y-60000D02*
X76750Y-61750D01*
X77250Y-60000D02*
X76750Y-60000D01*
X87125Y-52250D02*
X87125Y-53250D01*
G54D23*
X80385Y-61611D02*
X81189Y-61611D01*
X81500Y-61300D02*
X81500Y-60350D01*
X81189Y-61611D02*
X81500Y-61300D01*
G54D24*
X84725Y-60375D02*
X84000Y-60375D01*
X84750Y-60350D02*
X84725Y-60375D01*
G54D23*
X79815Y-61610D02*
X79815Y-61865D01*
X82275Y-60375D02*
X82750Y-60375D01*
X82150Y-60500D02*
X82275Y-60375D01*
X82150Y-60950D02*
X82150Y-60500D01*
X81000Y-62100D02*
X82150Y-60950D01*
X80050Y-62100D02*
X81000Y-62100D01*
X79815Y-61865D02*
X80050Y-62100D01*
X79815Y-60390D02*
X79815Y-59985D01*
X80000Y-59800D02*
X80000Y-59375D01*
X79815Y-59985D02*
X80000Y-59800D01*
G54D24*
X79125Y-52250D02*
X79125Y-53250D01*
X82125Y-52250D02*
X82125Y-53250D01*
X84625Y-53250D02*
X84625Y-52250D01*
G54D23*
X82500Y-58625D02*
X82500Y-57847D01*
X82500Y-57847D02*
X82835Y-57512D01*
G54D24*
X82835Y-57512D02*
X83488Y-57512D01*
X83625Y-57375D02*
X84000Y-57375D01*
X83488Y-57512D02*
X83625Y-57375D01*
X84000Y-57375D02*
X84875Y-57375D01*
X85500Y-56750D02*
X85900Y-56750D01*
X84875Y-57375D02*
X85500Y-56750D01*
X82835Y-56488D02*
X82835Y-56085D01*
X82500Y-55750D02*
X82500Y-55375D01*
X82835Y-56085D02*
X82500Y-55750D01*
X82835Y-56488D02*
X83488Y-56488D01*
X83625Y-56625D02*
X84000Y-56625D01*
X83488Y-56488D02*
X83625Y-56625D01*
X85900Y-56250D02*
X85500Y-56250D01*
X85125Y-56625D02*
X84000Y-56625D01*
X85500Y-56250D02*
X85125Y-56625D01*
G54D23*
X85900Y-57750D02*
X86250Y-57750D01*
X86250Y-57750D02*
X87200Y-58700D01*
X87750Y-60000D02*
X88750Y-60000D01*
X87200Y-59450D02*
X87750Y-60000D01*
X87200Y-58700D02*
X87200Y-59450D01*
G54D24*
X90535Y-52285D02*
X90535Y-53291D01*
X90500Y-52250D02*
X90535Y-52285D01*
X90535Y-55965D02*
X90535Y-54709D01*
X90500Y-56000D02*
X90535Y-55965D01*
G54D23*
X85900Y-58250D02*
X86250Y-58250D01*
X86750Y-59750D02*
X86750Y-60500D01*
X86750Y-60500D02*
X87000Y-60750D01*
X87000Y-60750D02*
X89000Y-60750D01*
X86750Y-59750D02*
X86750Y-58800D01*
X86750Y-58750D02*
X86250Y-58250D01*
X86750Y-58800D02*
X86750Y-58750D01*
G54D24*
X90500Y-61250D02*
X90535Y-61215D01*
X90535Y-61215D02*
X90535Y-59709D01*
X90535Y-58291D02*
X90535Y-57285D01*
X90535Y-57285D02*
X90500Y-57250D01*
G54D11*
X80385Y-60390D02*
X80385Y-59965D01*
X80385Y-59965D02*
X80750Y-59600D01*
X84500Y-59375D02*
X84025Y-59375D01*
X84025Y-59375D02*
X83900Y-59500D01*
X85900Y-55750D02*
X85900Y-54400D01*
X85900Y-54400D02*
X85850Y-54350D01*
G54D24*
X85000Y-55375D02*
X83750Y-55375D01*
X85000Y-55375D02*
X85000Y-55500D01*
X85000Y-55500D02*
X85250Y-55750D01*
X85250Y-55750D02*
X85900Y-55750D01*
G54D10*
G36*
X90700Y-63700D02*
X89862Y-63700D01*
X89862Y-60172D01*
X89862Y-59846D01*
X89571Y-59846D01*
X89509Y-59908D01*
X89510Y-60033D01*
X89548Y-60125D01*
X89618Y-60195D01*
X89709Y-60233D01*
X89801Y-60233D01*
X89862Y-60172D01*
X89862Y-63700D01*
X76300Y-63700D01*
X76300Y-49300D01*
X90700Y-49300D01*
X90700Y-51916D01*
X90577Y-51865D01*
X90424Y-51865D01*
X90282Y-51923D01*
X90174Y-52032D01*
X90115Y-52173D01*
X90115Y-52326D01*
X90173Y-52468D01*
X90275Y-52569D01*
X90275Y-52789D01*
X90221Y-52767D01*
X90129Y-52767D01*
X90068Y-52828D01*
X90068Y-53154D01*
X90119Y-53154D01*
X90119Y-53428D01*
X90068Y-53428D01*
X90068Y-53491D01*
X89862Y-53491D01*
X89862Y-53428D01*
X89862Y-53154D01*
X89862Y-52828D01*
X89801Y-52767D01*
X89709Y-52767D01*
X89635Y-52797D01*
X89635Y-51077D01*
X89635Y-50924D01*
X89577Y-50782D01*
X89468Y-50674D01*
X89327Y-50615D01*
X89174Y-50615D01*
X89032Y-50673D01*
X88965Y-50740D01*
X87644Y-50740D01*
X87702Y-50702D01*
X87763Y-50609D01*
X87785Y-50500D01*
X87785Y-49750D01*
X87763Y-49641D01*
X87702Y-49548D01*
X87609Y-49487D01*
X87500Y-49465D01*
X79500Y-49465D01*
X79391Y-49487D01*
X79298Y-49548D01*
X79237Y-49641D01*
X79215Y-49750D01*
X79215Y-50500D01*
X79237Y-50609D01*
X79298Y-50702D01*
X79391Y-50763D01*
X79500Y-50785D01*
X80613Y-50785D01*
X80566Y-50816D01*
X79691Y-51691D01*
X79635Y-51774D01*
X79581Y-51797D01*
X79522Y-51856D01*
X79500Y-51908D01*
X79478Y-51856D01*
X79419Y-51797D01*
X79342Y-51765D01*
X79258Y-51765D01*
X78908Y-51765D01*
X78831Y-51797D01*
X78772Y-51856D01*
X78740Y-51933D01*
X78740Y-52017D01*
X78740Y-52567D01*
X78772Y-52644D01*
X78831Y-52703D01*
X78865Y-52717D01*
X78865Y-52782D01*
X78831Y-52797D01*
X78772Y-52856D01*
X78740Y-52933D01*
X78740Y-53017D01*
X78740Y-53567D01*
X78772Y-53644D01*
X78831Y-53703D01*
X78908Y-53735D01*
X78992Y-53735D01*
X79342Y-53735D01*
X79419Y-53703D01*
X79478Y-53644D01*
X79478Y-53641D01*
X79489Y-53666D01*
X79559Y-53736D01*
X79651Y-53774D01*
X79726Y-53775D01*
X79788Y-53713D01*
X79788Y-53387D01*
X79700Y-53387D01*
X79700Y-53113D01*
X79788Y-53113D01*
X79788Y-53050D01*
X79962Y-53050D01*
X79962Y-53113D01*
X80238Y-53113D01*
X80300Y-53051D01*
X80299Y-53024D01*
X80299Y-52925D01*
X80261Y-52834D01*
X80191Y-52764D01*
X80125Y-52736D01*
X80125Y-52725D01*
X80115Y-52725D01*
X80169Y-52703D01*
X80228Y-52644D01*
X80260Y-52567D01*
X80260Y-52483D01*
X80260Y-51933D01*
X80237Y-51880D01*
X80858Y-51260D01*
X82872Y-51260D01*
X82691Y-51441D01*
X82635Y-51525D01*
X82615Y-51625D01*
X82615Y-51782D01*
X82581Y-51797D01*
X82522Y-51856D01*
X82500Y-51908D01*
X82478Y-51856D01*
X82419Y-51797D01*
X82342Y-51765D01*
X82258Y-51765D01*
X81908Y-51765D01*
X81831Y-51797D01*
X81772Y-51856D01*
X81740Y-51933D01*
X81740Y-52017D01*
X81740Y-52567D01*
X81772Y-52644D01*
X81831Y-52703D01*
X81865Y-52717D01*
X81865Y-52782D01*
X81831Y-52797D01*
X81772Y-52856D01*
X81740Y-52933D01*
X81740Y-53017D01*
X81740Y-53567D01*
X81772Y-53644D01*
X81831Y-53703D01*
X81908Y-53735D01*
X81992Y-53735D01*
X82342Y-53735D01*
X82419Y-53703D01*
X82478Y-53644D01*
X82478Y-53641D01*
X82489Y-53666D01*
X82559Y-53736D01*
X82651Y-53774D01*
X82726Y-53775D01*
X82788Y-53713D01*
X82788Y-53387D01*
X82700Y-53387D01*
X82700Y-53113D01*
X82788Y-53113D01*
X82788Y-53050D01*
X82962Y-53050D01*
X82962Y-53113D01*
X83238Y-53113D01*
X83300Y-53051D01*
X83299Y-53024D01*
X83299Y-52925D01*
X83261Y-52834D01*
X83191Y-52764D01*
X83125Y-52736D01*
X83125Y-52725D01*
X83115Y-52725D01*
X83169Y-52703D01*
X83228Y-52644D01*
X83260Y-52567D01*
X83260Y-52483D01*
X83260Y-51933D01*
X83228Y-51856D01*
X83169Y-51797D01*
X83135Y-51782D01*
X83135Y-51733D01*
X83358Y-51510D01*
X88392Y-51510D01*
X88615Y-51733D01*
X88615Y-51826D01*
X88642Y-51892D01*
X88577Y-51865D01*
X88424Y-51865D01*
X88282Y-51923D01*
X88260Y-51945D01*
X88260Y-51933D01*
X88228Y-51856D01*
X88169Y-51797D01*
X88092Y-51765D01*
X88008Y-51765D01*
X87658Y-51765D01*
X87581Y-51797D01*
X87522Y-51856D01*
X87500Y-51908D01*
X87478Y-51856D01*
X87419Y-51797D01*
X87342Y-51765D01*
X87258Y-51765D01*
X86908Y-51765D01*
X86831Y-51797D01*
X86772Y-51856D01*
X86740Y-51933D01*
X86740Y-52017D01*
X86740Y-52567D01*
X86772Y-52644D01*
X86831Y-52703D01*
X86865Y-52717D01*
X86865Y-52782D01*
X86831Y-52797D01*
X86772Y-52856D01*
X86740Y-52933D01*
X86740Y-53017D01*
X86740Y-53567D01*
X86772Y-53644D01*
X86831Y-53703D01*
X86908Y-53735D01*
X86992Y-53735D01*
X87342Y-53735D01*
X87419Y-53703D01*
X87478Y-53644D01*
X87478Y-53641D01*
X87489Y-53666D01*
X87559Y-53736D01*
X87651Y-53774D01*
X87726Y-53775D01*
X87788Y-53713D01*
X87788Y-53387D01*
X87700Y-53387D01*
X87700Y-53113D01*
X87788Y-53113D01*
X87788Y-53050D01*
X87962Y-53050D01*
X87962Y-53113D01*
X88238Y-53113D01*
X88300Y-53051D01*
X88299Y-53024D01*
X88299Y-52925D01*
X88261Y-52834D01*
X88191Y-52764D01*
X88125Y-52736D01*
X88125Y-52725D01*
X88115Y-52725D01*
X88169Y-52703D01*
X88228Y-52644D01*
X88260Y-52567D01*
X88260Y-52554D01*
X88282Y-52576D01*
X88423Y-52635D01*
X88576Y-52635D01*
X88718Y-52577D01*
X88826Y-52468D01*
X88885Y-52327D01*
X88885Y-52174D01*
X88857Y-52107D01*
X88923Y-52135D01*
X89076Y-52135D01*
X89218Y-52077D01*
X89326Y-51968D01*
X89385Y-51827D01*
X89385Y-51674D01*
X89327Y-51532D01*
X89218Y-51424D01*
X89077Y-51365D01*
X88983Y-51365D01*
X88878Y-51260D01*
X88965Y-51260D01*
X89032Y-51326D01*
X89173Y-51385D01*
X89326Y-51385D01*
X89468Y-51327D01*
X89576Y-51218D01*
X89635Y-51077D01*
X89635Y-52797D01*
X89618Y-52805D01*
X89548Y-52875D01*
X89510Y-52967D01*
X89509Y-53092D01*
X89571Y-53154D01*
X89862Y-53154D01*
X89862Y-53428D01*
X89571Y-53428D01*
X89509Y-53490D01*
X89510Y-53615D01*
X89548Y-53707D01*
X89609Y-53768D01*
X89585Y-53792D01*
X89529Y-53927D01*
X89529Y-54073D01*
X89585Y-54208D01*
X89609Y-54232D01*
X89548Y-54293D01*
X89510Y-54385D01*
X89509Y-54510D01*
X89571Y-54572D01*
X89862Y-54572D01*
X89862Y-54509D01*
X90068Y-54509D01*
X90068Y-54572D01*
X90119Y-54572D01*
X90119Y-54846D01*
X90068Y-54846D01*
X90068Y-55172D01*
X90129Y-55233D01*
X90221Y-55233D01*
X90275Y-55210D01*
X90275Y-55680D01*
X90174Y-55782D01*
X90115Y-55923D01*
X90115Y-56076D01*
X90173Y-56218D01*
X90282Y-56326D01*
X90423Y-56385D01*
X90576Y-56385D01*
X90700Y-56334D01*
X90700Y-56916D01*
X90577Y-56865D01*
X90424Y-56865D01*
X90282Y-56923D01*
X90174Y-57032D01*
X90115Y-57173D01*
X90115Y-57326D01*
X90173Y-57468D01*
X90275Y-57569D01*
X90275Y-57789D01*
X90221Y-57767D01*
X90129Y-57767D01*
X90068Y-57828D01*
X90068Y-58154D01*
X90119Y-58154D01*
X90119Y-58428D01*
X90068Y-58428D01*
X90068Y-58491D01*
X89885Y-58491D01*
X89885Y-56327D01*
X89885Y-56174D01*
X89862Y-56117D01*
X89862Y-55172D01*
X89862Y-54846D01*
X89571Y-54846D01*
X89509Y-54908D01*
X89510Y-55033D01*
X89548Y-55125D01*
X89618Y-55195D01*
X89709Y-55233D01*
X89801Y-55233D01*
X89862Y-55172D01*
X89862Y-56117D01*
X89827Y-56032D01*
X89718Y-55924D01*
X89577Y-55865D01*
X89424Y-55865D01*
X89282Y-55923D01*
X89215Y-55990D01*
X88436Y-55990D01*
X88474Y-55899D01*
X88475Y-55862D01*
X88475Y-55638D01*
X88474Y-55601D01*
X88436Y-55509D01*
X88366Y-55439D01*
X88300Y-55411D01*
X88300Y-53449D01*
X88238Y-53387D01*
X87962Y-53387D01*
X87962Y-53713D01*
X88024Y-53775D01*
X88099Y-53774D01*
X88191Y-53736D01*
X88261Y-53666D01*
X88299Y-53575D01*
X88299Y-53476D01*
X88300Y-53449D01*
X88300Y-55411D01*
X88275Y-55401D01*
X88176Y-55401D01*
X88174Y-55400D01*
X88112Y-55462D01*
X88112Y-55700D01*
X88413Y-55700D01*
X88475Y-55638D01*
X88475Y-55862D01*
X88413Y-55800D01*
X88112Y-55800D01*
X88112Y-55850D01*
X87888Y-55850D01*
X87888Y-55800D01*
X87888Y-55700D01*
X87888Y-55462D01*
X87826Y-55400D01*
X87824Y-55401D01*
X87725Y-55401D01*
X87634Y-55439D01*
X87564Y-55509D01*
X87526Y-55601D01*
X87525Y-55638D01*
X87587Y-55700D01*
X87888Y-55700D01*
X87888Y-55800D01*
X87587Y-55800D01*
X87525Y-55862D01*
X87526Y-55899D01*
X87564Y-55991D01*
X87600Y-56027D01*
X87597Y-56031D01*
X87565Y-56108D01*
X87565Y-56192D01*
X87565Y-56392D01*
X87597Y-56469D01*
X87628Y-56500D01*
X87597Y-56531D01*
X87565Y-56608D01*
X87565Y-56692D01*
X87565Y-56892D01*
X87597Y-56969D01*
X87618Y-56990D01*
X87607Y-56990D01*
X87434Y-56816D01*
X87389Y-56786D01*
X87250Y-56646D01*
X87250Y-55250D01*
X87250Y-54544D01*
X87326Y-54468D01*
X87385Y-54327D01*
X87385Y-54174D01*
X87327Y-54032D01*
X87218Y-53924D01*
X87077Y-53865D01*
X86924Y-53865D01*
X86782Y-53923D01*
X86674Y-54032D01*
X86615Y-54173D01*
X86615Y-54326D01*
X86673Y-54468D01*
X86750Y-54544D01*
X86750Y-55250D01*
X86750Y-56750D01*
X86769Y-56846D01*
X86823Y-56927D01*
X87036Y-57139D01*
X87066Y-57184D01*
X87314Y-57431D01*
X87316Y-57434D01*
X87400Y-57489D01*
X87401Y-57490D01*
X87500Y-57510D01*
X87618Y-57510D01*
X87597Y-57531D01*
X87565Y-57608D01*
X87565Y-57692D01*
X87565Y-57892D01*
X87597Y-57969D01*
X87628Y-58000D01*
X87503Y-58000D01*
X87335Y-57831D01*
X87335Y-57724D01*
X87277Y-57582D01*
X87168Y-57474D01*
X87027Y-57415D01*
X86874Y-57415D01*
X86732Y-57473D01*
X86624Y-57582D01*
X86585Y-57673D01*
X86585Y-52777D01*
X86585Y-52624D01*
X86527Y-52482D01*
X86418Y-52374D01*
X86349Y-52345D01*
X86077Y-52073D01*
X85996Y-52019D01*
X85900Y-52000D01*
X85760Y-52000D01*
X85760Y-51933D01*
X85728Y-51856D01*
X85669Y-51797D01*
X85592Y-51765D01*
X85508Y-51765D01*
X85158Y-51765D01*
X85081Y-51797D01*
X85022Y-51856D01*
X85000Y-51908D01*
X84978Y-51856D01*
X84919Y-51797D01*
X84842Y-51765D01*
X84758Y-51765D01*
X84408Y-51765D01*
X84331Y-51797D01*
X84272Y-51856D01*
X84240Y-51933D01*
X84240Y-52017D01*
X84240Y-52567D01*
X84272Y-52644D01*
X84331Y-52703D01*
X84365Y-52717D01*
X84365Y-52782D01*
X84331Y-52797D01*
X84272Y-52856D01*
X84240Y-52933D01*
X84240Y-53017D01*
X84240Y-53567D01*
X84272Y-53644D01*
X84331Y-53703D01*
X84408Y-53735D01*
X84492Y-53735D01*
X84842Y-53735D01*
X84919Y-53703D01*
X84978Y-53644D01*
X84978Y-53641D01*
X84989Y-53666D01*
X85059Y-53736D01*
X85151Y-53774D01*
X85226Y-53775D01*
X85288Y-53713D01*
X85288Y-53387D01*
X85200Y-53387D01*
X85200Y-53113D01*
X85288Y-53113D01*
X85288Y-53050D01*
X85462Y-53050D01*
X85462Y-53113D01*
X85738Y-53113D01*
X85800Y-53051D01*
X85799Y-53024D01*
X85799Y-52925D01*
X85761Y-52834D01*
X85691Y-52764D01*
X85625Y-52736D01*
X85625Y-52725D01*
X85615Y-52725D01*
X85669Y-52703D01*
X85728Y-52644D01*
X85760Y-52567D01*
X85760Y-52500D01*
X85796Y-52500D01*
X85845Y-52549D01*
X85815Y-52623D01*
X85815Y-52776D01*
X85873Y-52918D01*
X85982Y-53026D01*
X86123Y-53085D01*
X86276Y-53085D01*
X86418Y-53027D01*
X86526Y-52918D01*
X86585Y-52777D01*
X86585Y-57673D01*
X86568Y-57714D01*
X86427Y-57573D01*
X86346Y-57519D01*
X86277Y-57505D01*
X86272Y-57500D01*
X86303Y-57469D01*
X86335Y-57392D01*
X86335Y-57308D01*
X86335Y-57108D01*
X86303Y-57031D01*
X86272Y-57000D01*
X86303Y-56969D01*
X86335Y-56892D01*
X86335Y-56808D01*
X86335Y-56608D01*
X86303Y-56531D01*
X86272Y-56500D01*
X86303Y-56469D01*
X86335Y-56392D01*
X86335Y-56308D01*
X86335Y-56108D01*
X86303Y-56031D01*
X86272Y-56000D01*
X86303Y-55969D01*
X86335Y-55892D01*
X86335Y-55808D01*
X86335Y-55608D01*
X86303Y-55531D01*
X86244Y-55472D01*
X86185Y-55447D01*
X86185Y-54546D01*
X86235Y-54427D01*
X86235Y-54274D01*
X86177Y-54132D01*
X86068Y-54024D01*
X85927Y-53965D01*
X85800Y-53965D01*
X85800Y-53449D01*
X85738Y-53387D01*
X85462Y-53387D01*
X85462Y-53713D01*
X85524Y-53775D01*
X85599Y-53774D01*
X85691Y-53736D01*
X85761Y-53666D01*
X85799Y-53575D01*
X85799Y-53476D01*
X85800Y-53449D01*
X85800Y-53965D01*
X85774Y-53965D01*
X85632Y-54023D01*
X85524Y-54132D01*
X85465Y-54273D01*
X85465Y-54288D01*
X85416Y-54239D01*
X85325Y-54201D01*
X85226Y-54201D01*
X85199Y-54200D01*
X85137Y-54262D01*
X85137Y-54538D01*
X85463Y-54538D01*
X85496Y-54504D01*
X85523Y-54568D01*
X85615Y-54659D01*
X85615Y-55447D01*
X85556Y-55472D01*
X85538Y-55490D01*
X85485Y-55490D01*
X85485Y-55158D01*
X85453Y-55081D01*
X85394Y-55022D01*
X85391Y-55021D01*
X85416Y-55011D01*
X85486Y-54941D01*
X85524Y-54849D01*
X85525Y-54774D01*
X85463Y-54712D01*
X85137Y-54712D01*
X85137Y-54800D01*
X84863Y-54800D01*
X84863Y-54712D01*
X84863Y-54538D01*
X84863Y-54262D01*
X84801Y-54200D01*
X84774Y-54201D01*
X84675Y-54201D01*
X84584Y-54239D01*
X84514Y-54309D01*
X84476Y-54401D01*
X84475Y-54476D01*
X84537Y-54538D01*
X84863Y-54538D01*
X84863Y-54712D01*
X84537Y-54712D01*
X84475Y-54774D01*
X84476Y-54849D01*
X84514Y-54941D01*
X84584Y-55011D01*
X84608Y-55021D01*
X84606Y-55022D01*
X84547Y-55081D01*
X84532Y-55115D01*
X84217Y-55115D01*
X84203Y-55081D01*
X84144Y-55022D01*
X84141Y-55021D01*
X84166Y-55011D01*
X84236Y-54941D01*
X84274Y-54849D01*
X84275Y-54774D01*
X84275Y-54476D01*
X84274Y-54401D01*
X84236Y-54309D01*
X84166Y-54239D01*
X84075Y-54201D01*
X83976Y-54201D01*
X83949Y-54200D01*
X83887Y-54262D01*
X83887Y-54538D01*
X84213Y-54538D01*
X84275Y-54476D01*
X84275Y-54774D01*
X84213Y-54712D01*
X83887Y-54712D01*
X83887Y-54800D01*
X83613Y-54800D01*
X83613Y-54712D01*
X83613Y-54538D01*
X83613Y-54262D01*
X83551Y-54200D01*
X83524Y-54201D01*
X83425Y-54201D01*
X83334Y-54239D01*
X83300Y-54273D01*
X83300Y-53449D01*
X83238Y-53387D01*
X82962Y-53387D01*
X82962Y-53713D01*
X83024Y-53775D01*
X83099Y-53774D01*
X83191Y-53736D01*
X83261Y-53666D01*
X83299Y-53575D01*
X83299Y-53476D01*
X83300Y-53449D01*
X83300Y-54273D01*
X83264Y-54309D01*
X83226Y-54401D01*
X83225Y-54476D01*
X83287Y-54538D01*
X83613Y-54538D01*
X83613Y-54712D01*
X83287Y-54712D01*
X83225Y-54774D01*
X83226Y-54849D01*
X83264Y-54941D01*
X83334Y-55011D01*
X83358Y-55021D01*
X83356Y-55022D01*
X83297Y-55081D01*
X83265Y-55158D01*
X83265Y-55242D01*
X83265Y-55592D01*
X83297Y-55669D01*
X83356Y-55728D01*
X83433Y-55760D01*
X83517Y-55760D01*
X84067Y-55760D01*
X84144Y-55728D01*
X84203Y-55669D01*
X84217Y-55635D01*
X84532Y-55635D01*
X84547Y-55669D01*
X84606Y-55728D01*
X84683Y-55760D01*
X84767Y-55760D01*
X84892Y-55760D01*
X85064Y-55931D01*
X85066Y-55934D01*
X85150Y-55989D01*
X85151Y-55990D01*
X85250Y-56010D01*
X85401Y-56010D01*
X85316Y-56066D01*
X85017Y-56365D01*
X84467Y-56365D01*
X84453Y-56331D01*
X84394Y-56272D01*
X84317Y-56240D01*
X84233Y-56240D01*
X83683Y-56240D01*
X83617Y-56267D01*
X83616Y-56267D01*
X83588Y-56248D01*
X83488Y-56228D01*
X83331Y-56228D01*
X83308Y-56172D01*
X83249Y-56113D01*
X83172Y-56081D01*
X83094Y-56081D01*
X83090Y-56064D01*
X83075Y-55986D01*
X83074Y-55985D01*
X83019Y-55901D01*
X83016Y-55899D01*
X82859Y-55742D01*
X82894Y-55728D01*
X82953Y-55669D01*
X82985Y-55592D01*
X82985Y-55508D01*
X82985Y-55158D01*
X82953Y-55081D01*
X82894Y-55022D01*
X82891Y-55021D01*
X82916Y-55011D01*
X82986Y-54941D01*
X83024Y-54849D01*
X83025Y-54774D01*
X83025Y-54476D01*
X83024Y-54401D01*
X82986Y-54309D01*
X82916Y-54239D01*
X82825Y-54201D01*
X82726Y-54201D01*
X82699Y-54200D01*
X82637Y-54262D01*
X82637Y-54538D01*
X82963Y-54538D01*
X83025Y-54476D01*
X83025Y-54774D01*
X82963Y-54712D01*
X82637Y-54712D01*
X82637Y-54800D01*
X82363Y-54800D01*
X82363Y-54712D01*
X82363Y-54538D01*
X82363Y-54262D01*
X82301Y-54200D01*
X82274Y-54201D01*
X82175Y-54201D01*
X82084Y-54239D01*
X82014Y-54309D01*
X81976Y-54401D01*
X81975Y-54476D01*
X82037Y-54538D01*
X82363Y-54538D01*
X82363Y-54712D01*
X82037Y-54712D01*
X81975Y-54774D01*
X81976Y-54849D01*
X82014Y-54941D01*
X82084Y-55011D01*
X82108Y-55021D01*
X82106Y-55022D01*
X82047Y-55081D01*
X82015Y-55158D01*
X82015Y-55242D01*
X82015Y-55592D01*
X82047Y-55669D01*
X82106Y-55728D01*
X82183Y-55760D01*
X82242Y-55760D01*
X82260Y-55850D01*
X82316Y-55934D01*
X82473Y-56091D01*
X82421Y-56113D01*
X82362Y-56172D01*
X82330Y-56249D01*
X82330Y-56333D01*
X82330Y-56727D01*
X82362Y-56804D01*
X82421Y-56863D01*
X82498Y-56895D01*
X82582Y-56895D01*
X83172Y-56895D01*
X83249Y-56863D01*
X83308Y-56804D01*
X83331Y-56748D01*
X83380Y-56748D01*
X83439Y-56806D01*
X83441Y-56809D01*
X83523Y-56863D01*
X83524Y-56863D01*
X83547Y-56919D01*
X83606Y-56978D01*
X83658Y-57000D01*
X83606Y-57022D01*
X83547Y-57081D01*
X83524Y-57136D01*
X83523Y-57136D01*
X83441Y-57191D01*
X83439Y-57193D01*
X83380Y-57252D01*
X83331Y-57252D01*
X83308Y-57196D01*
X83249Y-57137D01*
X83172Y-57105D01*
X83088Y-57105D01*
X82498Y-57105D01*
X82421Y-57137D01*
X82362Y-57196D01*
X82330Y-57273D01*
X82330Y-57357D01*
X82330Y-57663D01*
X82323Y-57670D01*
X82269Y-57751D01*
X82250Y-57847D01*
X82250Y-58240D01*
X82183Y-58240D01*
X82106Y-58272D01*
X82047Y-58331D01*
X82015Y-58408D01*
X82015Y-58492D01*
X82015Y-58842D01*
X82047Y-58919D01*
X82106Y-58978D01*
X82084Y-58989D01*
X82014Y-59059D01*
X81976Y-59151D01*
X81975Y-59226D01*
X82037Y-59288D01*
X82363Y-59288D01*
X82363Y-59200D01*
X82637Y-59200D01*
X82637Y-59288D01*
X82963Y-59288D01*
X83025Y-59226D01*
X83024Y-59151D01*
X82986Y-59059D01*
X82916Y-58989D01*
X82891Y-58978D01*
X82894Y-58978D01*
X82953Y-58919D01*
X82985Y-58842D01*
X82985Y-58758D01*
X82985Y-58408D01*
X82953Y-58331D01*
X82894Y-58272D01*
X82817Y-58240D01*
X82750Y-58240D01*
X82750Y-57950D01*
X82781Y-57919D01*
X83172Y-57919D01*
X83249Y-57887D01*
X83308Y-57828D01*
X83331Y-57772D01*
X83488Y-57772D01*
X83587Y-57752D01*
X83588Y-57752D01*
X83616Y-57732D01*
X83617Y-57732D01*
X83683Y-57760D01*
X83767Y-57760D01*
X84317Y-57760D01*
X84394Y-57728D01*
X84453Y-57669D01*
X84467Y-57635D01*
X84875Y-57635D01*
X84974Y-57615D01*
X84975Y-57615D01*
X85059Y-57559D01*
X85465Y-57152D01*
X85465Y-57167D01*
X85066Y-57566D01*
X85036Y-57610D01*
X84406Y-58240D01*
X84183Y-58240D01*
X84106Y-58272D01*
X84047Y-58331D01*
X84015Y-58408D01*
X84015Y-58492D01*
X84015Y-58842D01*
X84047Y-58919D01*
X84106Y-58978D01*
X84158Y-59000D01*
X84106Y-59022D01*
X84047Y-59081D01*
X84043Y-59090D01*
X84025Y-59090D01*
X84024Y-59090D01*
X84005Y-59093D01*
X83916Y-59112D01*
X83911Y-59115D01*
X83824Y-59115D01*
X83682Y-59173D01*
X83574Y-59282D01*
X83515Y-59423D01*
X83515Y-59576D01*
X83573Y-59718D01*
X83682Y-59826D01*
X83823Y-59885D01*
X83976Y-59885D01*
X84118Y-59827D01*
X84183Y-59760D01*
X84184Y-59760D01*
X84267Y-59760D01*
X84817Y-59760D01*
X84894Y-59728D01*
X84953Y-59669D01*
X84985Y-59592D01*
X84985Y-59508D01*
X84985Y-59158D01*
X84953Y-59081D01*
X84894Y-59022D01*
X84841Y-59000D01*
X84894Y-58978D01*
X84953Y-58919D01*
X84985Y-58842D01*
X84985Y-58758D01*
X84985Y-58408D01*
X84973Y-58380D01*
X85017Y-58336D01*
X85019Y-58346D01*
X85073Y-58427D01*
X85250Y-58603D01*
X85250Y-59455D01*
X85174Y-59532D01*
X85115Y-59673D01*
X85115Y-59826D01*
X85173Y-59968D01*
X85195Y-59990D01*
X85183Y-59990D01*
X85106Y-60022D01*
X85047Y-60081D01*
X85040Y-60096D01*
X84968Y-60024D01*
X84827Y-59965D01*
X84674Y-59965D01*
X84532Y-60023D01*
X84459Y-60096D01*
X84453Y-60081D01*
X84394Y-60022D01*
X84317Y-59990D01*
X84233Y-59990D01*
X83683Y-59990D01*
X83606Y-60022D01*
X83547Y-60081D01*
X83515Y-60158D01*
X83515Y-60242D01*
X83515Y-60592D01*
X83547Y-60669D01*
X83606Y-60728D01*
X83658Y-60750D01*
X83606Y-60772D01*
X83547Y-60831D01*
X83515Y-60908D01*
X83515Y-60992D01*
X83515Y-61342D01*
X83547Y-61419D01*
X83606Y-61478D01*
X83683Y-61510D01*
X83767Y-61510D01*
X84291Y-61510D01*
X84265Y-61573D01*
X84265Y-61726D01*
X84270Y-61740D01*
X83107Y-61740D01*
X83010Y-61642D01*
X83010Y-61510D01*
X83067Y-61510D01*
X83144Y-61478D01*
X83203Y-61419D01*
X83235Y-61342D01*
X83235Y-61258D01*
X83235Y-60908D01*
X83203Y-60831D01*
X83144Y-60772D01*
X83091Y-60750D01*
X83144Y-60728D01*
X83203Y-60669D01*
X83235Y-60592D01*
X83235Y-60508D01*
X83235Y-60158D01*
X83203Y-60081D01*
X83144Y-60022D01*
X83067Y-59990D01*
X83025Y-59990D01*
X83025Y-59524D01*
X82963Y-59462D01*
X82637Y-59462D01*
X82637Y-59738D01*
X82699Y-59800D01*
X82726Y-59799D01*
X82825Y-59799D01*
X82916Y-59761D01*
X82986Y-59691D01*
X83024Y-59599D01*
X83025Y-59524D01*
X83025Y-59990D01*
X82983Y-59990D01*
X82433Y-59990D01*
X82363Y-60019D01*
X82363Y-59738D01*
X82363Y-59462D01*
X82037Y-59462D01*
X81975Y-59524D01*
X81976Y-59599D01*
X82014Y-59691D01*
X82084Y-59761D01*
X82175Y-59799D01*
X82274Y-59799D01*
X82301Y-59800D01*
X82363Y-59738D01*
X82363Y-60019D01*
X82356Y-60022D01*
X82297Y-60081D01*
X82278Y-60125D01*
X82275Y-60125D01*
X82274Y-60125D01*
X82179Y-60144D01*
X82098Y-60198D01*
X82096Y-60200D01*
X81973Y-60323D01*
X81919Y-60404D01*
X81900Y-60500D01*
X81900Y-60846D01*
X81750Y-60996D01*
X81750Y-60644D01*
X81826Y-60568D01*
X81885Y-60427D01*
X81885Y-60274D01*
X81827Y-60132D01*
X81718Y-60024D01*
X81577Y-59965D01*
X81424Y-59965D01*
X81282Y-60023D01*
X81174Y-60132D01*
X81135Y-60225D01*
X81135Y-59677D01*
X81135Y-59524D01*
X81077Y-59382D01*
X80968Y-59274D01*
X80827Y-59215D01*
X80674Y-59215D01*
X80532Y-59273D01*
X80485Y-59320D01*
X80485Y-59158D01*
X80453Y-59081D01*
X80395Y-59023D01*
X80423Y-59035D01*
X80576Y-59035D01*
X80718Y-58977D01*
X80826Y-58868D01*
X80885Y-58727D01*
X80885Y-58574D01*
X80827Y-58432D01*
X80718Y-58324D01*
X80702Y-58317D01*
X80702Y-57711D01*
X80702Y-57627D01*
X80702Y-56289D01*
X80670Y-56212D01*
X80611Y-56153D01*
X80534Y-56121D01*
X80450Y-56121D01*
X80300Y-56121D01*
X80300Y-53449D01*
X80238Y-53387D01*
X79962Y-53387D01*
X79962Y-53713D01*
X80024Y-53775D01*
X80099Y-53774D01*
X80191Y-53736D01*
X80261Y-53666D01*
X80299Y-53575D01*
X80299Y-53476D01*
X80300Y-53449D01*
X80300Y-56121D01*
X79466Y-56121D01*
X79389Y-56153D01*
X79330Y-56212D01*
X79298Y-56289D01*
X79298Y-56373D01*
X79298Y-57711D01*
X79330Y-57788D01*
X79389Y-57847D01*
X79466Y-57879D01*
X79550Y-57879D01*
X80534Y-57879D01*
X80611Y-57847D01*
X80670Y-57788D01*
X80702Y-57711D01*
X80702Y-58317D01*
X80577Y-58265D01*
X80424Y-58265D01*
X80397Y-58275D01*
X80394Y-58272D01*
X80317Y-58240D01*
X80233Y-58240D01*
X79683Y-58240D01*
X79606Y-58272D01*
X79547Y-58331D01*
X79529Y-58374D01*
X79528Y-58374D01*
X79476Y-58385D01*
X79391Y-58441D01*
X79389Y-58443D01*
X78759Y-59073D01*
X78759Y-58899D01*
X78682Y-58712D01*
X78538Y-58569D01*
X78351Y-58491D01*
X78149Y-58491D01*
X77962Y-58568D01*
X77819Y-58712D01*
X77776Y-58814D01*
X77774Y-58804D01*
X77691Y-58771D01*
X77479Y-58983D01*
X77479Y-58559D01*
X77446Y-58476D01*
X77230Y-58441D01*
X77054Y-58476D01*
X77021Y-58559D01*
X77250Y-58788D01*
X77479Y-58559D01*
X77479Y-58983D01*
X77462Y-59000D01*
X77691Y-59229D01*
X77774Y-59196D01*
X77775Y-59185D01*
X77818Y-59288D01*
X77962Y-59431D01*
X78127Y-59499D01*
X77962Y-59568D01*
X77819Y-59712D01*
X77750Y-59877D01*
X77682Y-59712D01*
X77538Y-59569D01*
X77435Y-59526D01*
X77446Y-59524D01*
X77479Y-59441D01*
X77250Y-59212D01*
X77038Y-59424D01*
X77038Y-59000D01*
X76809Y-58771D01*
X76726Y-58804D01*
X76691Y-59020D01*
X76726Y-59196D01*
X76809Y-59229D01*
X77038Y-59000D01*
X77038Y-59424D01*
X77021Y-59441D01*
X77054Y-59524D01*
X77064Y-59525D01*
X76962Y-59568D01*
X76819Y-59712D01*
X76807Y-59740D01*
X76750Y-59740D01*
X76651Y-59760D01*
X76566Y-59816D01*
X76510Y-59901D01*
X76490Y-60000D01*
X76490Y-61715D01*
X76424Y-61782D01*
X76365Y-61923D01*
X76365Y-62076D01*
X76423Y-62218D01*
X76532Y-62326D01*
X76673Y-62385D01*
X76826Y-62385D01*
X76968Y-62327D01*
X77076Y-62218D01*
X77135Y-62077D01*
X77135Y-61924D01*
X77077Y-61782D01*
X77010Y-61715D01*
X77010Y-61451D01*
X77149Y-61509D01*
X77351Y-61509D01*
X77538Y-61432D01*
X77681Y-61288D01*
X77740Y-61146D01*
X77740Y-61342D01*
X77772Y-61419D01*
X77831Y-61478D01*
X77908Y-61510D01*
X77992Y-61510D01*
X78592Y-61510D01*
X78669Y-61478D01*
X78728Y-61419D01*
X78760Y-61342D01*
X78760Y-61258D01*
X78760Y-60658D01*
X78728Y-60581D01*
X78669Y-60522D01*
X78592Y-60490D01*
X78508Y-60490D01*
X78397Y-60490D01*
X78538Y-60432D01*
X78681Y-60288D01*
X78759Y-60101D01*
X78759Y-59899D01*
X78732Y-59835D01*
X79597Y-58969D01*
X79606Y-58978D01*
X79658Y-59000D01*
X79606Y-59022D01*
X79547Y-59081D01*
X79515Y-59158D01*
X79515Y-59242D01*
X79515Y-59592D01*
X79547Y-59669D01*
X79606Y-59728D01*
X79683Y-59760D01*
X79686Y-59760D01*
X79638Y-59808D01*
X79584Y-59889D01*
X79583Y-59890D01*
X79521Y-59917D01*
X79462Y-59976D01*
X79430Y-60053D01*
X79430Y-60137D01*
X79430Y-60727D01*
X79462Y-60804D01*
X79521Y-60863D01*
X79598Y-60895D01*
X79682Y-60895D01*
X80032Y-60895D01*
X80100Y-60866D01*
X80168Y-60895D01*
X80252Y-60895D01*
X80602Y-60895D01*
X80679Y-60863D01*
X80738Y-60804D01*
X80770Y-60727D01*
X80770Y-60643D01*
X80770Y-60053D01*
X80749Y-60003D01*
X80768Y-59985D01*
X80826Y-59985D01*
X80968Y-59927D01*
X81076Y-59818D01*
X81135Y-59677D01*
X81135Y-60225D01*
X81115Y-60273D01*
X81115Y-60426D01*
X81173Y-60568D01*
X81250Y-60644D01*
X81250Y-61196D01*
X81085Y-61361D01*
X80770Y-61361D01*
X80770Y-61274D01*
X80738Y-61197D01*
X80679Y-61138D01*
X80602Y-61106D01*
X80518Y-61106D01*
X80168Y-61106D01*
X80101Y-61133D01*
X80032Y-61105D01*
X79948Y-61105D01*
X79598Y-61105D01*
X79521Y-61137D01*
X79462Y-61196D01*
X79430Y-61273D01*
X79430Y-61357D01*
X79430Y-61947D01*
X79462Y-62024D01*
X79521Y-62083D01*
X79598Y-62115D01*
X79682Y-62115D01*
X79711Y-62115D01*
X79811Y-62215D01*
X79500Y-62215D01*
X79391Y-62237D01*
X79298Y-62298D01*
X79237Y-62391D01*
X79215Y-62500D01*
X79215Y-63250D01*
X79237Y-63359D01*
X79298Y-63452D01*
X79391Y-63513D01*
X79500Y-63535D01*
X87500Y-63535D01*
X87609Y-63513D01*
X87702Y-63452D01*
X87763Y-63359D01*
X87785Y-63250D01*
X87785Y-62500D01*
X87763Y-62391D01*
X87702Y-62298D01*
X87628Y-62250D01*
X87705Y-62250D01*
X87782Y-62326D01*
X87923Y-62385D01*
X88076Y-62385D01*
X88218Y-62327D01*
X88326Y-62218D01*
X88385Y-62077D01*
X88385Y-61924D01*
X88327Y-61782D01*
X88218Y-61674D01*
X88077Y-61615D01*
X87924Y-61615D01*
X87782Y-61673D01*
X87705Y-61750D01*
X87299Y-61750D01*
X87250Y-61740D01*
X87100Y-61740D01*
X86025Y-61740D01*
X86025Y-61274D01*
X85963Y-61212D01*
X85637Y-61212D01*
X85637Y-61488D01*
X85699Y-61550D01*
X85726Y-61549D01*
X85825Y-61549D01*
X85916Y-61511D01*
X85986Y-61441D01*
X86024Y-61349D01*
X86025Y-61274D01*
X86025Y-61740D01*
X85363Y-61740D01*
X85363Y-61488D01*
X85363Y-61212D01*
X85037Y-61212D01*
X84975Y-61274D01*
X84976Y-61349D01*
X85014Y-61441D01*
X85084Y-61511D01*
X85175Y-61549D01*
X85274Y-61549D01*
X85301Y-61550D01*
X85363Y-61488D01*
X85363Y-61740D01*
X85029Y-61740D01*
X85035Y-61727D01*
X85035Y-61574D01*
X84977Y-61432D01*
X84889Y-61345D01*
X84889Y-61344D01*
X84881Y-61304D01*
X84827Y-61223D01*
X84824Y-61221D01*
X84552Y-60948D01*
X84482Y-60901D01*
X84453Y-60831D01*
X84394Y-60772D01*
X84341Y-60750D01*
X84394Y-60728D01*
X84453Y-60669D01*
X84467Y-60635D01*
X84490Y-60635D01*
X84532Y-60676D01*
X84673Y-60735D01*
X84826Y-60735D01*
X84968Y-60677D01*
X85025Y-60618D01*
X85047Y-60669D01*
X85106Y-60728D01*
X85084Y-60739D01*
X85014Y-60809D01*
X84976Y-60901D01*
X84975Y-60976D01*
X85037Y-61038D01*
X85363Y-61038D01*
X85363Y-60950D01*
X85637Y-60950D01*
X85637Y-61038D01*
X85963Y-61038D01*
X86025Y-60976D01*
X86024Y-60901D01*
X85986Y-60809D01*
X85916Y-60739D01*
X85891Y-60728D01*
X85894Y-60728D01*
X85953Y-60669D01*
X85985Y-60592D01*
X85985Y-60508D01*
X85985Y-60374D01*
X86023Y-60468D01*
X86132Y-60576D01*
X86273Y-60635D01*
X86426Y-60635D01*
X86519Y-60596D01*
X86573Y-60677D01*
X86821Y-60924D01*
X86823Y-60927D01*
X86904Y-60981D01*
X87000Y-61000D01*
X88705Y-61000D01*
X88782Y-61076D01*
X88923Y-61135D01*
X89076Y-61135D01*
X89218Y-61077D01*
X89326Y-60968D01*
X89385Y-60827D01*
X89385Y-60674D01*
X89327Y-60532D01*
X89218Y-60424D01*
X89077Y-60365D01*
X88924Y-60365D01*
X88782Y-60423D01*
X88705Y-60500D01*
X87103Y-60500D01*
X87000Y-60396D01*
X87000Y-59750D01*
X87000Y-59592D01*
X87023Y-59627D01*
X87571Y-60174D01*
X87573Y-60177D01*
X87654Y-60231D01*
X87749Y-60250D01*
X87749Y-60249D01*
X87750Y-60250D01*
X88455Y-60250D01*
X88532Y-60326D01*
X88673Y-60385D01*
X88826Y-60385D01*
X88968Y-60327D01*
X89076Y-60218D01*
X89135Y-60077D01*
X89135Y-59924D01*
X89077Y-59782D01*
X88968Y-59674D01*
X88827Y-59615D01*
X88674Y-59615D01*
X88532Y-59673D01*
X88455Y-59750D01*
X87853Y-59750D01*
X87450Y-59346D01*
X87450Y-58700D01*
X87431Y-58604D01*
X87377Y-58523D01*
X87374Y-58521D01*
X87341Y-58488D01*
X87400Y-58500D01*
X87628Y-58500D01*
X87597Y-58531D01*
X87565Y-58608D01*
X87565Y-58692D01*
X87565Y-58892D01*
X87597Y-58969D01*
X87656Y-59028D01*
X87733Y-59060D01*
X87745Y-59060D01*
X87674Y-59132D01*
X87615Y-59273D01*
X87615Y-59426D01*
X87673Y-59568D01*
X87782Y-59676D01*
X87923Y-59735D01*
X88076Y-59735D01*
X88218Y-59677D01*
X88326Y-59568D01*
X88385Y-59427D01*
X88385Y-59274D01*
X88327Y-59132D01*
X88254Y-59060D01*
X88267Y-59060D01*
X88344Y-59028D01*
X88403Y-58969D01*
X88435Y-58892D01*
X88435Y-58808D01*
X88435Y-58608D01*
X88403Y-58531D01*
X88372Y-58500D01*
X88403Y-58469D01*
X88435Y-58392D01*
X88435Y-58308D01*
X88435Y-58108D01*
X88403Y-58031D01*
X88372Y-58000D01*
X88455Y-58000D01*
X88532Y-58076D01*
X88673Y-58135D01*
X88826Y-58135D01*
X88968Y-58077D01*
X89076Y-57968D01*
X89135Y-57827D01*
X89135Y-57674D01*
X89077Y-57532D01*
X88968Y-57424D01*
X88827Y-57365D01*
X88674Y-57365D01*
X88532Y-57423D01*
X88455Y-57500D01*
X88372Y-57500D01*
X88403Y-57469D01*
X88435Y-57392D01*
X88435Y-57308D01*
X88435Y-57108D01*
X88403Y-57031D01*
X88382Y-57010D01*
X88715Y-57010D01*
X88782Y-57076D01*
X88923Y-57135D01*
X89076Y-57135D01*
X89218Y-57077D01*
X89326Y-56968D01*
X89385Y-56827D01*
X89385Y-56674D01*
X89357Y-56607D01*
X89423Y-56635D01*
X89576Y-56635D01*
X89718Y-56577D01*
X89826Y-56468D01*
X89885Y-56327D01*
X89885Y-58491D01*
X89862Y-58491D01*
X89862Y-58428D01*
X89862Y-58154D01*
X89862Y-57828D01*
X89801Y-57767D01*
X89709Y-57767D01*
X89618Y-57805D01*
X89548Y-57875D01*
X89510Y-57967D01*
X89509Y-58092D01*
X89571Y-58154D01*
X89862Y-58154D01*
X89862Y-58428D01*
X89571Y-58428D01*
X89509Y-58490D01*
X89510Y-58615D01*
X89548Y-58707D01*
X89609Y-58768D01*
X89585Y-58792D01*
X89529Y-58927D01*
X89529Y-59073D01*
X89585Y-59208D01*
X89609Y-59232D01*
X89548Y-59293D01*
X89510Y-59385D01*
X89509Y-59510D01*
X89571Y-59572D01*
X89862Y-59572D01*
X89862Y-59509D01*
X90068Y-59509D01*
X90068Y-59572D01*
X90119Y-59572D01*
X90119Y-59846D01*
X90068Y-59846D01*
X90068Y-60172D01*
X90129Y-60233D01*
X90221Y-60233D01*
X90275Y-60210D01*
X90275Y-60930D01*
X90174Y-61032D01*
X90115Y-61173D01*
X90115Y-61326D01*
X90173Y-61468D01*
X90282Y-61576D01*
X90423Y-61635D01*
X90576Y-61635D01*
X90700Y-61584D01*
X90700Y-63700D01*
X90700Y-63700D01*
G37*
G54D24*
X90700Y-63700D02*
X89862Y-63700D01*
X89862Y-60172D01*
X89862Y-59846D01*
X89571Y-59846D01*
X89509Y-59908D01*
X89510Y-60033D01*
X89548Y-60125D01*
X89618Y-60195D01*
X89709Y-60233D01*
X89801Y-60233D01*
X89862Y-60172D01*
X89862Y-63700D01*
X76300Y-63700D01*
X76300Y-49300D01*
X90700Y-49300D01*
X90700Y-51916D01*
X90577Y-51865D01*
X90424Y-51865D01*
X90282Y-51923D01*
X90174Y-52032D01*
X90115Y-52173D01*
X90115Y-52326D01*
X90173Y-52468D01*
X90275Y-52569D01*
X90275Y-52789D01*
X90221Y-52767D01*
X90129Y-52767D01*
X90068Y-52828D01*
X90068Y-53154D01*
X90119Y-53154D01*
X90119Y-53428D01*
X90068Y-53428D01*
X90068Y-53491D01*
X89862Y-53491D01*
X89862Y-53428D01*
X89862Y-53154D01*
X89862Y-52828D01*
X89801Y-52767D01*
X89709Y-52767D01*
X89635Y-52797D01*
X89635Y-51077D01*
X89635Y-50924D01*
X89577Y-50782D01*
X89468Y-50674D01*
X89327Y-50615D01*
X89174Y-50615D01*
X89032Y-50673D01*
X88965Y-50740D01*
X87644Y-50740D01*
X87702Y-50702D01*
X87763Y-50609D01*
X87785Y-50500D01*
X87785Y-49750D01*
X87763Y-49641D01*
X87702Y-49548D01*
X87609Y-49487D01*
X87500Y-49465D01*
X79500Y-49465D01*
X79391Y-49487D01*
X79298Y-49548D01*
X79237Y-49641D01*
X79215Y-49750D01*
X79215Y-50500D01*
X79237Y-50609D01*
X79298Y-50702D01*
X79391Y-50763D01*
X79500Y-50785D01*
X80613Y-50785D01*
X80566Y-50816D01*
X79691Y-51691D01*
X79635Y-51774D01*
X79581Y-51797D01*
X79522Y-51856D01*
X79500Y-51908D01*
X79478Y-51856D01*
X79419Y-51797D01*
X79342Y-51765D01*
X79258Y-51765D01*
X78908Y-51765D01*
X78831Y-51797D01*
X78772Y-51856D01*
X78740Y-51933D01*
X78740Y-52017D01*
X78740Y-52567D01*
X78772Y-52644D01*
X78831Y-52703D01*
X78865Y-52717D01*
X78865Y-52782D01*
X78831Y-52797D01*
X78772Y-52856D01*
X78740Y-52933D01*
X78740Y-53017D01*
X78740Y-53567D01*
X78772Y-53644D01*
X78831Y-53703D01*
X78908Y-53735D01*
X78992Y-53735D01*
X79342Y-53735D01*
X79419Y-53703D01*
X79478Y-53644D01*
X79478Y-53641D01*
X79489Y-53666D01*
X79559Y-53736D01*
X79651Y-53774D01*
X79726Y-53775D01*
X79788Y-53713D01*
X79788Y-53387D01*
X79700Y-53387D01*
X79700Y-53113D01*
X79788Y-53113D01*
X79788Y-53050D01*
X79962Y-53050D01*
X79962Y-53113D01*
X80238Y-53113D01*
X80300Y-53051D01*
X80299Y-53024D01*
X80299Y-52925D01*
X80261Y-52834D01*
X80191Y-52764D01*
X80125Y-52736D01*
X80125Y-52725D01*
X80115Y-52725D01*
X80169Y-52703D01*
X80228Y-52644D01*
X80260Y-52567D01*
X80260Y-52483D01*
X80260Y-51933D01*
X80237Y-51880D01*
X80858Y-51260D01*
X82872Y-51260D01*
X82691Y-51441D01*
X82635Y-51525D01*
X82615Y-51625D01*
X82615Y-51782D01*
X82581Y-51797D01*
X82522Y-51856D01*
X82500Y-51908D01*
X82478Y-51856D01*
X82419Y-51797D01*
X82342Y-51765D01*
X82258Y-51765D01*
X81908Y-51765D01*
X81831Y-51797D01*
X81772Y-51856D01*
X81740Y-51933D01*
X81740Y-52017D01*
X81740Y-52567D01*
X81772Y-52644D01*
X81831Y-52703D01*
X81865Y-52717D01*
X81865Y-52782D01*
X81831Y-52797D01*
X81772Y-52856D01*
X81740Y-52933D01*
X81740Y-53017D01*
X81740Y-53567D01*
X81772Y-53644D01*
X81831Y-53703D01*
X81908Y-53735D01*
X81992Y-53735D01*
X82342Y-53735D01*
X82419Y-53703D01*
X82478Y-53644D01*
X82478Y-53641D01*
X82489Y-53666D01*
X82559Y-53736D01*
X82651Y-53774D01*
X82726Y-53775D01*
X82788Y-53713D01*
X82788Y-53387D01*
X82700Y-53387D01*
X82700Y-53113D01*
X82788Y-53113D01*
X82788Y-53050D01*
X82962Y-53050D01*
X82962Y-53113D01*
X83238Y-53113D01*
X83300Y-53051D01*
X83299Y-53024D01*
X83299Y-52925D01*
X83261Y-52834D01*
X83191Y-52764D01*
X83125Y-52736D01*
X83125Y-52725D01*
X83115Y-52725D01*
X83169Y-52703D01*
X83228Y-52644D01*
X83260Y-52567D01*
X83260Y-52483D01*
X83260Y-51933D01*
X83228Y-51856D01*
X83169Y-51797D01*
X83135Y-51782D01*
X83135Y-51733D01*
X83358Y-51510D01*
X88392Y-51510D01*
X88615Y-51733D01*
X88615Y-51826D01*
X88642Y-51892D01*
X88577Y-51865D01*
X88424Y-51865D01*
X88282Y-51923D01*
X88260Y-51945D01*
X88260Y-51933D01*
X88228Y-51856D01*
X88169Y-51797D01*
X88092Y-51765D01*
X88008Y-51765D01*
X87658Y-51765D01*
X87581Y-51797D01*
X87522Y-51856D01*
X87500Y-51908D01*
X87478Y-51856D01*
X87419Y-51797D01*
X87342Y-51765D01*
X87258Y-51765D01*
X86908Y-51765D01*
X86831Y-51797D01*
X86772Y-51856D01*
X86740Y-51933D01*
X86740Y-52017D01*
X86740Y-52567D01*
X86772Y-52644D01*
X86831Y-52703D01*
X86865Y-52717D01*
X86865Y-52782D01*
X86831Y-52797D01*
X86772Y-52856D01*
X86740Y-52933D01*
X86740Y-53017D01*
X86740Y-53567D01*
X86772Y-53644D01*
X86831Y-53703D01*
X86908Y-53735D01*
X86992Y-53735D01*
X87342Y-53735D01*
X87419Y-53703D01*
X87478Y-53644D01*
X87478Y-53641D01*
X87489Y-53666D01*
X87559Y-53736D01*
X87651Y-53774D01*
X87726Y-53775D01*
X87788Y-53713D01*
X87788Y-53387D01*
X87700Y-53387D01*
X87700Y-53113D01*
X87788Y-53113D01*
X87788Y-53050D01*
X87962Y-53050D01*
X87962Y-53113D01*
X88238Y-53113D01*
X88300Y-53051D01*
X88299Y-53024D01*
X88299Y-52925D01*
X88261Y-52834D01*
X88191Y-52764D01*
X88125Y-52736D01*
X88125Y-52725D01*
X88115Y-52725D01*
X88169Y-52703D01*
X88228Y-52644D01*
X88260Y-52567D01*
X88260Y-52554D01*
X88282Y-52576D01*
X88423Y-52635D01*
X88576Y-52635D01*
X88718Y-52577D01*
X88826Y-52468D01*
X88885Y-52327D01*
X88885Y-52174D01*
X88857Y-52107D01*
X88923Y-52135D01*
X89076Y-52135D01*
X89218Y-52077D01*
X89326Y-51968D01*
X89385Y-51827D01*
X89385Y-51674D01*
X89327Y-51532D01*
X89218Y-51424D01*
X89077Y-51365D01*
X88983Y-51365D01*
X88878Y-51260D01*
X88965Y-51260D01*
X89032Y-51326D01*
X89173Y-51385D01*
X89326Y-51385D01*
X89468Y-51327D01*
X89576Y-51218D01*
X89635Y-51077D01*
X89635Y-52797D01*
X89618Y-52805D01*
X89548Y-52875D01*
X89510Y-52967D01*
X89509Y-53092D01*
X89571Y-53154D01*
X89862Y-53154D01*
X89862Y-53428D01*
X89571Y-53428D01*
X89509Y-53490D01*
X89510Y-53615D01*
X89548Y-53707D01*
X89609Y-53768D01*
X89585Y-53792D01*
X89529Y-53927D01*
X89529Y-54073D01*
X89585Y-54208D01*
X89609Y-54232D01*
X89548Y-54293D01*
X89510Y-54385D01*
X89509Y-54510D01*
X89571Y-54572D01*
X89862Y-54572D01*
X89862Y-54509D01*
X90068Y-54509D01*
X90068Y-54572D01*
X90119Y-54572D01*
X90119Y-54846D01*
X90068Y-54846D01*
X90068Y-55172D01*
X90129Y-55233D01*
X90221Y-55233D01*
X90275Y-55210D01*
X90275Y-55680D01*
X90174Y-55782D01*
X90115Y-55923D01*
X90115Y-56076D01*
X90173Y-56218D01*
X90282Y-56326D01*
X90423Y-56385D01*
X90576Y-56385D01*
X90700Y-56334D01*
X90700Y-56916D01*
X90577Y-56865D01*
X90424Y-56865D01*
X90282Y-56923D01*
X90174Y-57032D01*
X90115Y-57173D01*
X90115Y-57326D01*
X90173Y-57468D01*
X90275Y-57569D01*
X90275Y-57789D01*
X90221Y-57767D01*
X90129Y-57767D01*
X90068Y-57828D01*
X90068Y-58154D01*
X90119Y-58154D01*
X90119Y-58428D01*
X90068Y-58428D01*
X90068Y-58491D01*
X89885Y-58491D01*
X89885Y-56327D01*
X89885Y-56174D01*
X89862Y-56117D01*
X89862Y-55172D01*
X89862Y-54846D01*
X89571Y-54846D01*
X89509Y-54908D01*
X89510Y-55033D01*
X89548Y-55125D01*
X89618Y-55195D01*
X89709Y-55233D01*
X89801Y-55233D01*
X89862Y-55172D01*
X89862Y-56117D01*
X89827Y-56032D01*
X89718Y-55924D01*
X89577Y-55865D01*
X89424Y-55865D01*
X89282Y-55923D01*
X89215Y-55990D01*
X88436Y-55990D01*
X88474Y-55899D01*
X88475Y-55862D01*
X88475Y-55638D01*
X88474Y-55601D01*
X88436Y-55509D01*
X88366Y-55439D01*
X88300Y-55411D01*
X88300Y-53449D01*
X88238Y-53387D01*
X87962Y-53387D01*
X87962Y-53713D01*
X88024Y-53775D01*
X88099Y-53774D01*
X88191Y-53736D01*
X88261Y-53666D01*
X88299Y-53575D01*
X88299Y-53476D01*
X88300Y-53449D01*
X88300Y-55411D01*
X88275Y-55401D01*
X88176Y-55401D01*
X88174Y-55400D01*
X88112Y-55462D01*
X88112Y-55700D01*
X88413Y-55700D01*
X88475Y-55638D01*
X88475Y-55862D01*
X88413Y-55800D01*
X88112Y-55800D01*
X88112Y-55850D01*
X87888Y-55850D01*
X87888Y-55800D01*
X87888Y-55700D01*
X87888Y-55462D01*
X87826Y-55400D01*
X87824Y-55401D01*
X87725Y-55401D01*
X87634Y-55439D01*
X87564Y-55509D01*
X87526Y-55601D01*
X87525Y-55638D01*
X87587Y-55700D01*
X87888Y-55700D01*
X87888Y-55800D01*
X87587Y-55800D01*
X87525Y-55862D01*
X87526Y-55899D01*
X87564Y-55991D01*
X87600Y-56027D01*
X87597Y-56031D01*
X87565Y-56108D01*
X87565Y-56192D01*
X87565Y-56392D01*
X87597Y-56469D01*
X87628Y-56500D01*
X87597Y-56531D01*
X87565Y-56608D01*
X87565Y-56692D01*
X87565Y-56892D01*
X87597Y-56969D01*
X87618Y-56990D01*
X87607Y-56990D01*
X87434Y-56816D01*
X87389Y-56786D01*
X87250Y-56646D01*
X87250Y-55250D01*
X87250Y-54544D01*
X87326Y-54468D01*
X87385Y-54327D01*
X87385Y-54174D01*
X87327Y-54032D01*
X87218Y-53924D01*
X87077Y-53865D01*
X86924Y-53865D01*
X86782Y-53923D01*
X86674Y-54032D01*
X86615Y-54173D01*
X86615Y-54326D01*
X86673Y-54468D01*
X86750Y-54544D01*
X86750Y-55250D01*
X86750Y-56750D01*
X86769Y-56846D01*
X86823Y-56927D01*
X87036Y-57139D01*
X87066Y-57184D01*
X87314Y-57431D01*
X87316Y-57434D01*
X87400Y-57489D01*
X87401Y-57490D01*
X87500Y-57510D01*
X87618Y-57510D01*
X87597Y-57531D01*
X87565Y-57608D01*
X87565Y-57692D01*
X87565Y-57892D01*
X87597Y-57969D01*
X87628Y-58000D01*
X87503Y-58000D01*
X87335Y-57831D01*
X87335Y-57724D01*
X87277Y-57582D01*
X87168Y-57474D01*
X87027Y-57415D01*
X86874Y-57415D01*
X86732Y-57473D01*
X86624Y-57582D01*
X86585Y-57673D01*
X86585Y-52777D01*
X86585Y-52624D01*
X86527Y-52482D01*
X86418Y-52374D01*
X86349Y-52345D01*
X86077Y-52073D01*
X85996Y-52019D01*
X85900Y-52000D01*
X85760Y-52000D01*
X85760Y-51933D01*
X85728Y-51856D01*
X85669Y-51797D01*
X85592Y-51765D01*
X85508Y-51765D01*
X85158Y-51765D01*
X85081Y-51797D01*
X85022Y-51856D01*
X85000Y-51908D01*
X84978Y-51856D01*
X84919Y-51797D01*
X84842Y-51765D01*
X84758Y-51765D01*
X84408Y-51765D01*
X84331Y-51797D01*
X84272Y-51856D01*
X84240Y-51933D01*
X84240Y-52017D01*
X84240Y-52567D01*
X84272Y-52644D01*
X84331Y-52703D01*
X84365Y-52717D01*
X84365Y-52782D01*
X84331Y-52797D01*
X84272Y-52856D01*
X84240Y-52933D01*
X84240Y-53017D01*
X84240Y-53567D01*
X84272Y-53644D01*
X84331Y-53703D01*
X84408Y-53735D01*
X84492Y-53735D01*
X84842Y-53735D01*
X84919Y-53703D01*
X84978Y-53644D01*
X84978Y-53641D01*
X84989Y-53666D01*
X85059Y-53736D01*
X85151Y-53774D01*
X85226Y-53775D01*
X85288Y-53713D01*
X85288Y-53387D01*
X85200Y-53387D01*
X85200Y-53113D01*
X85288Y-53113D01*
X85288Y-53050D01*
X85462Y-53050D01*
X85462Y-53113D01*
X85738Y-53113D01*
X85800Y-53051D01*
X85799Y-53024D01*
X85799Y-52925D01*
X85761Y-52834D01*
X85691Y-52764D01*
X85625Y-52736D01*
X85625Y-52725D01*
X85615Y-52725D01*
X85669Y-52703D01*
X85728Y-52644D01*
X85760Y-52567D01*
X85760Y-52500D01*
X85796Y-52500D01*
X85845Y-52549D01*
X85815Y-52623D01*
X85815Y-52776D01*
X85873Y-52918D01*
X85982Y-53026D01*
X86123Y-53085D01*
X86276Y-53085D01*
X86418Y-53027D01*
X86526Y-52918D01*
X86585Y-52777D01*
X86585Y-57673D01*
X86568Y-57714D01*
X86427Y-57573D01*
X86346Y-57519D01*
X86277Y-57505D01*
X86272Y-57500D01*
X86303Y-57469D01*
X86335Y-57392D01*
X86335Y-57308D01*
X86335Y-57108D01*
X86303Y-57031D01*
X86272Y-57000D01*
X86303Y-56969D01*
X86335Y-56892D01*
X86335Y-56808D01*
X86335Y-56608D01*
X86303Y-56531D01*
X86272Y-56500D01*
X86303Y-56469D01*
X86335Y-56392D01*
X86335Y-56308D01*
X86335Y-56108D01*
X86303Y-56031D01*
X86272Y-56000D01*
X86303Y-55969D01*
X86335Y-55892D01*
X86335Y-55808D01*
X86335Y-55608D01*
X86303Y-55531D01*
X86244Y-55472D01*
X86185Y-55447D01*
X86185Y-54546D01*
X86235Y-54427D01*
X86235Y-54274D01*
X86177Y-54132D01*
X86068Y-54024D01*
X85927Y-53965D01*
X85800Y-53965D01*
X85800Y-53449D01*
X85738Y-53387D01*
X85462Y-53387D01*
X85462Y-53713D01*
X85524Y-53775D01*
X85599Y-53774D01*
X85691Y-53736D01*
X85761Y-53666D01*
X85799Y-53575D01*
X85799Y-53476D01*
X85800Y-53449D01*
X85800Y-53965D01*
X85774Y-53965D01*
X85632Y-54023D01*
X85524Y-54132D01*
X85465Y-54273D01*
X85465Y-54288D01*
X85416Y-54239D01*
X85325Y-54201D01*
X85226Y-54201D01*
X85199Y-54200D01*
X85137Y-54262D01*
X85137Y-54538D01*
X85463Y-54538D01*
X85496Y-54504D01*
X85523Y-54568D01*
X85615Y-54659D01*
X85615Y-55447D01*
X85556Y-55472D01*
X85538Y-55490D01*
X85485Y-55490D01*
X85485Y-55158D01*
X85453Y-55081D01*
X85394Y-55022D01*
X85391Y-55021D01*
X85416Y-55011D01*
X85486Y-54941D01*
X85524Y-54849D01*
X85525Y-54774D01*
X85463Y-54712D01*
X85137Y-54712D01*
X85137Y-54800D01*
X84863Y-54800D01*
X84863Y-54712D01*
X84863Y-54538D01*
X84863Y-54262D01*
X84801Y-54200D01*
X84774Y-54201D01*
X84675Y-54201D01*
X84584Y-54239D01*
X84514Y-54309D01*
X84476Y-54401D01*
X84475Y-54476D01*
X84537Y-54538D01*
X84863Y-54538D01*
X84863Y-54712D01*
X84537Y-54712D01*
X84475Y-54774D01*
X84476Y-54849D01*
X84514Y-54941D01*
X84584Y-55011D01*
X84608Y-55021D01*
X84606Y-55022D01*
X84547Y-55081D01*
X84532Y-55115D01*
X84217Y-55115D01*
X84203Y-55081D01*
X84144Y-55022D01*
X84141Y-55021D01*
X84166Y-55011D01*
X84236Y-54941D01*
X84274Y-54849D01*
X84275Y-54774D01*
X84275Y-54476D01*
X84274Y-54401D01*
X84236Y-54309D01*
X84166Y-54239D01*
X84075Y-54201D01*
X83976Y-54201D01*
X83949Y-54200D01*
X83887Y-54262D01*
X83887Y-54538D01*
X84213Y-54538D01*
X84275Y-54476D01*
X84275Y-54774D01*
X84213Y-54712D01*
X83887Y-54712D01*
X83887Y-54800D01*
X83613Y-54800D01*
X83613Y-54712D01*
X83613Y-54538D01*
X83613Y-54262D01*
X83551Y-54200D01*
X83524Y-54201D01*
X83425Y-54201D01*
X83334Y-54239D01*
X83300Y-54273D01*
X83300Y-53449D01*
X83238Y-53387D01*
X82962Y-53387D01*
X82962Y-53713D01*
X83024Y-53775D01*
X83099Y-53774D01*
X83191Y-53736D01*
X83261Y-53666D01*
X83299Y-53575D01*
X83299Y-53476D01*
X83300Y-53449D01*
X83300Y-54273D01*
X83264Y-54309D01*
X83226Y-54401D01*
X83225Y-54476D01*
X83287Y-54538D01*
X83613Y-54538D01*
X83613Y-54712D01*
X83287Y-54712D01*
X83225Y-54774D01*
X83226Y-54849D01*
X83264Y-54941D01*
X83334Y-55011D01*
X83358Y-55021D01*
X83356Y-55022D01*
X83297Y-55081D01*
X83265Y-55158D01*
X83265Y-55242D01*
X83265Y-55592D01*
X83297Y-55669D01*
X83356Y-55728D01*
X83433Y-55760D01*
X83517Y-55760D01*
X84067Y-55760D01*
X84144Y-55728D01*
X84203Y-55669D01*
X84217Y-55635D01*
X84532Y-55635D01*
X84547Y-55669D01*
X84606Y-55728D01*
X84683Y-55760D01*
X84767Y-55760D01*
X84892Y-55760D01*
X85064Y-55931D01*
X85066Y-55934D01*
X85150Y-55989D01*
X85151Y-55990D01*
X85250Y-56010D01*
X85401Y-56010D01*
X85316Y-56066D01*
X85017Y-56365D01*
X84467Y-56365D01*
X84453Y-56331D01*
X84394Y-56272D01*
X84317Y-56240D01*
X84233Y-56240D01*
X83683Y-56240D01*
X83617Y-56267D01*
X83616Y-56267D01*
X83588Y-56248D01*
X83488Y-56228D01*
X83331Y-56228D01*
X83308Y-56172D01*
X83249Y-56113D01*
X83172Y-56081D01*
X83094Y-56081D01*
X83090Y-56064D01*
X83075Y-55986D01*
X83074Y-55985D01*
X83019Y-55901D01*
X83016Y-55899D01*
X82859Y-55742D01*
X82894Y-55728D01*
X82953Y-55669D01*
X82985Y-55592D01*
X82985Y-55508D01*
X82985Y-55158D01*
X82953Y-55081D01*
X82894Y-55022D01*
X82891Y-55021D01*
X82916Y-55011D01*
X82986Y-54941D01*
X83024Y-54849D01*
X83025Y-54774D01*
X83025Y-54476D01*
X83024Y-54401D01*
X82986Y-54309D01*
X82916Y-54239D01*
X82825Y-54201D01*
X82726Y-54201D01*
X82699Y-54200D01*
X82637Y-54262D01*
X82637Y-54538D01*
X82963Y-54538D01*
X83025Y-54476D01*
X83025Y-54774D01*
X82963Y-54712D01*
X82637Y-54712D01*
X82637Y-54800D01*
X82363Y-54800D01*
X82363Y-54712D01*
X82363Y-54538D01*
X82363Y-54262D01*
X82301Y-54200D01*
X82274Y-54201D01*
X82175Y-54201D01*
X82084Y-54239D01*
X82014Y-54309D01*
X81976Y-54401D01*
X81975Y-54476D01*
X82037Y-54538D01*
X82363Y-54538D01*
X82363Y-54712D01*
X82037Y-54712D01*
X81975Y-54774D01*
X81976Y-54849D01*
X82014Y-54941D01*
X82084Y-55011D01*
X82108Y-55021D01*
X82106Y-55022D01*
X82047Y-55081D01*
X82015Y-55158D01*
X82015Y-55242D01*
X82015Y-55592D01*
X82047Y-55669D01*
X82106Y-55728D01*
X82183Y-55760D01*
X82242Y-55760D01*
X82260Y-55850D01*
X82316Y-55934D01*
X82473Y-56091D01*
X82421Y-56113D01*
X82362Y-56172D01*
X82330Y-56249D01*
X82330Y-56333D01*
X82330Y-56727D01*
X82362Y-56804D01*
X82421Y-56863D01*
X82498Y-56895D01*
X82582Y-56895D01*
X83172Y-56895D01*
X83249Y-56863D01*
X83308Y-56804D01*
X83331Y-56748D01*
X83380Y-56748D01*
X83439Y-56806D01*
X83441Y-56809D01*
X83523Y-56863D01*
X83524Y-56863D01*
X83547Y-56919D01*
X83606Y-56978D01*
X83658Y-57000D01*
X83606Y-57022D01*
X83547Y-57081D01*
X83524Y-57136D01*
X83523Y-57136D01*
X83441Y-57191D01*
X83439Y-57193D01*
X83380Y-57252D01*
X83331Y-57252D01*
X83308Y-57196D01*
X83249Y-57137D01*
X83172Y-57105D01*
X83088Y-57105D01*
X82498Y-57105D01*
X82421Y-57137D01*
X82362Y-57196D01*
X82330Y-57273D01*
X82330Y-57357D01*
X82330Y-57663D01*
X82323Y-57670D01*
X82269Y-57751D01*
X82250Y-57847D01*
X82250Y-58240D01*
X82183Y-58240D01*
X82106Y-58272D01*
X82047Y-58331D01*
X82015Y-58408D01*
X82015Y-58492D01*
X82015Y-58842D01*
X82047Y-58919D01*
X82106Y-58978D01*
X82084Y-58989D01*
X82014Y-59059D01*
X81976Y-59151D01*
X81975Y-59226D01*
X82037Y-59288D01*
X82363Y-59288D01*
X82363Y-59200D01*
X82637Y-59200D01*
X82637Y-59288D01*
X82963Y-59288D01*
X83025Y-59226D01*
X83024Y-59151D01*
X82986Y-59059D01*
X82916Y-58989D01*
X82891Y-58978D01*
X82894Y-58978D01*
X82953Y-58919D01*
X82985Y-58842D01*
X82985Y-58758D01*
X82985Y-58408D01*
X82953Y-58331D01*
X82894Y-58272D01*
X82817Y-58240D01*
X82750Y-58240D01*
X82750Y-57950D01*
X82781Y-57919D01*
X83172Y-57919D01*
X83249Y-57887D01*
X83308Y-57828D01*
X83331Y-57772D01*
X83488Y-57772D01*
X83587Y-57752D01*
X83588Y-57752D01*
X83616Y-57732D01*
X83617Y-57732D01*
X83683Y-57760D01*
X83767Y-57760D01*
X84317Y-57760D01*
X84394Y-57728D01*
X84453Y-57669D01*
X84467Y-57635D01*
X84875Y-57635D01*
X84974Y-57615D01*
X84975Y-57615D01*
X85059Y-57559D01*
X85465Y-57152D01*
X85465Y-57167D01*
X85066Y-57566D01*
X85036Y-57610D01*
X84406Y-58240D01*
X84183Y-58240D01*
X84106Y-58272D01*
X84047Y-58331D01*
X84015Y-58408D01*
X84015Y-58492D01*
X84015Y-58842D01*
X84047Y-58919D01*
X84106Y-58978D01*
X84158Y-59000D01*
X84106Y-59022D01*
X84047Y-59081D01*
X84043Y-59090D01*
X84025Y-59090D01*
X84024Y-59090D01*
X84005Y-59093D01*
X83916Y-59112D01*
X83911Y-59115D01*
X83824Y-59115D01*
X83682Y-59173D01*
X83574Y-59282D01*
X83515Y-59423D01*
X83515Y-59576D01*
X83573Y-59718D01*
X83682Y-59826D01*
X83823Y-59885D01*
X83976Y-59885D01*
X84118Y-59827D01*
X84183Y-59760D01*
X84184Y-59760D01*
X84267Y-59760D01*
X84817Y-59760D01*
X84894Y-59728D01*
X84953Y-59669D01*
X84985Y-59592D01*
X84985Y-59508D01*
X84985Y-59158D01*
X84953Y-59081D01*
X84894Y-59022D01*
X84841Y-59000D01*
X84894Y-58978D01*
X84953Y-58919D01*
X84985Y-58842D01*
X84985Y-58758D01*
X84985Y-58408D01*
X84973Y-58380D01*
X85017Y-58336D01*
X85019Y-58346D01*
X85073Y-58427D01*
X85250Y-58603D01*
X85250Y-59455D01*
X85174Y-59532D01*
X85115Y-59673D01*
X85115Y-59826D01*
X85173Y-59968D01*
X85195Y-59990D01*
X85183Y-59990D01*
X85106Y-60022D01*
X85047Y-60081D01*
X85040Y-60096D01*
X84968Y-60024D01*
X84827Y-59965D01*
X84674Y-59965D01*
X84532Y-60023D01*
X84459Y-60096D01*
X84453Y-60081D01*
X84394Y-60022D01*
X84317Y-59990D01*
X84233Y-59990D01*
X83683Y-59990D01*
X83606Y-60022D01*
X83547Y-60081D01*
X83515Y-60158D01*
X83515Y-60242D01*
X83515Y-60592D01*
X83547Y-60669D01*
X83606Y-60728D01*
X83658Y-60750D01*
X83606Y-60772D01*
X83547Y-60831D01*
X83515Y-60908D01*
X83515Y-60992D01*
X83515Y-61342D01*
X83547Y-61419D01*
X83606Y-61478D01*
X83683Y-61510D01*
X83767Y-61510D01*
X84291Y-61510D01*
X84265Y-61573D01*
X84265Y-61726D01*
X84270Y-61740D01*
X83107Y-61740D01*
X83010Y-61642D01*
X83010Y-61510D01*
X83067Y-61510D01*
X83144Y-61478D01*
X83203Y-61419D01*
X83235Y-61342D01*
X83235Y-61258D01*
X83235Y-60908D01*
X83203Y-60831D01*
X83144Y-60772D01*
X83091Y-60750D01*
X83144Y-60728D01*
X83203Y-60669D01*
X83235Y-60592D01*
X83235Y-60508D01*
X83235Y-60158D01*
X83203Y-60081D01*
X83144Y-60022D01*
X83067Y-59990D01*
X83025Y-59990D01*
X83025Y-59524D01*
X82963Y-59462D01*
X82637Y-59462D01*
X82637Y-59738D01*
X82699Y-59800D01*
X82726Y-59799D01*
X82825Y-59799D01*
X82916Y-59761D01*
X82986Y-59691D01*
X83024Y-59599D01*
X83025Y-59524D01*
X83025Y-59990D01*
X82983Y-59990D01*
X82433Y-59990D01*
X82363Y-60019D01*
X82363Y-59738D01*
X82363Y-59462D01*
X82037Y-59462D01*
X81975Y-59524D01*
X81976Y-59599D01*
X82014Y-59691D01*
X82084Y-59761D01*
X82175Y-59799D01*
X82274Y-59799D01*
X82301Y-59800D01*
X82363Y-59738D01*
X82363Y-60019D01*
X82356Y-60022D01*
X82297Y-60081D01*
X82278Y-60125D01*
X82275Y-60125D01*
X82274Y-60125D01*
X82179Y-60144D01*
X82098Y-60198D01*
X82096Y-60200D01*
X81973Y-60323D01*
X81919Y-60404D01*
X81900Y-60500D01*
X81900Y-60846D01*
X81750Y-60996D01*
X81750Y-60644D01*
X81826Y-60568D01*
X81885Y-60427D01*
X81885Y-60274D01*
X81827Y-60132D01*
X81718Y-60024D01*
X81577Y-59965D01*
X81424Y-59965D01*
X81282Y-60023D01*
X81174Y-60132D01*
X81135Y-60225D01*
X81135Y-59677D01*
X81135Y-59524D01*
X81077Y-59382D01*
X80968Y-59274D01*
X80827Y-59215D01*
X80674Y-59215D01*
X80532Y-59273D01*
X80485Y-59320D01*
X80485Y-59158D01*
X80453Y-59081D01*
X80395Y-59023D01*
X80423Y-59035D01*
X80576Y-59035D01*
X80718Y-58977D01*
X80826Y-58868D01*
X80885Y-58727D01*
X80885Y-58574D01*
X80827Y-58432D01*
X80718Y-58324D01*
X80702Y-58317D01*
X80702Y-57711D01*
X80702Y-57627D01*
X80702Y-56289D01*
X80670Y-56212D01*
X80611Y-56153D01*
X80534Y-56121D01*
X80450Y-56121D01*
X80300Y-56121D01*
X80300Y-53449D01*
X80238Y-53387D01*
X79962Y-53387D01*
X79962Y-53713D01*
X80024Y-53775D01*
X80099Y-53774D01*
X80191Y-53736D01*
X80261Y-53666D01*
X80299Y-53575D01*
X80299Y-53476D01*
X80300Y-53449D01*
X80300Y-56121D01*
X79466Y-56121D01*
X79389Y-56153D01*
X79330Y-56212D01*
X79298Y-56289D01*
X79298Y-56373D01*
X79298Y-57711D01*
X79330Y-57788D01*
X79389Y-57847D01*
X79466Y-57879D01*
X79550Y-57879D01*
X80534Y-57879D01*
X80611Y-57847D01*
X80670Y-57788D01*
X80702Y-57711D01*
X80702Y-58317D01*
X80577Y-58265D01*
X80424Y-58265D01*
X80397Y-58275D01*
X80394Y-58272D01*
X80317Y-58240D01*
X80233Y-58240D01*
X79683Y-58240D01*
X79606Y-58272D01*
X79547Y-58331D01*
X79529Y-58374D01*
X79528Y-58374D01*
X79476Y-58385D01*
X79391Y-58441D01*
X79389Y-58443D01*
X78759Y-59073D01*
X78759Y-58899D01*
X78682Y-58712D01*
X78538Y-58569D01*
X78351Y-58491D01*
X78149Y-58491D01*
X77962Y-58568D01*
X77819Y-58712D01*
X77776Y-58814D01*
X77774Y-58804D01*
X77691Y-58771D01*
X77479Y-58983D01*
X77479Y-58559D01*
X77446Y-58476D01*
X77230Y-58441D01*
X77054Y-58476D01*
X77021Y-58559D01*
X77250Y-58788D01*
X77479Y-58559D01*
X77479Y-58983D01*
X77462Y-59000D01*
X77691Y-59229D01*
X77774Y-59196D01*
X77775Y-59185D01*
X77818Y-59288D01*
X77962Y-59431D01*
X78127Y-59499D01*
X77962Y-59568D01*
X77819Y-59712D01*
X77750Y-59877D01*
X77682Y-59712D01*
X77538Y-59569D01*
X77435Y-59526D01*
X77446Y-59524D01*
X77479Y-59441D01*
X77250Y-59212D01*
X77038Y-59424D01*
X77038Y-59000D01*
X76809Y-58771D01*
X76726Y-58804D01*
X76691Y-59020D01*
X76726Y-59196D01*
X76809Y-59229D01*
X77038Y-59000D01*
X77038Y-59424D01*
X77021Y-59441D01*
X77054Y-59524D01*
X77064Y-59525D01*
X76962Y-59568D01*
X76819Y-59712D01*
X76807Y-59740D01*
X76750Y-59740D01*
X76651Y-59760D01*
X76566Y-59816D01*
X76510Y-59901D01*
X76490Y-60000D01*
X76490Y-61715D01*
X76424Y-61782D01*
X76365Y-61923D01*
X76365Y-62076D01*
X76423Y-62218D01*
X76532Y-62326D01*
X76673Y-62385D01*
X76826Y-62385D01*
X76968Y-62327D01*
X77076Y-62218D01*
X77135Y-62077D01*
X77135Y-61924D01*
X77077Y-61782D01*
X77010Y-61715D01*
X77010Y-61451D01*
X77149Y-61509D01*
X77351Y-61509D01*
X77538Y-61432D01*
X77681Y-61288D01*
X77740Y-61146D01*
X77740Y-61342D01*
X77772Y-61419D01*
X77831Y-61478D01*
X77908Y-61510D01*
X77992Y-61510D01*
X78592Y-61510D01*
X78669Y-61478D01*
X78728Y-61419D01*
X78760Y-61342D01*
X78760Y-61258D01*
X78760Y-60658D01*
X78728Y-60581D01*
X78669Y-60522D01*
X78592Y-60490D01*
X78508Y-60490D01*
X78397Y-60490D01*
X78538Y-60432D01*
X78681Y-60288D01*
X78759Y-60101D01*
X78759Y-59899D01*
X78732Y-59835D01*
X79597Y-58969D01*
X79606Y-58978D01*
X79658Y-59000D01*
X79606Y-59022D01*
X79547Y-59081D01*
X79515Y-59158D01*
X79515Y-59242D01*
X79515Y-59592D01*
X79547Y-59669D01*
X79606Y-59728D01*
X79683Y-59760D01*
X79686Y-59760D01*
X79638Y-59808D01*
X79584Y-59889D01*
X79583Y-59890D01*
X79521Y-59917D01*
X79462Y-59976D01*
X79430Y-60053D01*
X79430Y-60137D01*
X79430Y-60727D01*
X79462Y-60804D01*
X79521Y-60863D01*
X79598Y-60895D01*
X79682Y-60895D01*
X80032Y-60895D01*
X80100Y-60866D01*
X80168Y-60895D01*
X80252Y-60895D01*
X80602Y-60895D01*
X80679Y-60863D01*
X80738Y-60804D01*
X80770Y-60727D01*
X80770Y-60643D01*
X80770Y-60053D01*
X80749Y-60003D01*
X80768Y-59985D01*
X80826Y-59985D01*
X80968Y-59927D01*
X81076Y-59818D01*
X81135Y-59677D01*
X81135Y-60225D01*
X81115Y-60273D01*
X81115Y-60426D01*
X81173Y-60568D01*
X81250Y-60644D01*
X81250Y-61196D01*
X81085Y-61361D01*
X80770Y-61361D01*
X80770Y-61274D01*
X80738Y-61197D01*
X80679Y-61138D01*
X80602Y-61106D01*
X80518Y-61106D01*
X80168Y-61106D01*
X80101Y-61133D01*
X80032Y-61105D01*
X79948Y-61105D01*
X79598Y-61105D01*
X79521Y-61137D01*
X79462Y-61196D01*
X79430Y-61273D01*
X79430Y-61357D01*
X79430Y-61947D01*
X79462Y-62024D01*
X79521Y-62083D01*
X79598Y-62115D01*
X79682Y-62115D01*
X79711Y-62115D01*
X79811Y-62215D01*
X79500Y-62215D01*
X79391Y-62237D01*
X79298Y-62298D01*
X79237Y-62391D01*
X79215Y-62500D01*
X79215Y-63250D01*
X79237Y-63359D01*
X79298Y-63452D01*
X79391Y-63513D01*
X79500Y-63535D01*
X87500Y-63535D01*
X87609Y-63513D01*
X87702Y-63452D01*
X87763Y-63359D01*
X87785Y-63250D01*
X87785Y-62500D01*
X87763Y-62391D01*
X87702Y-62298D01*
X87628Y-62250D01*
X87705Y-62250D01*
X87782Y-62326D01*
X87923Y-62385D01*
X88076Y-62385D01*
X88218Y-62327D01*
X88326Y-62218D01*
X88385Y-62077D01*
X88385Y-61924D01*
X88327Y-61782D01*
X88218Y-61674D01*
X88077Y-61615D01*
X87924Y-61615D01*
X87782Y-61673D01*
X87705Y-61750D01*
X87299Y-61750D01*
X87250Y-61740D01*
X87100Y-61740D01*
X86025Y-61740D01*
X86025Y-61274D01*
X85963Y-61212D01*
X85637Y-61212D01*
X85637Y-61488D01*
X85699Y-61550D01*
X85726Y-61549D01*
X85825Y-61549D01*
X85916Y-61511D01*
X85986Y-61441D01*
X86024Y-61349D01*
X86025Y-61274D01*
X86025Y-61740D01*
X85363Y-61740D01*
X85363Y-61488D01*
X85363Y-61212D01*
X85037Y-61212D01*
X84975Y-61274D01*
X84976Y-61349D01*
X85014Y-61441D01*
X85084Y-61511D01*
X85175Y-61549D01*
X85274Y-61549D01*
X85301Y-61550D01*
X85363Y-61488D01*
X85363Y-61740D01*
X85029Y-61740D01*
X85035Y-61727D01*
X85035Y-61574D01*
X84977Y-61432D01*
X84889Y-61345D01*
X84889Y-61344D01*
X84881Y-61304D01*
X84827Y-61223D01*
X84824Y-61221D01*
X84552Y-60948D01*
X84482Y-60901D01*
X84453Y-60831D01*
X84394Y-60772D01*
X84341Y-60750D01*
X84394Y-60728D01*
X84453Y-60669D01*
X84467Y-60635D01*
X84490Y-60635D01*
X84532Y-60676D01*
X84673Y-60735D01*
X84826Y-60735D01*
X84968Y-60677D01*
X85025Y-60618D01*
X85047Y-60669D01*
X85106Y-60728D01*
X85084Y-60739D01*
X85014Y-60809D01*
X84976Y-60901D01*
X84975Y-60976D01*
X85037Y-61038D01*
X85363Y-61038D01*
X85363Y-60950D01*
X85637Y-60950D01*
X85637Y-61038D01*
X85963Y-61038D01*
X86025Y-60976D01*
X86024Y-60901D01*
X85986Y-60809D01*
X85916Y-60739D01*
X85891Y-60728D01*
X85894Y-60728D01*
X85953Y-60669D01*
X85985Y-60592D01*
X85985Y-60508D01*
X85985Y-60374D01*
X86023Y-60468D01*
X86132Y-60576D01*
X86273Y-60635D01*
X86426Y-60635D01*
X86519Y-60596D01*
X86573Y-60677D01*
X86821Y-60924D01*
X86823Y-60927D01*
X86904Y-60981D01*
X87000Y-61000D01*
X88705Y-61000D01*
X88782Y-61076D01*
X88923Y-61135D01*
X89076Y-61135D01*
X89218Y-61077D01*
X89326Y-60968D01*
X89385Y-60827D01*
X89385Y-60674D01*
X89327Y-60532D01*
X89218Y-60424D01*
X89077Y-60365D01*
X88924Y-60365D01*
X88782Y-60423D01*
X88705Y-60500D01*
X87103Y-60500D01*
X87000Y-60396D01*
X87000Y-59750D01*
X87000Y-59592D01*
X87023Y-59627D01*
X87571Y-60174D01*
X87573Y-60177D01*
X87654Y-60231D01*
X87749Y-60250D01*
X87749Y-60249D01*
X87750Y-60250D01*
X88455Y-60250D01*
X88532Y-60326D01*
X88673Y-60385D01*
X88826Y-60385D01*
X88968Y-60327D01*
X89076Y-60218D01*
X89135Y-60077D01*
X89135Y-59924D01*
X89077Y-59782D01*
X88968Y-59674D01*
X88827Y-59615D01*
X88674Y-59615D01*
X88532Y-59673D01*
X88455Y-59750D01*
X87853Y-59750D01*
X87450Y-59346D01*
X87450Y-58700D01*
X87431Y-58604D01*
X87377Y-58523D01*
X87374Y-58521D01*
X87341Y-58488D01*
X87400Y-58500D01*
X87628Y-58500D01*
X87597Y-58531D01*
X87565Y-58608D01*
X87565Y-58692D01*
X87565Y-58892D01*
X87597Y-58969D01*
X87656Y-59028D01*
X87733Y-59060D01*
X87745Y-59060D01*
X87674Y-59132D01*
X87615Y-59273D01*
X87615Y-59426D01*
X87673Y-59568D01*
X87782Y-59676D01*
X87923Y-59735D01*
X88076Y-59735D01*
X88218Y-59677D01*
X88326Y-59568D01*
X88385Y-59427D01*
X88385Y-59274D01*
X88327Y-59132D01*
X88254Y-59060D01*
X88267Y-59060D01*
X88344Y-59028D01*
X88403Y-58969D01*
X88435Y-58892D01*
X88435Y-58808D01*
X88435Y-58608D01*
X88403Y-58531D01*
X88372Y-58500D01*
X88403Y-58469D01*
X88435Y-58392D01*
X88435Y-58308D01*
X88435Y-58108D01*
X88403Y-58031D01*
X88372Y-58000D01*
X88455Y-58000D01*
X88532Y-58076D01*
X88673Y-58135D01*
X88826Y-58135D01*
X88968Y-58077D01*
X89076Y-57968D01*
X89135Y-57827D01*
X89135Y-57674D01*
X89077Y-57532D01*
X88968Y-57424D01*
X88827Y-57365D01*
X88674Y-57365D01*
X88532Y-57423D01*
X88455Y-57500D01*
X88372Y-57500D01*
X88403Y-57469D01*
X88435Y-57392D01*
X88435Y-57308D01*
X88435Y-57108D01*
X88403Y-57031D01*
X88382Y-57010D01*
X88715Y-57010D01*
X88782Y-57076D01*
X88923Y-57135D01*
X89076Y-57135D01*
X89218Y-57077D01*
X89326Y-56968D01*
X89385Y-56827D01*
X89385Y-56674D01*
X89357Y-56607D01*
X89423Y-56635D01*
X89576Y-56635D01*
X89718Y-56577D01*
X89826Y-56468D01*
X89885Y-56327D01*
X89885Y-58491D01*
X89862Y-58491D01*
X89862Y-58428D01*
X89862Y-58154D01*
X89862Y-57828D01*
X89801Y-57767D01*
X89709Y-57767D01*
X89618Y-57805D01*
X89548Y-57875D01*
X89510Y-57967D01*
X89509Y-58092D01*
X89571Y-58154D01*
X89862Y-58154D01*
X89862Y-58428D01*
X89571Y-58428D01*
X89509Y-58490D01*
X89510Y-58615D01*
X89548Y-58707D01*
X89609Y-58768D01*
X89585Y-58792D01*
X89529Y-58927D01*
X89529Y-59073D01*
X89585Y-59208D01*
X89609Y-59232D01*
X89548Y-59293D01*
X89510Y-59385D01*
X89509Y-59510D01*
X89571Y-59572D01*
X89862Y-59572D01*
X89862Y-59509D01*
X90068Y-59509D01*
X90068Y-59572D01*
X90119Y-59572D01*
X90119Y-59846D01*
X90068Y-59846D01*
X90068Y-60172D01*
X90129Y-60233D01*
X90221Y-60233D01*
X90275Y-60210D01*
X90275Y-60930D01*
X90174Y-61032D01*
X90115Y-61173D01*
X90115Y-61326D01*
X90173Y-61468D01*
X90282Y-61576D01*
X90423Y-61635D01*
X90576Y-61635D01*
X90700Y-61584D01*
X90700Y-63700D01*
M02*
