G04 (created by PCBNEW-RS274X (2011-nov-30)-testing) date Sat 15 Sep 2012 10:52:54 AM EDT*
%MOIN*%
G04 Gerber Fmt 3.4, Leading zero omitted, Abs format*
%FSLAX34Y34*%
G01*
G70*
G90*
G04 APERTURE LIST*
%ADD10C,0.006*%
%ADD11C,0.015*%
%ADD12C,0.0315*%
%ADD13R,0.13X0.13*%
%ADD14R,0.2X0.2*%
%ADD15R,0.06X0.06*%
%ADD16C,0.06*%
%ADD17C,0.035*%
%ADD18C,0.008*%
%ADD19C,0.01*%
G04 APERTURE END LIST*
G54D10*
G54D11*
X79500Y-62500D02*
X87500Y-62500D01*
X87500Y-62500D02*
X87500Y-63250D01*
X87500Y-63250D02*
X79500Y-63250D01*
X79500Y-63250D02*
X79500Y-62500D01*
X79500Y-50500D02*
X79500Y-49750D01*
X87500Y-50500D02*
X79500Y-50500D01*
X87500Y-49750D02*
X87500Y-50500D01*
X79500Y-49750D02*
X87500Y-49750D01*
X91000Y-64000D02*
X91000Y-49000D01*
X76000Y-64000D02*
X91000Y-64000D01*
X76000Y-49000D02*
X76000Y-64000D01*
X76000Y-64000D02*
X76000Y-49000D01*
X76000Y-49000D02*
X91000Y-49000D01*
G54D12*
X90604Y-59000D03*
X89896Y-59000D03*
X90604Y-54000D03*
X89896Y-54000D03*
G54D13*
X87500Y-56500D03*
X79500Y-56500D03*
G54D14*
X83500Y-56500D03*
G54D15*
X78250Y-61000D03*
G54D16*
X77250Y-61000D03*
X78250Y-60000D03*
X77250Y-60000D03*
X78250Y-59000D03*
X77250Y-59000D03*
G54D17*
X85500Y-59750D03*
X87750Y-54250D03*
X83250Y-58250D03*
X79750Y-54500D03*
X89500Y-56250D03*
X89250Y-51000D03*
X89000Y-56750D03*
X89000Y-51750D03*
X86200Y-52700D03*
X87000Y-54250D03*
X88500Y-52250D03*
X88750Y-57750D03*
X86950Y-57800D03*
X80500Y-58650D03*
X88000Y-59350D03*
X88000Y-62000D03*
X82000Y-61600D03*
X86350Y-60250D03*
X84650Y-61650D03*
X76750Y-62000D03*
X81500Y-60350D03*
X84750Y-60350D03*
X88750Y-60000D03*
X90500Y-52250D03*
X90500Y-56000D03*
X89000Y-60750D03*
X90500Y-61250D03*
X90500Y-57250D03*
X80750Y-59600D03*
X83900Y-59500D03*
X85850Y-54350D03*
G54D18*
X85500Y-59750D02*
X84750Y-59000D01*
X84750Y-59000D02*
X80750Y-59000D01*
G54D19*
X78250Y-59000D02*
X80750Y-59000D01*
X87750Y-54250D02*
X86750Y-55250D01*
X86750Y-55250D02*
X84750Y-55250D01*
X84750Y-55250D02*
X83500Y-56500D01*
X83500Y-56500D02*
X83500Y-58000D01*
X83500Y-58000D02*
X83250Y-58250D01*
X83500Y-56500D02*
X81750Y-56500D01*
X81750Y-56500D02*
X79750Y-54500D01*
X89500Y-56250D02*
X89500Y-54500D01*
X89250Y-51000D02*
X89500Y-51250D01*
X89500Y-51250D02*
X89500Y-54500D01*
X89000Y-51750D02*
X89000Y-56750D01*
G54D18*
X86250Y-52750D02*
X86250Y-53400D01*
X86200Y-52700D02*
X86250Y-52750D01*
X86250Y-53400D02*
X86250Y-53500D01*
X86250Y-53500D02*
X87000Y-54250D01*
X88500Y-57500D02*
X88500Y-52250D01*
X88750Y-57750D02*
X88500Y-57500D01*
X86950Y-58600D02*
X86950Y-57800D01*
X86250Y-59300D02*
X86950Y-58600D01*
X85800Y-59300D02*
X86250Y-59300D01*
X85250Y-58750D02*
X85800Y-59300D01*
X80600Y-58750D02*
X85250Y-58750D01*
X80500Y-58650D02*
X80600Y-58750D01*
X88000Y-62000D02*
X88000Y-59350D01*
G54D19*
X78250Y-61000D02*
X80750Y-61000D01*
X81350Y-61600D02*
X82000Y-61600D01*
X80750Y-61000D02*
X81350Y-61600D01*
G54D18*
X86150Y-61650D02*
X84650Y-61650D01*
X86350Y-61450D02*
X86150Y-61650D01*
X86350Y-60250D02*
X86350Y-61450D01*
X83350Y-62000D02*
X84300Y-62000D01*
G54D19*
X77500Y-62000D02*
X83350Y-62000D01*
X76750Y-62000D02*
X77500Y-62000D01*
G54D18*
X84300Y-62000D02*
X84650Y-61650D01*
X81500Y-60350D02*
X84750Y-60350D01*
X88750Y-60000D02*
X88800Y-60000D01*
G54D19*
X90500Y-56000D02*
X90500Y-55250D01*
X90500Y-52750D02*
X90500Y-52250D01*
X90250Y-53000D02*
X90500Y-52750D01*
X90250Y-55000D02*
X90250Y-53000D01*
X90500Y-55250D02*
X90250Y-55000D01*
X89250Y-57250D02*
X90500Y-56000D01*
X89250Y-59750D02*
X89250Y-57250D01*
X89000Y-60000D02*
X89250Y-59750D01*
X88800Y-60000D02*
X89000Y-60000D01*
G54D18*
X89000Y-60750D02*
X89150Y-60750D01*
X89650Y-61250D02*
X90500Y-61250D01*
X89150Y-60750D02*
X89650Y-61250D01*
X89000Y-60750D02*
X90250Y-59500D01*
G54D19*
X90250Y-57500D02*
X90250Y-59500D01*
X90500Y-57250D02*
X90250Y-57500D01*
G54D10*
G36*
X90700Y-63700D02*
X88385Y-63700D01*
X88385Y-62077D01*
X88385Y-61924D01*
X88327Y-61782D01*
X88250Y-61705D01*
X88250Y-59644D01*
X88326Y-59568D01*
X88385Y-59427D01*
X88385Y-59274D01*
X88327Y-59132D01*
X88218Y-59024D01*
X88077Y-58965D01*
X87924Y-58965D01*
X87782Y-59023D01*
X87674Y-59132D01*
X87615Y-59273D01*
X87615Y-59426D01*
X87673Y-59568D01*
X87750Y-59644D01*
X87750Y-61705D01*
X87674Y-61782D01*
X87615Y-61923D01*
X87615Y-62076D01*
X87673Y-62218D01*
X87782Y-62326D01*
X87923Y-62385D01*
X88076Y-62385D01*
X88218Y-62327D01*
X88326Y-62218D01*
X88385Y-62077D01*
X88385Y-63700D01*
X76300Y-63700D01*
X76300Y-49300D01*
X90700Y-49300D01*
X90700Y-51916D01*
X90577Y-51865D01*
X90424Y-51865D01*
X90282Y-51923D01*
X90174Y-52032D01*
X90115Y-52173D01*
X90115Y-52326D01*
X90173Y-52468D01*
X90240Y-52534D01*
X90240Y-52642D01*
X90066Y-52816D01*
X90010Y-52900D01*
X89990Y-53000D01*
X89990Y-53641D01*
X89969Y-53633D01*
X89823Y-53633D01*
X89760Y-53659D01*
X89760Y-51250D01*
X89740Y-51151D01*
X89739Y-51150D01*
X89684Y-51066D01*
X89681Y-51064D01*
X89635Y-51017D01*
X89635Y-50924D01*
X89577Y-50782D01*
X89468Y-50674D01*
X89327Y-50615D01*
X89174Y-50615D01*
X89032Y-50673D01*
X88924Y-50782D01*
X88865Y-50923D01*
X88865Y-51076D01*
X88923Y-51218D01*
X89032Y-51326D01*
X89173Y-51385D01*
X89240Y-51385D01*
X89240Y-51445D01*
X89218Y-51424D01*
X89077Y-51365D01*
X88924Y-51365D01*
X88782Y-51423D01*
X88674Y-51532D01*
X88615Y-51673D01*
X88615Y-51826D01*
X88642Y-51892D01*
X88577Y-51865D01*
X88424Y-51865D01*
X88282Y-51923D01*
X88174Y-52032D01*
X88115Y-52173D01*
X88115Y-52326D01*
X88173Y-52468D01*
X88250Y-52544D01*
X88250Y-55622D01*
X88199Y-55601D01*
X88135Y-55600D01*
X88135Y-54327D01*
X88135Y-54174D01*
X88077Y-54032D01*
X87968Y-53924D01*
X87827Y-53865D01*
X87785Y-53865D01*
X87785Y-50500D01*
X87785Y-49750D01*
X87763Y-49641D01*
X87702Y-49548D01*
X87609Y-49487D01*
X87500Y-49465D01*
X79500Y-49465D01*
X79391Y-49487D01*
X79298Y-49548D01*
X79237Y-49641D01*
X79215Y-49750D01*
X79215Y-50500D01*
X79237Y-50609D01*
X79298Y-50702D01*
X79391Y-50763D01*
X79500Y-50785D01*
X87500Y-50785D01*
X87609Y-50763D01*
X87702Y-50702D01*
X87763Y-50609D01*
X87785Y-50500D01*
X87785Y-53865D01*
X87674Y-53865D01*
X87532Y-53923D01*
X87424Y-54032D01*
X87374Y-54149D01*
X87327Y-54032D01*
X87218Y-53924D01*
X87077Y-53865D01*
X86968Y-53865D01*
X86500Y-53396D01*
X86500Y-52944D01*
X86526Y-52918D01*
X86585Y-52777D01*
X86585Y-52624D01*
X86527Y-52482D01*
X86418Y-52374D01*
X86277Y-52315D01*
X86124Y-52315D01*
X85982Y-52373D01*
X85874Y-52482D01*
X85815Y-52623D01*
X85815Y-52776D01*
X85873Y-52918D01*
X85982Y-53026D01*
X86000Y-53033D01*
X86000Y-53400D01*
X86000Y-53500D01*
X86019Y-53596D01*
X86073Y-53677D01*
X86615Y-54218D01*
X86615Y-54326D01*
X86673Y-54468D01*
X86782Y-54576D01*
X86923Y-54635D01*
X86997Y-54635D01*
X86642Y-54990D01*
X84750Y-54990D01*
X84749Y-54990D01*
X84729Y-54994D01*
X84651Y-55010D01*
X84566Y-55066D01*
X84564Y-55068D01*
X84342Y-55290D01*
X82458Y-55290D01*
X82381Y-55322D01*
X82322Y-55381D01*
X82290Y-55458D01*
X82290Y-55542D01*
X82290Y-56240D01*
X81858Y-56240D01*
X80135Y-54517D01*
X80135Y-54424D01*
X80077Y-54282D01*
X79968Y-54174D01*
X79827Y-54115D01*
X79674Y-54115D01*
X79532Y-54173D01*
X79424Y-54282D01*
X79365Y-54423D01*
X79365Y-54576D01*
X79423Y-54718D01*
X79532Y-54826D01*
X79673Y-54885D01*
X79767Y-54885D01*
X81566Y-56684D01*
X81650Y-56739D01*
X81651Y-56740D01*
X81750Y-56760D01*
X82290Y-56760D01*
X82290Y-57542D01*
X82322Y-57619D01*
X82381Y-57678D01*
X82458Y-57710D01*
X82542Y-57710D01*
X83240Y-57710D01*
X83240Y-57865D01*
X83174Y-57865D01*
X83032Y-57923D01*
X82924Y-58032D01*
X82865Y-58173D01*
X82865Y-58326D01*
X82923Y-58468D01*
X82955Y-58500D01*
X80854Y-58500D01*
X80827Y-58432D01*
X80718Y-58324D01*
X80577Y-58265D01*
X80424Y-58265D01*
X80400Y-58274D01*
X80400Y-56762D01*
X80400Y-56238D01*
X80399Y-55899D01*
X80399Y-55800D01*
X80361Y-55709D01*
X80291Y-55639D01*
X80199Y-55601D01*
X79762Y-55600D01*
X79700Y-55662D01*
X79700Y-56300D01*
X80338Y-56300D01*
X80400Y-56238D01*
X80400Y-56762D01*
X80338Y-56700D01*
X79700Y-56700D01*
X79700Y-57338D01*
X79762Y-57400D01*
X80199Y-57399D01*
X80291Y-57361D01*
X80361Y-57291D01*
X80399Y-57200D01*
X80399Y-57101D01*
X80400Y-56762D01*
X80400Y-58274D01*
X80282Y-58323D01*
X80174Y-58432D01*
X80115Y-58573D01*
X80115Y-58726D01*
X80120Y-58740D01*
X79300Y-58740D01*
X79300Y-57338D01*
X79300Y-56700D01*
X79300Y-56300D01*
X79300Y-55662D01*
X79238Y-55600D01*
X78801Y-55601D01*
X78709Y-55639D01*
X78639Y-55709D01*
X78601Y-55800D01*
X78601Y-55899D01*
X78600Y-56238D01*
X78662Y-56300D01*
X79300Y-56300D01*
X79300Y-56700D01*
X78662Y-56700D01*
X78600Y-56762D01*
X78601Y-57101D01*
X78601Y-57200D01*
X78639Y-57291D01*
X78709Y-57361D01*
X78801Y-57399D01*
X79238Y-57400D01*
X79300Y-57338D01*
X79300Y-58740D01*
X78693Y-58740D01*
X78682Y-58712D01*
X78538Y-58569D01*
X78351Y-58491D01*
X78149Y-58491D01*
X77962Y-58568D01*
X77819Y-58712D01*
X77750Y-58877D01*
X77682Y-58712D01*
X77538Y-58569D01*
X77351Y-58491D01*
X77149Y-58491D01*
X76962Y-58568D01*
X76819Y-58712D01*
X76741Y-58899D01*
X76741Y-59101D01*
X76818Y-59288D01*
X76962Y-59431D01*
X77127Y-59499D01*
X76962Y-59568D01*
X76819Y-59712D01*
X76741Y-59899D01*
X76741Y-60101D01*
X76818Y-60288D01*
X76962Y-60431D01*
X77064Y-60473D01*
X77054Y-60476D01*
X77021Y-60559D01*
X77250Y-60788D01*
X77479Y-60559D01*
X77446Y-60476D01*
X77435Y-60474D01*
X77538Y-60432D01*
X77681Y-60288D01*
X77749Y-60122D01*
X77818Y-60288D01*
X77962Y-60431D01*
X78103Y-60490D01*
X77908Y-60490D01*
X77831Y-60522D01*
X77772Y-60581D01*
X77740Y-60658D01*
X77740Y-60742D01*
X77740Y-60790D01*
X77691Y-60771D01*
X77462Y-61000D01*
X77691Y-61229D01*
X77740Y-61209D01*
X77740Y-61342D01*
X77772Y-61419D01*
X77831Y-61478D01*
X77908Y-61510D01*
X77992Y-61510D01*
X78592Y-61510D01*
X78669Y-61478D01*
X78728Y-61419D01*
X78760Y-61342D01*
X78760Y-61260D01*
X80642Y-61260D01*
X81122Y-61740D01*
X77500Y-61740D01*
X77479Y-61740D01*
X77479Y-61441D01*
X77250Y-61212D01*
X77038Y-61424D01*
X77038Y-61000D01*
X76809Y-60771D01*
X76726Y-60804D01*
X76691Y-61020D01*
X76726Y-61196D01*
X76809Y-61229D01*
X77038Y-61000D01*
X77038Y-61424D01*
X77021Y-61441D01*
X77054Y-61524D01*
X77270Y-61559D01*
X77446Y-61524D01*
X77479Y-61441D01*
X77479Y-61740D01*
X77034Y-61740D01*
X76968Y-61674D01*
X76827Y-61615D01*
X76674Y-61615D01*
X76532Y-61673D01*
X76424Y-61782D01*
X76365Y-61923D01*
X76365Y-62076D01*
X76423Y-62218D01*
X76532Y-62326D01*
X76673Y-62385D01*
X76826Y-62385D01*
X76968Y-62327D01*
X77034Y-62260D01*
X77500Y-62260D01*
X79355Y-62260D01*
X79298Y-62298D01*
X79237Y-62391D01*
X79215Y-62500D01*
X79215Y-63250D01*
X79237Y-63359D01*
X79298Y-63452D01*
X79391Y-63513D01*
X79500Y-63535D01*
X87500Y-63535D01*
X87609Y-63513D01*
X87702Y-63452D01*
X87763Y-63359D01*
X87785Y-63250D01*
X87785Y-62500D01*
X87763Y-62391D01*
X87702Y-62298D01*
X87609Y-62237D01*
X87500Y-62215D01*
X84420Y-62215D01*
X84477Y-62177D01*
X84618Y-62035D01*
X84726Y-62035D01*
X84868Y-61977D01*
X84944Y-61900D01*
X86150Y-61900D01*
X86245Y-61881D01*
X86246Y-61881D01*
X86327Y-61827D01*
X86524Y-61628D01*
X86526Y-61627D01*
X86527Y-61627D01*
X86581Y-61546D01*
X86600Y-61451D01*
X86599Y-61450D01*
X86600Y-61450D01*
X86600Y-60544D01*
X86676Y-60468D01*
X86735Y-60327D01*
X86735Y-60174D01*
X86677Y-60032D01*
X86568Y-59924D01*
X86427Y-59865D01*
X86274Y-59865D01*
X86132Y-59923D01*
X86024Y-60032D01*
X85965Y-60173D01*
X85965Y-60326D01*
X86023Y-60468D01*
X86100Y-60544D01*
X86100Y-61346D01*
X86046Y-61400D01*
X85135Y-61400D01*
X85135Y-60427D01*
X85135Y-60274D01*
X85077Y-60132D01*
X84968Y-60024D01*
X84827Y-59965D01*
X84674Y-59965D01*
X84532Y-60023D01*
X84455Y-60100D01*
X81794Y-60100D01*
X81718Y-60024D01*
X81577Y-59965D01*
X81424Y-59965D01*
X81282Y-60023D01*
X81174Y-60132D01*
X81115Y-60273D01*
X81115Y-60426D01*
X81173Y-60568D01*
X81282Y-60676D01*
X81423Y-60735D01*
X81576Y-60735D01*
X81718Y-60677D01*
X81794Y-60600D01*
X84455Y-60600D01*
X84532Y-60676D01*
X84673Y-60735D01*
X84826Y-60735D01*
X84968Y-60677D01*
X85076Y-60568D01*
X85135Y-60427D01*
X85135Y-61400D01*
X84944Y-61400D01*
X84868Y-61324D01*
X84727Y-61265D01*
X84574Y-61265D01*
X84432Y-61323D01*
X84324Y-61432D01*
X84265Y-61573D01*
X84265Y-61681D01*
X84196Y-61750D01*
X83399Y-61750D01*
X83350Y-61740D01*
X82358Y-61740D01*
X82385Y-61677D01*
X82385Y-61524D01*
X82327Y-61382D01*
X82218Y-61274D01*
X82077Y-61215D01*
X81924Y-61215D01*
X81782Y-61273D01*
X81715Y-61340D01*
X81457Y-61340D01*
X80934Y-60816D01*
X80850Y-60760D01*
X80750Y-60740D01*
X78760Y-60740D01*
X78760Y-60658D01*
X78728Y-60581D01*
X78669Y-60522D01*
X78592Y-60490D01*
X78508Y-60490D01*
X78397Y-60490D01*
X78538Y-60432D01*
X78681Y-60288D01*
X78759Y-60101D01*
X78759Y-59899D01*
X78682Y-59712D01*
X78538Y-59569D01*
X78372Y-59500D01*
X78538Y-59432D01*
X78681Y-59288D01*
X78692Y-59260D01*
X80750Y-59260D01*
X80799Y-59250D01*
X84646Y-59250D01*
X85115Y-59718D01*
X85115Y-59826D01*
X85173Y-59968D01*
X85282Y-60076D01*
X85423Y-60135D01*
X85576Y-60135D01*
X85718Y-60077D01*
X85826Y-59968D01*
X85885Y-59827D01*
X85885Y-59674D01*
X85834Y-59550D01*
X86250Y-59550D01*
X86345Y-59531D01*
X86346Y-59531D01*
X86427Y-59477D01*
X87124Y-58778D01*
X87126Y-58777D01*
X87127Y-58777D01*
X87181Y-58696D01*
X87200Y-58601D01*
X87199Y-58600D01*
X87200Y-58600D01*
X87200Y-58094D01*
X87276Y-58018D01*
X87335Y-57877D01*
X87335Y-57724D01*
X87300Y-57638D01*
X87300Y-57338D01*
X87300Y-56700D01*
X87300Y-56300D01*
X87300Y-55662D01*
X87238Y-55600D01*
X86801Y-55601D01*
X86709Y-55639D01*
X86639Y-55709D01*
X86601Y-55800D01*
X86601Y-55899D01*
X86600Y-56238D01*
X86662Y-56300D01*
X87300Y-56300D01*
X87300Y-56700D01*
X86662Y-56700D01*
X86600Y-56762D01*
X86601Y-57101D01*
X86601Y-57200D01*
X86639Y-57291D01*
X86709Y-57361D01*
X86801Y-57399D01*
X87238Y-57400D01*
X87300Y-57338D01*
X87300Y-57638D01*
X87277Y-57582D01*
X87168Y-57474D01*
X87027Y-57415D01*
X86874Y-57415D01*
X86732Y-57473D01*
X86624Y-57582D01*
X86565Y-57723D01*
X86565Y-57876D01*
X86623Y-58018D01*
X86700Y-58094D01*
X86700Y-58496D01*
X86146Y-59050D01*
X85903Y-59050D01*
X85427Y-58573D01*
X85346Y-58519D01*
X85250Y-58500D01*
X83544Y-58500D01*
X83576Y-58468D01*
X83635Y-58327D01*
X83635Y-58232D01*
X83681Y-58185D01*
X83683Y-58184D01*
X83684Y-58184D01*
X83739Y-58100D01*
X83740Y-58099D01*
X83760Y-58000D01*
X83760Y-57710D01*
X84542Y-57710D01*
X84619Y-57678D01*
X84678Y-57619D01*
X84710Y-57542D01*
X84710Y-57458D01*
X84710Y-55657D01*
X84857Y-55510D01*
X86750Y-55510D01*
X86849Y-55490D01*
X86850Y-55490D01*
X86934Y-55434D01*
X87733Y-54635D01*
X87826Y-54635D01*
X87968Y-54577D01*
X88076Y-54468D01*
X88135Y-54327D01*
X88135Y-55600D01*
X87762Y-55600D01*
X87700Y-55662D01*
X87700Y-56250D01*
X87700Y-56300D01*
X87700Y-56700D01*
X87700Y-56750D01*
X87700Y-57338D01*
X87762Y-57400D01*
X88199Y-57399D01*
X88250Y-57377D01*
X88250Y-57500D01*
X88269Y-57596D01*
X88323Y-57677D01*
X88365Y-57718D01*
X88365Y-57826D01*
X88423Y-57968D01*
X88532Y-58076D01*
X88673Y-58135D01*
X88826Y-58135D01*
X88968Y-58077D01*
X88990Y-58054D01*
X88990Y-59642D01*
X88961Y-59671D01*
X88827Y-59615D01*
X88674Y-59615D01*
X88532Y-59673D01*
X88424Y-59782D01*
X88365Y-59923D01*
X88365Y-60076D01*
X88423Y-60218D01*
X88532Y-60326D01*
X88673Y-60385D01*
X88826Y-60385D01*
X88968Y-60327D01*
X89042Y-60251D01*
X89099Y-60240D01*
X89100Y-60240D01*
X89184Y-60184D01*
X89431Y-59935D01*
X89433Y-59934D01*
X89434Y-59934D01*
X89489Y-59850D01*
X89490Y-59849D01*
X89510Y-59750D01*
X89510Y-57357D01*
X90482Y-56385D01*
X90576Y-56385D01*
X90700Y-56334D01*
X90700Y-56916D01*
X90577Y-56865D01*
X90424Y-56865D01*
X90282Y-56923D01*
X90174Y-57032D01*
X90115Y-57173D01*
X90115Y-57267D01*
X90066Y-57316D01*
X90010Y-57400D01*
X89990Y-57500D01*
X89990Y-58641D01*
X89969Y-58633D01*
X89823Y-58633D01*
X89688Y-58689D01*
X89585Y-58792D01*
X89529Y-58927D01*
X89529Y-59073D01*
X89585Y-59208D01*
X89688Y-59311D01*
X89823Y-59367D01*
X89969Y-59367D01*
X89990Y-59358D01*
X89990Y-59406D01*
X89031Y-60365D01*
X88924Y-60365D01*
X88782Y-60423D01*
X88674Y-60532D01*
X88615Y-60673D01*
X88615Y-60826D01*
X88673Y-60968D01*
X88782Y-61076D01*
X88923Y-61135D01*
X89076Y-61135D01*
X89150Y-61104D01*
X89473Y-61427D01*
X89554Y-61481D01*
X89650Y-61500D01*
X90205Y-61500D01*
X90282Y-61576D01*
X90423Y-61635D01*
X90576Y-61635D01*
X90700Y-61584D01*
X90700Y-63700D01*
X90700Y-63700D01*
G37*
G54D19*
X90700Y-63700D02*
X88385Y-63700D01*
X88385Y-62077D01*
X88385Y-61924D01*
X88327Y-61782D01*
X88250Y-61705D01*
X88250Y-59644D01*
X88326Y-59568D01*
X88385Y-59427D01*
X88385Y-59274D01*
X88327Y-59132D01*
X88218Y-59024D01*
X88077Y-58965D01*
X87924Y-58965D01*
X87782Y-59023D01*
X87674Y-59132D01*
X87615Y-59273D01*
X87615Y-59426D01*
X87673Y-59568D01*
X87750Y-59644D01*
X87750Y-61705D01*
X87674Y-61782D01*
X87615Y-61923D01*
X87615Y-62076D01*
X87673Y-62218D01*
X87782Y-62326D01*
X87923Y-62385D01*
X88076Y-62385D01*
X88218Y-62327D01*
X88326Y-62218D01*
X88385Y-62077D01*
X88385Y-63700D01*
X76300Y-63700D01*
X76300Y-49300D01*
X90700Y-49300D01*
X90700Y-51916D01*
X90577Y-51865D01*
X90424Y-51865D01*
X90282Y-51923D01*
X90174Y-52032D01*
X90115Y-52173D01*
X90115Y-52326D01*
X90173Y-52468D01*
X90240Y-52534D01*
X90240Y-52642D01*
X90066Y-52816D01*
X90010Y-52900D01*
X89990Y-53000D01*
X89990Y-53641D01*
X89969Y-53633D01*
X89823Y-53633D01*
X89760Y-53659D01*
X89760Y-51250D01*
X89740Y-51151D01*
X89739Y-51150D01*
X89684Y-51066D01*
X89681Y-51064D01*
X89635Y-51017D01*
X89635Y-50924D01*
X89577Y-50782D01*
X89468Y-50674D01*
X89327Y-50615D01*
X89174Y-50615D01*
X89032Y-50673D01*
X88924Y-50782D01*
X88865Y-50923D01*
X88865Y-51076D01*
X88923Y-51218D01*
X89032Y-51326D01*
X89173Y-51385D01*
X89240Y-51385D01*
X89240Y-51445D01*
X89218Y-51424D01*
X89077Y-51365D01*
X88924Y-51365D01*
X88782Y-51423D01*
X88674Y-51532D01*
X88615Y-51673D01*
X88615Y-51826D01*
X88642Y-51892D01*
X88577Y-51865D01*
X88424Y-51865D01*
X88282Y-51923D01*
X88174Y-52032D01*
X88115Y-52173D01*
X88115Y-52326D01*
X88173Y-52468D01*
X88250Y-52544D01*
X88250Y-55622D01*
X88199Y-55601D01*
X88135Y-55600D01*
X88135Y-54327D01*
X88135Y-54174D01*
X88077Y-54032D01*
X87968Y-53924D01*
X87827Y-53865D01*
X87785Y-53865D01*
X87785Y-50500D01*
X87785Y-49750D01*
X87763Y-49641D01*
X87702Y-49548D01*
X87609Y-49487D01*
X87500Y-49465D01*
X79500Y-49465D01*
X79391Y-49487D01*
X79298Y-49548D01*
X79237Y-49641D01*
X79215Y-49750D01*
X79215Y-50500D01*
X79237Y-50609D01*
X79298Y-50702D01*
X79391Y-50763D01*
X79500Y-50785D01*
X87500Y-50785D01*
X87609Y-50763D01*
X87702Y-50702D01*
X87763Y-50609D01*
X87785Y-50500D01*
X87785Y-53865D01*
X87674Y-53865D01*
X87532Y-53923D01*
X87424Y-54032D01*
X87374Y-54149D01*
X87327Y-54032D01*
X87218Y-53924D01*
X87077Y-53865D01*
X86968Y-53865D01*
X86500Y-53396D01*
X86500Y-52944D01*
X86526Y-52918D01*
X86585Y-52777D01*
X86585Y-52624D01*
X86527Y-52482D01*
X86418Y-52374D01*
X86277Y-52315D01*
X86124Y-52315D01*
X85982Y-52373D01*
X85874Y-52482D01*
X85815Y-52623D01*
X85815Y-52776D01*
X85873Y-52918D01*
X85982Y-53026D01*
X86000Y-53033D01*
X86000Y-53400D01*
X86000Y-53500D01*
X86019Y-53596D01*
X86073Y-53677D01*
X86615Y-54218D01*
X86615Y-54326D01*
X86673Y-54468D01*
X86782Y-54576D01*
X86923Y-54635D01*
X86997Y-54635D01*
X86642Y-54990D01*
X84750Y-54990D01*
X84749Y-54990D01*
X84729Y-54994D01*
X84651Y-55010D01*
X84566Y-55066D01*
X84564Y-55068D01*
X84342Y-55290D01*
X82458Y-55290D01*
X82381Y-55322D01*
X82322Y-55381D01*
X82290Y-55458D01*
X82290Y-55542D01*
X82290Y-56240D01*
X81858Y-56240D01*
X80135Y-54517D01*
X80135Y-54424D01*
X80077Y-54282D01*
X79968Y-54174D01*
X79827Y-54115D01*
X79674Y-54115D01*
X79532Y-54173D01*
X79424Y-54282D01*
X79365Y-54423D01*
X79365Y-54576D01*
X79423Y-54718D01*
X79532Y-54826D01*
X79673Y-54885D01*
X79767Y-54885D01*
X81566Y-56684D01*
X81650Y-56739D01*
X81651Y-56740D01*
X81750Y-56760D01*
X82290Y-56760D01*
X82290Y-57542D01*
X82322Y-57619D01*
X82381Y-57678D01*
X82458Y-57710D01*
X82542Y-57710D01*
X83240Y-57710D01*
X83240Y-57865D01*
X83174Y-57865D01*
X83032Y-57923D01*
X82924Y-58032D01*
X82865Y-58173D01*
X82865Y-58326D01*
X82923Y-58468D01*
X82955Y-58500D01*
X80854Y-58500D01*
X80827Y-58432D01*
X80718Y-58324D01*
X80577Y-58265D01*
X80424Y-58265D01*
X80400Y-58274D01*
X80400Y-56762D01*
X80400Y-56238D01*
X80399Y-55899D01*
X80399Y-55800D01*
X80361Y-55709D01*
X80291Y-55639D01*
X80199Y-55601D01*
X79762Y-55600D01*
X79700Y-55662D01*
X79700Y-56300D01*
X80338Y-56300D01*
X80400Y-56238D01*
X80400Y-56762D01*
X80338Y-56700D01*
X79700Y-56700D01*
X79700Y-57338D01*
X79762Y-57400D01*
X80199Y-57399D01*
X80291Y-57361D01*
X80361Y-57291D01*
X80399Y-57200D01*
X80399Y-57101D01*
X80400Y-56762D01*
X80400Y-58274D01*
X80282Y-58323D01*
X80174Y-58432D01*
X80115Y-58573D01*
X80115Y-58726D01*
X80120Y-58740D01*
X79300Y-58740D01*
X79300Y-57338D01*
X79300Y-56700D01*
X79300Y-56300D01*
X79300Y-55662D01*
X79238Y-55600D01*
X78801Y-55601D01*
X78709Y-55639D01*
X78639Y-55709D01*
X78601Y-55800D01*
X78601Y-55899D01*
X78600Y-56238D01*
X78662Y-56300D01*
X79300Y-56300D01*
X79300Y-56700D01*
X78662Y-56700D01*
X78600Y-56762D01*
X78601Y-57101D01*
X78601Y-57200D01*
X78639Y-57291D01*
X78709Y-57361D01*
X78801Y-57399D01*
X79238Y-57400D01*
X79300Y-57338D01*
X79300Y-58740D01*
X78693Y-58740D01*
X78682Y-58712D01*
X78538Y-58569D01*
X78351Y-58491D01*
X78149Y-58491D01*
X77962Y-58568D01*
X77819Y-58712D01*
X77750Y-58877D01*
X77682Y-58712D01*
X77538Y-58569D01*
X77351Y-58491D01*
X77149Y-58491D01*
X76962Y-58568D01*
X76819Y-58712D01*
X76741Y-58899D01*
X76741Y-59101D01*
X76818Y-59288D01*
X76962Y-59431D01*
X77127Y-59499D01*
X76962Y-59568D01*
X76819Y-59712D01*
X76741Y-59899D01*
X76741Y-60101D01*
X76818Y-60288D01*
X76962Y-60431D01*
X77064Y-60473D01*
X77054Y-60476D01*
X77021Y-60559D01*
X77250Y-60788D01*
X77479Y-60559D01*
X77446Y-60476D01*
X77435Y-60474D01*
X77538Y-60432D01*
X77681Y-60288D01*
X77749Y-60122D01*
X77818Y-60288D01*
X77962Y-60431D01*
X78103Y-60490D01*
X77908Y-60490D01*
X77831Y-60522D01*
X77772Y-60581D01*
X77740Y-60658D01*
X77740Y-60742D01*
X77740Y-60790D01*
X77691Y-60771D01*
X77462Y-61000D01*
X77691Y-61229D01*
X77740Y-61209D01*
X77740Y-61342D01*
X77772Y-61419D01*
X77831Y-61478D01*
X77908Y-61510D01*
X77992Y-61510D01*
X78592Y-61510D01*
X78669Y-61478D01*
X78728Y-61419D01*
X78760Y-61342D01*
X78760Y-61260D01*
X80642Y-61260D01*
X81122Y-61740D01*
X77500Y-61740D01*
X77479Y-61740D01*
X77479Y-61441D01*
X77250Y-61212D01*
X77038Y-61424D01*
X77038Y-61000D01*
X76809Y-60771D01*
X76726Y-60804D01*
X76691Y-61020D01*
X76726Y-61196D01*
X76809Y-61229D01*
X77038Y-61000D01*
X77038Y-61424D01*
X77021Y-61441D01*
X77054Y-61524D01*
X77270Y-61559D01*
X77446Y-61524D01*
X77479Y-61441D01*
X77479Y-61740D01*
X77034Y-61740D01*
X76968Y-61674D01*
X76827Y-61615D01*
X76674Y-61615D01*
X76532Y-61673D01*
X76424Y-61782D01*
X76365Y-61923D01*
X76365Y-62076D01*
X76423Y-62218D01*
X76532Y-62326D01*
X76673Y-62385D01*
X76826Y-62385D01*
X76968Y-62327D01*
X77034Y-62260D01*
X77500Y-62260D01*
X79355Y-62260D01*
X79298Y-62298D01*
X79237Y-62391D01*
X79215Y-62500D01*
X79215Y-63250D01*
X79237Y-63359D01*
X79298Y-63452D01*
X79391Y-63513D01*
X79500Y-63535D01*
X87500Y-63535D01*
X87609Y-63513D01*
X87702Y-63452D01*
X87763Y-63359D01*
X87785Y-63250D01*
X87785Y-62500D01*
X87763Y-62391D01*
X87702Y-62298D01*
X87609Y-62237D01*
X87500Y-62215D01*
X84420Y-62215D01*
X84477Y-62177D01*
X84618Y-62035D01*
X84726Y-62035D01*
X84868Y-61977D01*
X84944Y-61900D01*
X86150Y-61900D01*
X86245Y-61881D01*
X86246Y-61881D01*
X86327Y-61827D01*
X86524Y-61628D01*
X86526Y-61627D01*
X86527Y-61627D01*
X86581Y-61546D01*
X86600Y-61451D01*
X86599Y-61450D01*
X86600Y-61450D01*
X86600Y-60544D01*
X86676Y-60468D01*
X86735Y-60327D01*
X86735Y-60174D01*
X86677Y-60032D01*
X86568Y-59924D01*
X86427Y-59865D01*
X86274Y-59865D01*
X86132Y-59923D01*
X86024Y-60032D01*
X85965Y-60173D01*
X85965Y-60326D01*
X86023Y-60468D01*
X86100Y-60544D01*
X86100Y-61346D01*
X86046Y-61400D01*
X85135Y-61400D01*
X85135Y-60427D01*
X85135Y-60274D01*
X85077Y-60132D01*
X84968Y-60024D01*
X84827Y-59965D01*
X84674Y-59965D01*
X84532Y-60023D01*
X84455Y-60100D01*
X81794Y-60100D01*
X81718Y-60024D01*
X81577Y-59965D01*
X81424Y-59965D01*
X81282Y-60023D01*
X81174Y-60132D01*
X81115Y-60273D01*
X81115Y-60426D01*
X81173Y-60568D01*
X81282Y-60676D01*
X81423Y-60735D01*
X81576Y-60735D01*
X81718Y-60677D01*
X81794Y-60600D01*
X84455Y-60600D01*
X84532Y-60676D01*
X84673Y-60735D01*
X84826Y-60735D01*
X84968Y-60677D01*
X85076Y-60568D01*
X85135Y-60427D01*
X85135Y-61400D01*
X84944Y-61400D01*
X84868Y-61324D01*
X84727Y-61265D01*
X84574Y-61265D01*
X84432Y-61323D01*
X84324Y-61432D01*
X84265Y-61573D01*
X84265Y-61681D01*
X84196Y-61750D01*
X83399Y-61750D01*
X83350Y-61740D01*
X82358Y-61740D01*
X82385Y-61677D01*
X82385Y-61524D01*
X82327Y-61382D01*
X82218Y-61274D01*
X82077Y-61215D01*
X81924Y-61215D01*
X81782Y-61273D01*
X81715Y-61340D01*
X81457Y-61340D01*
X80934Y-60816D01*
X80850Y-60760D01*
X80750Y-60740D01*
X78760Y-60740D01*
X78760Y-60658D01*
X78728Y-60581D01*
X78669Y-60522D01*
X78592Y-60490D01*
X78508Y-60490D01*
X78397Y-60490D01*
X78538Y-60432D01*
X78681Y-60288D01*
X78759Y-60101D01*
X78759Y-59899D01*
X78682Y-59712D01*
X78538Y-59569D01*
X78372Y-59500D01*
X78538Y-59432D01*
X78681Y-59288D01*
X78692Y-59260D01*
X80750Y-59260D01*
X80799Y-59250D01*
X84646Y-59250D01*
X85115Y-59718D01*
X85115Y-59826D01*
X85173Y-59968D01*
X85282Y-60076D01*
X85423Y-60135D01*
X85576Y-60135D01*
X85718Y-60077D01*
X85826Y-59968D01*
X85885Y-59827D01*
X85885Y-59674D01*
X85834Y-59550D01*
X86250Y-59550D01*
X86345Y-59531D01*
X86346Y-59531D01*
X86427Y-59477D01*
X87124Y-58778D01*
X87126Y-58777D01*
X87127Y-58777D01*
X87181Y-58696D01*
X87200Y-58601D01*
X87199Y-58600D01*
X87200Y-58600D01*
X87200Y-58094D01*
X87276Y-58018D01*
X87335Y-57877D01*
X87335Y-57724D01*
X87300Y-57638D01*
X87300Y-57338D01*
X87300Y-56700D01*
X87300Y-56300D01*
X87300Y-55662D01*
X87238Y-55600D01*
X86801Y-55601D01*
X86709Y-55639D01*
X86639Y-55709D01*
X86601Y-55800D01*
X86601Y-55899D01*
X86600Y-56238D01*
X86662Y-56300D01*
X87300Y-56300D01*
X87300Y-56700D01*
X86662Y-56700D01*
X86600Y-56762D01*
X86601Y-57101D01*
X86601Y-57200D01*
X86639Y-57291D01*
X86709Y-57361D01*
X86801Y-57399D01*
X87238Y-57400D01*
X87300Y-57338D01*
X87300Y-57638D01*
X87277Y-57582D01*
X87168Y-57474D01*
X87027Y-57415D01*
X86874Y-57415D01*
X86732Y-57473D01*
X86624Y-57582D01*
X86565Y-57723D01*
X86565Y-57876D01*
X86623Y-58018D01*
X86700Y-58094D01*
X86700Y-58496D01*
X86146Y-59050D01*
X85903Y-59050D01*
X85427Y-58573D01*
X85346Y-58519D01*
X85250Y-58500D01*
X83544Y-58500D01*
X83576Y-58468D01*
X83635Y-58327D01*
X83635Y-58232D01*
X83681Y-58185D01*
X83683Y-58184D01*
X83684Y-58184D01*
X83739Y-58100D01*
X83740Y-58099D01*
X83760Y-58000D01*
X83760Y-57710D01*
X84542Y-57710D01*
X84619Y-57678D01*
X84678Y-57619D01*
X84710Y-57542D01*
X84710Y-57458D01*
X84710Y-55657D01*
X84857Y-55510D01*
X86750Y-55510D01*
X86849Y-55490D01*
X86850Y-55490D01*
X86934Y-55434D01*
X87733Y-54635D01*
X87826Y-54635D01*
X87968Y-54577D01*
X88076Y-54468D01*
X88135Y-54327D01*
X88135Y-55600D01*
X87762Y-55600D01*
X87700Y-55662D01*
X87700Y-56250D01*
X87700Y-56300D01*
X87700Y-56700D01*
X87700Y-56750D01*
X87700Y-57338D01*
X87762Y-57400D01*
X88199Y-57399D01*
X88250Y-57377D01*
X88250Y-57500D01*
X88269Y-57596D01*
X88323Y-57677D01*
X88365Y-57718D01*
X88365Y-57826D01*
X88423Y-57968D01*
X88532Y-58076D01*
X88673Y-58135D01*
X88826Y-58135D01*
X88968Y-58077D01*
X88990Y-58054D01*
X88990Y-59642D01*
X88961Y-59671D01*
X88827Y-59615D01*
X88674Y-59615D01*
X88532Y-59673D01*
X88424Y-59782D01*
X88365Y-59923D01*
X88365Y-60076D01*
X88423Y-60218D01*
X88532Y-60326D01*
X88673Y-60385D01*
X88826Y-60385D01*
X88968Y-60327D01*
X89042Y-60251D01*
X89099Y-60240D01*
X89100Y-60240D01*
X89184Y-60184D01*
X89431Y-59935D01*
X89433Y-59934D01*
X89434Y-59934D01*
X89489Y-59850D01*
X89490Y-59849D01*
X89510Y-59750D01*
X89510Y-57357D01*
X90482Y-56385D01*
X90576Y-56385D01*
X90700Y-56334D01*
X90700Y-56916D01*
X90577Y-56865D01*
X90424Y-56865D01*
X90282Y-56923D01*
X90174Y-57032D01*
X90115Y-57173D01*
X90115Y-57267D01*
X90066Y-57316D01*
X90010Y-57400D01*
X89990Y-57500D01*
X89990Y-58641D01*
X89969Y-58633D01*
X89823Y-58633D01*
X89688Y-58689D01*
X89585Y-58792D01*
X89529Y-58927D01*
X89529Y-59073D01*
X89585Y-59208D01*
X89688Y-59311D01*
X89823Y-59367D01*
X89969Y-59367D01*
X89990Y-59358D01*
X89990Y-59406D01*
X89031Y-60365D01*
X88924Y-60365D01*
X88782Y-60423D01*
X88674Y-60532D01*
X88615Y-60673D01*
X88615Y-60826D01*
X88673Y-60968D01*
X88782Y-61076D01*
X88923Y-61135D01*
X89076Y-61135D01*
X89150Y-61104D01*
X89473Y-61427D01*
X89554Y-61481D01*
X89650Y-61500D01*
X90205Y-61500D01*
X90282Y-61576D01*
X90423Y-61635D01*
X90576Y-61635D01*
X90700Y-61584D01*
X90700Y-63700D01*
M02*
