G04 (created by PCBNEW-RS274X (2011-nov-30)-testing) date Sun 09 Sep 2012 01:33:34 PM EDT*
%MOIN*%
G04 Gerber Fmt 3.4, Leading zero omitted, Abs format*
%FSLAX34Y34*%
G01*
G70*
G90*
G04 APERTURE LIST*
%ADD10C,0.006*%
%ADD11C,0.015*%
%ADD12R,0.055X0.035*%
%ADD13R,0.0591X0.0394*%
%ADD14R,0.0984X0.1339*%
%ADD15C,0.0315*%
%ADD16R,0.0413X0.0551*%
%ADD17R,0.045X0.02*%
%ADD18R,0.035X0.055*%
%ADD19R,0.0394X0.0295*%
%ADD20R,0.06X0.06*%
%ADD21C,0.06*%
%ADD22C,0.035*%
%ADD23C,0.008*%
%ADD24C,0.01*%
G04 APERTURE END LIST*
G54D10*
G54D11*
X79500Y-62500D02*
X87500Y-62500D01*
X87500Y-62500D02*
X87500Y-63250D01*
X87500Y-63250D02*
X79500Y-63250D01*
X79500Y-63250D02*
X79500Y-62500D01*
X79500Y-50500D02*
X79500Y-49750D01*
X87500Y-50500D02*
X79500Y-50500D01*
X87500Y-49750D02*
X87500Y-50500D01*
X79500Y-49750D02*
X87500Y-49750D01*
X91000Y-64000D02*
X91000Y-49000D01*
X76000Y-64000D02*
X91000Y-64000D01*
X76000Y-49000D02*
X76000Y-64000D01*
X76000Y-64000D02*
X76000Y-49000D01*
X76000Y-49000D02*
X91000Y-49000D01*
G54D12*
X84000Y-57375D03*
X84000Y-56625D03*
X84500Y-58625D03*
X84500Y-59375D03*
X85000Y-55375D03*
X85000Y-54625D03*
X83750Y-55375D03*
X83750Y-54625D03*
X82500Y-55375D03*
X82500Y-54625D03*
G54D13*
X82835Y-57512D03*
X82835Y-56488D03*
G54D14*
X80000Y-57000D03*
G54D15*
X90604Y-59000D03*
G54D16*
X89965Y-58291D03*
X90535Y-59709D03*
X90535Y-58291D03*
X89965Y-59709D03*
G54D15*
X89896Y-59000D03*
X90604Y-54000D03*
G54D16*
X89965Y-53291D03*
X90535Y-54709D03*
X90535Y-53291D03*
X89965Y-54709D03*
G54D15*
X89896Y-54000D03*
G54D17*
X85900Y-55750D03*
X85900Y-56250D03*
X85900Y-56750D03*
X85900Y-57250D03*
X85900Y-57750D03*
X85900Y-58250D03*
X85900Y-58750D03*
X88000Y-58750D03*
X88000Y-58250D03*
X88000Y-57750D03*
X88000Y-57250D03*
X88000Y-56750D03*
X88000Y-56250D03*
X88000Y-55750D03*
G54D18*
X79875Y-53250D03*
X79125Y-53250D03*
G54D12*
X85500Y-60375D03*
X85500Y-61125D03*
G54D18*
X87875Y-53250D03*
X87125Y-53250D03*
X85375Y-53250D03*
X84625Y-53250D03*
X82875Y-53250D03*
X82125Y-53250D03*
G54D12*
X84000Y-61125D03*
X84000Y-60375D03*
X82750Y-61125D03*
X82750Y-60375D03*
X80000Y-58625D03*
X80000Y-59375D03*
G54D18*
X79875Y-52000D03*
X79125Y-52000D03*
X82875Y-52000D03*
X82125Y-52000D03*
X85375Y-52000D03*
X84625Y-52000D03*
X87875Y-52000D03*
X87125Y-52000D03*
G54D12*
X82500Y-58625D03*
X82500Y-59375D03*
G54D19*
X80028Y-61085D03*
X80028Y-60415D03*
X80972Y-60415D03*
X80972Y-61085D03*
G54D20*
X78250Y-61000D03*
G54D21*
X77250Y-61000D03*
X78250Y-60000D03*
X77250Y-60000D03*
X78250Y-59000D03*
X77250Y-59000D03*
G54D22*
X85500Y-59750D03*
X87750Y-54250D03*
X83250Y-58250D03*
X79750Y-54500D03*
X86500Y-61250D03*
X90000Y-62000D03*
X89500Y-56250D03*
X89250Y-51000D03*
X89000Y-56750D03*
X89000Y-51750D03*
X82000Y-61600D03*
X76750Y-62000D03*
X86250Y-60000D03*
X84750Y-61000D03*
X84750Y-60350D03*
X81675Y-61075D03*
X90500Y-52250D03*
X90500Y-56000D03*
X87250Y-60000D03*
X90500Y-57250D03*
X90500Y-61250D03*
X86750Y-60500D03*
X78250Y-58000D03*
X80000Y-61500D03*
X80500Y-54000D03*
G54D23*
X85500Y-60375D02*
X85500Y-59750D01*
X84500Y-58625D02*
X84500Y-58500D01*
X84500Y-58500D02*
X85250Y-57750D01*
X85500Y-60375D02*
X85500Y-58500D01*
X85250Y-58250D02*
X85250Y-57750D01*
X85500Y-58500D02*
X85250Y-58250D01*
G54D24*
X85900Y-57250D02*
X85750Y-57250D01*
X85750Y-57250D02*
X85250Y-57750D01*
X87875Y-53250D02*
X87875Y-54125D01*
X87875Y-54125D02*
X87750Y-54250D01*
X79750Y-54500D02*
X79875Y-54375D01*
X79875Y-54375D02*
X79875Y-53250D01*
X85500Y-61125D02*
X86375Y-61125D01*
X86375Y-61125D02*
X86500Y-61250D01*
X90000Y-62000D02*
X89965Y-61965D01*
X89965Y-61965D02*
X89965Y-59709D01*
X88000Y-56250D02*
X89500Y-56250D01*
X79875Y-52000D02*
X79875Y-51875D01*
X79875Y-51875D02*
X80750Y-51000D01*
X80750Y-51000D02*
X89250Y-51000D01*
X82875Y-52000D02*
X82875Y-51625D01*
X89000Y-56750D02*
X88000Y-56750D01*
X88500Y-51250D02*
X89000Y-51750D01*
X83250Y-51250D02*
X88500Y-51250D01*
X82875Y-51625D02*
X83250Y-51250D01*
X88000Y-57250D02*
X87500Y-57250D01*
X86500Y-54750D02*
X86500Y-55000D01*
X87250Y-55500D02*
X86500Y-54750D01*
X87250Y-57000D02*
X87250Y-55500D01*
X87500Y-57250D02*
X87250Y-57000D01*
X86000Y-52000D02*
X85375Y-52000D01*
X86500Y-52500D02*
X86000Y-52000D01*
X86500Y-55000D02*
X86500Y-52500D01*
X88000Y-57750D02*
X89750Y-57750D01*
X90000Y-57500D02*
X90000Y-55750D01*
X89750Y-57750D02*
X90000Y-57500D01*
X90000Y-55750D02*
X89750Y-55500D01*
X87875Y-52000D02*
X88250Y-52000D01*
X89750Y-55500D02*
X90000Y-55750D01*
X89500Y-55500D02*
X89750Y-55500D01*
X89000Y-55000D02*
X89500Y-55500D01*
X89000Y-52750D02*
X89000Y-55000D01*
X88250Y-52000D02*
X89000Y-52750D01*
X80750Y-62000D02*
X81000Y-62250D01*
X88750Y-61250D02*
X88750Y-60000D01*
X87750Y-62250D02*
X88750Y-61250D01*
X81000Y-62250D02*
X87750Y-62250D01*
X78250Y-60000D02*
X78250Y-59950D01*
X79575Y-58625D02*
X80000Y-58625D01*
X78250Y-59950D02*
X79575Y-58625D01*
X80000Y-58625D02*
X80375Y-58625D01*
X80500Y-61750D02*
X80750Y-62000D01*
X80500Y-58750D02*
X80500Y-61750D01*
X80375Y-58625D02*
X80500Y-58750D01*
X88500Y-58250D02*
X88000Y-58250D01*
X88750Y-60000D02*
X88750Y-58500D01*
X88750Y-58500D02*
X88500Y-58250D01*
X82750Y-61125D02*
X82750Y-61750D01*
X88000Y-61250D02*
X88000Y-60000D01*
X87250Y-62000D02*
X88000Y-61250D01*
X83000Y-62000D02*
X87250Y-62000D01*
X82750Y-61750D02*
X83000Y-62000D01*
X82475Y-61125D02*
X82750Y-61125D01*
X82000Y-61600D02*
X82475Y-61125D01*
X88000Y-60000D02*
X88000Y-58750D01*
X77250Y-60000D02*
X76750Y-60000D01*
X76750Y-60000D02*
X76750Y-61750D01*
X76750Y-61750D02*
X76750Y-62000D01*
X86250Y-60000D02*
X86250Y-59750D01*
X85900Y-59150D02*
X86250Y-59500D01*
X86250Y-59500D02*
X86250Y-59750D01*
X85900Y-58750D02*
X85900Y-59150D01*
X84625Y-61125D02*
X84000Y-61125D01*
X84750Y-61000D02*
X84625Y-61125D01*
X87125Y-52000D02*
X87125Y-53250D01*
X80972Y-61085D02*
X81665Y-61085D01*
X84725Y-60375D02*
X84000Y-60375D01*
X84750Y-60350D02*
X84725Y-60375D01*
X81665Y-61085D02*
X81675Y-61075D01*
X82750Y-60375D02*
X81012Y-60375D01*
X81012Y-60375D02*
X80972Y-60415D01*
X80000Y-59375D02*
X80000Y-60387D01*
X80000Y-60387D02*
X80028Y-60415D01*
X79125Y-52000D02*
X79125Y-53250D01*
X82125Y-52000D02*
X82125Y-53250D01*
X84625Y-53250D02*
X84625Y-52000D01*
G54D23*
X82500Y-58625D02*
X82500Y-57847D01*
X82500Y-57847D02*
X82835Y-57512D01*
G54D24*
X82835Y-57512D02*
X83488Y-57512D01*
X83625Y-57375D02*
X84000Y-57375D01*
X83488Y-57512D02*
X83625Y-57375D01*
X84000Y-57375D02*
X84875Y-57375D01*
X85500Y-56750D02*
X85900Y-56750D01*
X84875Y-57375D02*
X85500Y-56750D01*
X82835Y-56488D02*
X82835Y-56085D01*
X82500Y-55750D02*
X82500Y-55375D01*
X82835Y-56085D02*
X82500Y-55750D01*
X82835Y-56488D02*
X83488Y-56488D01*
X83625Y-56625D02*
X84000Y-56625D01*
X83488Y-56488D02*
X83625Y-56625D01*
X85900Y-56250D02*
X85500Y-56250D01*
X85125Y-56625D02*
X84000Y-56625D01*
X85500Y-56250D02*
X85125Y-56625D01*
X90535Y-52285D02*
X90535Y-53291D01*
X90500Y-52250D02*
X90535Y-52285D01*
X85900Y-57750D02*
X86250Y-57750D01*
X90535Y-55965D02*
X90535Y-54709D01*
X90500Y-56000D02*
X90535Y-55965D01*
X87250Y-58750D02*
X87250Y-60000D01*
X86250Y-57750D02*
X87250Y-58750D01*
X90535Y-58291D02*
X90535Y-57285D01*
X90535Y-57285D02*
X90500Y-57250D01*
X85900Y-58250D02*
X86250Y-58250D01*
X90535Y-61215D02*
X90535Y-59709D01*
X90500Y-61250D02*
X90535Y-61215D01*
X86750Y-58750D02*
X86750Y-60500D01*
X86250Y-58250D02*
X86750Y-58750D01*
X84500Y-59375D02*
X83875Y-59375D01*
X80250Y-58000D02*
X78250Y-58000D01*
X82000Y-59750D02*
X80250Y-58000D01*
X83500Y-59750D02*
X82000Y-59750D01*
X83875Y-59375D02*
X83500Y-59750D01*
X80028Y-61085D02*
X80028Y-61222D01*
X80028Y-61222D02*
X80000Y-61250D01*
X80000Y-61250D02*
X80000Y-61500D01*
X82750Y-54000D02*
X80500Y-54000D01*
X83250Y-54500D02*
X82750Y-54000D01*
X83250Y-55250D02*
X83250Y-54500D01*
X83375Y-55375D02*
X83250Y-55250D01*
X83750Y-55375D02*
X83375Y-55375D01*
X85000Y-55375D02*
X83750Y-55375D01*
X85000Y-55375D02*
X85000Y-55500D01*
X85000Y-55500D02*
X85250Y-55750D01*
X85250Y-55750D02*
X85900Y-55750D01*
G54D10*
G36*
X85465Y-57167D02*
X85066Y-57566D01*
X85036Y-57610D01*
X84406Y-58240D01*
X84183Y-58240D01*
X84106Y-58272D01*
X84047Y-58331D01*
X84015Y-58408D01*
X84015Y-58492D01*
X84015Y-58842D01*
X84047Y-58919D01*
X84106Y-58978D01*
X84158Y-59000D01*
X84106Y-59022D01*
X84047Y-59081D01*
X84032Y-59115D01*
X83875Y-59115D01*
X83776Y-59135D01*
X83691Y-59191D01*
X83392Y-59490D01*
X82991Y-59490D01*
X82963Y-59462D01*
X82637Y-59462D01*
X82637Y-59490D01*
X82363Y-59490D01*
X82363Y-59462D01*
X82300Y-59462D01*
X82300Y-59288D01*
X82363Y-59288D01*
X82363Y-59200D01*
X82637Y-59200D01*
X82637Y-59288D01*
X82963Y-59288D01*
X83025Y-59226D01*
X83024Y-59151D01*
X82986Y-59059D01*
X82916Y-58989D01*
X82891Y-58978D01*
X82894Y-58978D01*
X82953Y-58919D01*
X82985Y-58842D01*
X82985Y-58758D01*
X82985Y-58408D01*
X82953Y-58331D01*
X82894Y-58272D01*
X82817Y-58240D01*
X82750Y-58240D01*
X82750Y-57950D01*
X82781Y-57919D01*
X83172Y-57919D01*
X83249Y-57887D01*
X83308Y-57828D01*
X83331Y-57772D01*
X83488Y-57772D01*
X83587Y-57752D01*
X83588Y-57752D01*
X83616Y-57732D01*
X83617Y-57732D01*
X83683Y-57760D01*
X83767Y-57760D01*
X84317Y-57760D01*
X84394Y-57728D01*
X84453Y-57669D01*
X84467Y-57635D01*
X84875Y-57635D01*
X84974Y-57615D01*
X84975Y-57615D01*
X85059Y-57559D01*
X85465Y-57152D01*
X85465Y-57167D01*
X85465Y-57167D01*
G37*
G54D24*
X85465Y-57167D02*
X85066Y-57566D01*
X85036Y-57610D01*
X84406Y-58240D01*
X84183Y-58240D01*
X84106Y-58272D01*
X84047Y-58331D01*
X84015Y-58408D01*
X84015Y-58492D01*
X84015Y-58842D01*
X84047Y-58919D01*
X84106Y-58978D01*
X84158Y-59000D01*
X84106Y-59022D01*
X84047Y-59081D01*
X84032Y-59115D01*
X83875Y-59115D01*
X83776Y-59135D01*
X83691Y-59191D01*
X83392Y-59490D01*
X82991Y-59490D01*
X82963Y-59462D01*
X82637Y-59462D01*
X82637Y-59490D01*
X82363Y-59490D01*
X82363Y-59462D01*
X82300Y-59462D01*
X82300Y-59288D01*
X82363Y-59288D01*
X82363Y-59200D01*
X82637Y-59200D01*
X82637Y-59288D01*
X82963Y-59288D01*
X83025Y-59226D01*
X83024Y-59151D01*
X82986Y-59059D01*
X82916Y-58989D01*
X82891Y-58978D01*
X82894Y-58978D01*
X82953Y-58919D01*
X82985Y-58842D01*
X82985Y-58758D01*
X82985Y-58408D01*
X82953Y-58331D01*
X82894Y-58272D01*
X82817Y-58240D01*
X82750Y-58240D01*
X82750Y-57950D01*
X82781Y-57919D01*
X83172Y-57919D01*
X83249Y-57887D01*
X83308Y-57828D01*
X83331Y-57772D01*
X83488Y-57772D01*
X83587Y-57752D01*
X83588Y-57752D01*
X83616Y-57732D01*
X83617Y-57732D01*
X83683Y-57760D01*
X83767Y-57760D01*
X84317Y-57760D01*
X84394Y-57728D01*
X84453Y-57669D01*
X84467Y-57635D01*
X84875Y-57635D01*
X84974Y-57615D01*
X84975Y-57615D01*
X85059Y-57559D01*
X85465Y-57152D01*
X85465Y-57167D01*
G54D10*
G36*
X89740Y-55945D02*
X89718Y-55924D01*
X89577Y-55865D01*
X89424Y-55865D01*
X89282Y-55923D01*
X89215Y-55990D01*
X88436Y-55990D01*
X88474Y-55899D01*
X88475Y-55862D01*
X88475Y-55638D01*
X88474Y-55601D01*
X88436Y-55509D01*
X88366Y-55439D01*
X88300Y-55411D01*
X88300Y-53449D01*
X88300Y-53051D01*
X88299Y-53024D01*
X88299Y-52925D01*
X88261Y-52834D01*
X88191Y-52764D01*
X88099Y-52726D01*
X88024Y-52725D01*
X87962Y-52787D01*
X87962Y-53113D01*
X88238Y-53113D01*
X88300Y-53051D01*
X88300Y-53449D01*
X88238Y-53387D01*
X87962Y-53387D01*
X87962Y-53713D01*
X88024Y-53775D01*
X88099Y-53774D01*
X88191Y-53736D01*
X88261Y-53666D01*
X88299Y-53575D01*
X88299Y-53476D01*
X88300Y-53449D01*
X88300Y-55411D01*
X88275Y-55401D01*
X88176Y-55401D01*
X88174Y-55400D01*
X88112Y-55462D01*
X88112Y-55700D01*
X88413Y-55700D01*
X88475Y-55638D01*
X88475Y-55862D01*
X88413Y-55800D01*
X88112Y-55800D01*
X88112Y-55850D01*
X87888Y-55850D01*
X87888Y-55800D01*
X87888Y-55700D01*
X87888Y-55462D01*
X87826Y-55400D01*
X87824Y-55401D01*
X87725Y-55401D01*
X87634Y-55439D01*
X87564Y-55509D01*
X87526Y-55601D01*
X87525Y-55638D01*
X87587Y-55700D01*
X87888Y-55700D01*
X87888Y-55800D01*
X87587Y-55800D01*
X87525Y-55862D01*
X87526Y-55899D01*
X87564Y-55991D01*
X87600Y-56027D01*
X87597Y-56031D01*
X87565Y-56108D01*
X87565Y-56192D01*
X87565Y-56392D01*
X87597Y-56469D01*
X87628Y-56500D01*
X87597Y-56531D01*
X87565Y-56608D01*
X87565Y-56692D01*
X87565Y-56892D01*
X87597Y-56969D01*
X87618Y-56990D01*
X87607Y-56990D01*
X87510Y-56892D01*
X87510Y-55500D01*
X87490Y-55401D01*
X87489Y-55400D01*
X87434Y-55316D01*
X87431Y-55314D01*
X86760Y-54642D01*
X86760Y-53615D01*
X86772Y-53644D01*
X86831Y-53703D01*
X86908Y-53735D01*
X86992Y-53735D01*
X87342Y-53735D01*
X87419Y-53703D01*
X87478Y-53644D01*
X87478Y-53641D01*
X87489Y-53666D01*
X87559Y-53736D01*
X87651Y-53774D01*
X87726Y-53775D01*
X87788Y-53713D01*
X87788Y-53387D01*
X87700Y-53387D01*
X87700Y-53113D01*
X87788Y-53113D01*
X87788Y-52787D01*
X87726Y-52725D01*
X87651Y-52726D01*
X87559Y-52764D01*
X87489Y-52834D01*
X87478Y-52856D01*
X87419Y-52797D01*
X87385Y-52782D01*
X87385Y-52467D01*
X87419Y-52453D01*
X87478Y-52394D01*
X87500Y-52341D01*
X87522Y-52394D01*
X87581Y-52453D01*
X87658Y-52485D01*
X87742Y-52485D01*
X88092Y-52485D01*
X88169Y-52453D01*
X88228Y-52394D01*
X88242Y-52359D01*
X88740Y-52857D01*
X88740Y-55000D01*
X88760Y-55100D01*
X88816Y-55184D01*
X89316Y-55684D01*
X89400Y-55740D01*
X89401Y-55740D01*
X89500Y-55760D01*
X89642Y-55760D01*
X89740Y-55857D01*
X89740Y-55945D01*
X89740Y-55945D01*
G37*
G54D24*
X89740Y-55945D02*
X89718Y-55924D01*
X89577Y-55865D01*
X89424Y-55865D01*
X89282Y-55923D01*
X89215Y-55990D01*
X88436Y-55990D01*
X88474Y-55899D01*
X88475Y-55862D01*
X88475Y-55638D01*
X88474Y-55601D01*
X88436Y-55509D01*
X88366Y-55439D01*
X88300Y-55411D01*
X88300Y-53449D01*
X88300Y-53051D01*
X88299Y-53024D01*
X88299Y-52925D01*
X88261Y-52834D01*
X88191Y-52764D01*
X88099Y-52726D01*
X88024Y-52725D01*
X87962Y-52787D01*
X87962Y-53113D01*
X88238Y-53113D01*
X88300Y-53051D01*
X88300Y-53449D01*
X88238Y-53387D01*
X87962Y-53387D01*
X87962Y-53713D01*
X88024Y-53775D01*
X88099Y-53774D01*
X88191Y-53736D01*
X88261Y-53666D01*
X88299Y-53575D01*
X88299Y-53476D01*
X88300Y-53449D01*
X88300Y-55411D01*
X88275Y-55401D01*
X88176Y-55401D01*
X88174Y-55400D01*
X88112Y-55462D01*
X88112Y-55700D01*
X88413Y-55700D01*
X88475Y-55638D01*
X88475Y-55862D01*
X88413Y-55800D01*
X88112Y-55800D01*
X88112Y-55850D01*
X87888Y-55850D01*
X87888Y-55800D01*
X87888Y-55700D01*
X87888Y-55462D01*
X87826Y-55400D01*
X87824Y-55401D01*
X87725Y-55401D01*
X87634Y-55439D01*
X87564Y-55509D01*
X87526Y-55601D01*
X87525Y-55638D01*
X87587Y-55700D01*
X87888Y-55700D01*
X87888Y-55800D01*
X87587Y-55800D01*
X87525Y-55862D01*
X87526Y-55899D01*
X87564Y-55991D01*
X87600Y-56027D01*
X87597Y-56031D01*
X87565Y-56108D01*
X87565Y-56192D01*
X87565Y-56392D01*
X87597Y-56469D01*
X87628Y-56500D01*
X87597Y-56531D01*
X87565Y-56608D01*
X87565Y-56692D01*
X87565Y-56892D01*
X87597Y-56969D01*
X87618Y-56990D01*
X87607Y-56990D01*
X87510Y-56892D01*
X87510Y-55500D01*
X87490Y-55401D01*
X87489Y-55400D01*
X87434Y-55316D01*
X87431Y-55314D01*
X86760Y-54642D01*
X86760Y-53615D01*
X86772Y-53644D01*
X86831Y-53703D01*
X86908Y-53735D01*
X86992Y-53735D01*
X87342Y-53735D01*
X87419Y-53703D01*
X87478Y-53644D01*
X87478Y-53641D01*
X87489Y-53666D01*
X87559Y-53736D01*
X87651Y-53774D01*
X87726Y-53775D01*
X87788Y-53713D01*
X87788Y-53387D01*
X87700Y-53387D01*
X87700Y-53113D01*
X87788Y-53113D01*
X87788Y-52787D01*
X87726Y-52725D01*
X87651Y-52726D01*
X87559Y-52764D01*
X87489Y-52834D01*
X87478Y-52856D01*
X87419Y-52797D01*
X87385Y-52782D01*
X87385Y-52467D01*
X87419Y-52453D01*
X87478Y-52394D01*
X87500Y-52341D01*
X87522Y-52394D01*
X87581Y-52453D01*
X87658Y-52485D01*
X87742Y-52485D01*
X88092Y-52485D01*
X88169Y-52453D01*
X88228Y-52394D01*
X88242Y-52359D01*
X88740Y-52857D01*
X88740Y-55000D01*
X88760Y-55100D01*
X88816Y-55184D01*
X89316Y-55684D01*
X89400Y-55740D01*
X89401Y-55740D01*
X89500Y-55760D01*
X89642Y-55760D01*
X89740Y-55857D01*
X89740Y-55945D01*
G54D10*
G36*
X90700Y-63700D02*
X89862Y-63700D01*
X89862Y-60172D01*
X89862Y-59846D01*
X89571Y-59846D01*
X89509Y-59908D01*
X89510Y-60033D01*
X89548Y-60125D01*
X89618Y-60195D01*
X89709Y-60233D01*
X89801Y-60233D01*
X89862Y-60172D01*
X89862Y-63700D01*
X76300Y-63700D01*
X76300Y-49300D01*
X90700Y-49300D01*
X90700Y-51916D01*
X90577Y-51865D01*
X90424Y-51865D01*
X90282Y-51923D01*
X90174Y-52032D01*
X90115Y-52173D01*
X90115Y-52326D01*
X90173Y-52468D01*
X90275Y-52569D01*
X90275Y-52789D01*
X90221Y-52767D01*
X90129Y-52767D01*
X90068Y-52828D01*
X90068Y-53154D01*
X90119Y-53154D01*
X90119Y-53428D01*
X90068Y-53428D01*
X90068Y-53491D01*
X89862Y-53491D01*
X89862Y-53428D01*
X89862Y-53154D01*
X89862Y-52828D01*
X89801Y-52767D01*
X89709Y-52767D01*
X89618Y-52805D01*
X89548Y-52875D01*
X89510Y-52967D01*
X89509Y-53092D01*
X89571Y-53154D01*
X89862Y-53154D01*
X89862Y-53428D01*
X89571Y-53428D01*
X89509Y-53490D01*
X89510Y-53615D01*
X89548Y-53707D01*
X89609Y-53768D01*
X89585Y-53792D01*
X89529Y-53927D01*
X89529Y-54073D01*
X89585Y-54208D01*
X89609Y-54232D01*
X89548Y-54293D01*
X89510Y-54385D01*
X89509Y-54510D01*
X89571Y-54572D01*
X89862Y-54572D01*
X89862Y-54509D01*
X90068Y-54509D01*
X90068Y-54572D01*
X90119Y-54572D01*
X90119Y-54846D01*
X90068Y-54846D01*
X90068Y-55172D01*
X90129Y-55233D01*
X90221Y-55233D01*
X90275Y-55210D01*
X90275Y-55680D01*
X90250Y-55704D01*
X90240Y-55651D01*
X90239Y-55650D01*
X90184Y-55566D01*
X90181Y-55564D01*
X89934Y-55316D01*
X89862Y-55268D01*
X89862Y-55172D01*
X89862Y-54846D01*
X89571Y-54846D01*
X89509Y-54908D01*
X89510Y-55033D01*
X89548Y-55125D01*
X89618Y-55195D01*
X89709Y-55233D01*
X89801Y-55233D01*
X89862Y-55172D01*
X89862Y-55268D01*
X89850Y-55260D01*
X89750Y-55240D01*
X89608Y-55240D01*
X89260Y-54892D01*
X89260Y-52750D01*
X89240Y-52651D01*
X89239Y-52650D01*
X89184Y-52566D01*
X89181Y-52564D01*
X88434Y-51816D01*
X88350Y-51760D01*
X88260Y-51742D01*
X88260Y-51683D01*
X88228Y-51606D01*
X88169Y-51547D01*
X88092Y-51515D01*
X88008Y-51515D01*
X87658Y-51515D01*
X87581Y-51547D01*
X87522Y-51606D01*
X87500Y-51658D01*
X87478Y-51606D01*
X87419Y-51547D01*
X87342Y-51515D01*
X87258Y-51515D01*
X86908Y-51515D01*
X86831Y-51547D01*
X86772Y-51606D01*
X86740Y-51683D01*
X86740Y-51767D01*
X86740Y-52317D01*
X86772Y-52394D01*
X86831Y-52453D01*
X86865Y-52467D01*
X86865Y-52782D01*
X86831Y-52797D01*
X86772Y-52856D01*
X86760Y-52884D01*
X86760Y-52500D01*
X86740Y-52401D01*
X86740Y-52400D01*
X86684Y-52316D01*
X86184Y-51816D01*
X86100Y-51760D01*
X86000Y-51740D01*
X85760Y-51740D01*
X85760Y-51683D01*
X85728Y-51606D01*
X85669Y-51547D01*
X85592Y-51515D01*
X85508Y-51515D01*
X85158Y-51515D01*
X85081Y-51547D01*
X85022Y-51606D01*
X85000Y-51658D01*
X84978Y-51606D01*
X84919Y-51547D01*
X84842Y-51515D01*
X84758Y-51515D01*
X84408Y-51515D01*
X84331Y-51547D01*
X84272Y-51606D01*
X84240Y-51683D01*
X84240Y-51767D01*
X84240Y-52317D01*
X84272Y-52394D01*
X84331Y-52453D01*
X84365Y-52467D01*
X84365Y-52782D01*
X84331Y-52797D01*
X84272Y-52856D01*
X84240Y-52933D01*
X84240Y-53017D01*
X84240Y-53567D01*
X84272Y-53644D01*
X84331Y-53703D01*
X84408Y-53735D01*
X84492Y-53735D01*
X84842Y-53735D01*
X84919Y-53703D01*
X84978Y-53644D01*
X84978Y-53641D01*
X84989Y-53666D01*
X85059Y-53736D01*
X85151Y-53774D01*
X85226Y-53775D01*
X85288Y-53713D01*
X85288Y-53387D01*
X85200Y-53387D01*
X85200Y-53113D01*
X85288Y-53113D01*
X85288Y-52787D01*
X85226Y-52725D01*
X85151Y-52726D01*
X85059Y-52764D01*
X84989Y-52834D01*
X84978Y-52856D01*
X84919Y-52797D01*
X84885Y-52782D01*
X84885Y-52467D01*
X84919Y-52453D01*
X84978Y-52394D01*
X85000Y-52341D01*
X85022Y-52394D01*
X85081Y-52453D01*
X85158Y-52485D01*
X85242Y-52485D01*
X85592Y-52485D01*
X85669Y-52453D01*
X85728Y-52394D01*
X85760Y-52317D01*
X85760Y-52260D01*
X85892Y-52260D01*
X86240Y-52608D01*
X86240Y-54750D01*
X86240Y-55000D01*
X86260Y-55099D01*
X86316Y-55184D01*
X86401Y-55240D01*
X86500Y-55260D01*
X86599Y-55240D01*
X86613Y-55230D01*
X86990Y-55607D01*
X86990Y-57000D01*
X87010Y-57100D01*
X87066Y-57184D01*
X87314Y-57431D01*
X87316Y-57434D01*
X87400Y-57489D01*
X87401Y-57490D01*
X87500Y-57510D01*
X87618Y-57510D01*
X87597Y-57531D01*
X87565Y-57608D01*
X87565Y-57692D01*
X87565Y-57892D01*
X87597Y-57969D01*
X87628Y-58000D01*
X87597Y-58031D01*
X87565Y-58108D01*
X87565Y-58192D01*
X87565Y-58392D01*
X87597Y-58469D01*
X87628Y-58500D01*
X87597Y-58531D01*
X87565Y-58608D01*
X87565Y-58692D01*
X87565Y-58892D01*
X87597Y-58969D01*
X87656Y-59028D01*
X87733Y-59060D01*
X87740Y-59060D01*
X87740Y-60000D01*
X87740Y-61142D01*
X87142Y-61740D01*
X86025Y-61740D01*
X86025Y-61274D01*
X85963Y-61212D01*
X85637Y-61212D01*
X85637Y-61488D01*
X85699Y-61550D01*
X85726Y-61549D01*
X85825Y-61549D01*
X85916Y-61511D01*
X85986Y-61441D01*
X86024Y-61349D01*
X86025Y-61274D01*
X86025Y-61740D01*
X83107Y-61740D01*
X83010Y-61642D01*
X83010Y-61510D01*
X83067Y-61510D01*
X83144Y-61478D01*
X83203Y-61419D01*
X83235Y-61342D01*
X83235Y-61258D01*
X83235Y-60908D01*
X83203Y-60831D01*
X83144Y-60772D01*
X83091Y-60750D01*
X83144Y-60728D01*
X83203Y-60669D01*
X83235Y-60592D01*
X83235Y-60508D01*
X83235Y-60158D01*
X83203Y-60081D01*
X83144Y-60022D01*
X83115Y-60010D01*
X83500Y-60010D01*
X83599Y-59990D01*
X83600Y-59990D01*
X83684Y-59934D01*
X83983Y-59635D01*
X84032Y-59635D01*
X84047Y-59669D01*
X84106Y-59728D01*
X84183Y-59760D01*
X84267Y-59760D01*
X84817Y-59760D01*
X84894Y-59728D01*
X84953Y-59669D01*
X84985Y-59592D01*
X84985Y-59508D01*
X84985Y-59158D01*
X84953Y-59081D01*
X84894Y-59022D01*
X84841Y-59000D01*
X84894Y-58978D01*
X84953Y-58919D01*
X84985Y-58842D01*
X84985Y-58758D01*
X84985Y-58408D01*
X84973Y-58380D01*
X85017Y-58336D01*
X85019Y-58346D01*
X85073Y-58427D01*
X85250Y-58603D01*
X85250Y-59455D01*
X85174Y-59532D01*
X85115Y-59673D01*
X85115Y-59826D01*
X85173Y-59968D01*
X85195Y-59990D01*
X85183Y-59990D01*
X85106Y-60022D01*
X85047Y-60081D01*
X85040Y-60096D01*
X84968Y-60024D01*
X84827Y-59965D01*
X84674Y-59965D01*
X84532Y-60023D01*
X84459Y-60096D01*
X84453Y-60081D01*
X84394Y-60022D01*
X84317Y-59990D01*
X84233Y-59990D01*
X83683Y-59990D01*
X83606Y-60022D01*
X83547Y-60081D01*
X83515Y-60158D01*
X83515Y-60242D01*
X83515Y-60592D01*
X83547Y-60669D01*
X83606Y-60728D01*
X83658Y-60750D01*
X83606Y-60772D01*
X83547Y-60831D01*
X83515Y-60908D01*
X83515Y-60992D01*
X83515Y-61342D01*
X83547Y-61419D01*
X83606Y-61478D01*
X83683Y-61510D01*
X83767Y-61510D01*
X84317Y-61510D01*
X84394Y-61478D01*
X84453Y-61419D01*
X84467Y-61385D01*
X84625Y-61385D01*
X84657Y-61378D01*
X84673Y-61385D01*
X84826Y-61385D01*
X84968Y-61327D01*
X84975Y-61319D01*
X84975Y-61375D01*
X84986Y-61375D01*
X85014Y-61441D01*
X85084Y-61511D01*
X85175Y-61549D01*
X85274Y-61549D01*
X85301Y-61550D01*
X85363Y-61488D01*
X85363Y-61212D01*
X85300Y-61212D01*
X85300Y-61038D01*
X85363Y-61038D01*
X85363Y-60950D01*
X85637Y-60950D01*
X85637Y-61038D01*
X85963Y-61038D01*
X86025Y-60976D01*
X86024Y-60901D01*
X85986Y-60809D01*
X85916Y-60739D01*
X85891Y-60728D01*
X85894Y-60728D01*
X85953Y-60669D01*
X85985Y-60592D01*
X85985Y-60508D01*
X85985Y-60279D01*
X86032Y-60326D01*
X86173Y-60385D01*
X86326Y-60385D01*
X86392Y-60357D01*
X86365Y-60423D01*
X86365Y-60576D01*
X86423Y-60718D01*
X86532Y-60826D01*
X86673Y-60885D01*
X86826Y-60885D01*
X86968Y-60827D01*
X87076Y-60718D01*
X87135Y-60577D01*
X87135Y-60424D01*
X87107Y-60357D01*
X87173Y-60385D01*
X87326Y-60385D01*
X87468Y-60327D01*
X87576Y-60218D01*
X87635Y-60077D01*
X87635Y-59924D01*
X87577Y-59782D01*
X87510Y-59715D01*
X87510Y-58750D01*
X87490Y-58651D01*
X87490Y-58650D01*
X87434Y-58566D01*
X86434Y-57566D01*
X86350Y-57510D01*
X86276Y-57495D01*
X86303Y-57469D01*
X86335Y-57392D01*
X86335Y-57308D01*
X86335Y-57108D01*
X86303Y-57031D01*
X86272Y-57000D01*
X86303Y-56969D01*
X86335Y-56892D01*
X86335Y-56808D01*
X86335Y-56608D01*
X86303Y-56531D01*
X86272Y-56500D01*
X86303Y-56469D01*
X86335Y-56392D01*
X86335Y-56308D01*
X86335Y-56108D01*
X86303Y-56031D01*
X86272Y-56000D01*
X86303Y-55969D01*
X86335Y-55892D01*
X86335Y-55808D01*
X86335Y-55608D01*
X86303Y-55531D01*
X86244Y-55472D01*
X86167Y-55440D01*
X86083Y-55440D01*
X85800Y-55440D01*
X85800Y-53449D01*
X85800Y-53051D01*
X85799Y-53024D01*
X85799Y-52925D01*
X85761Y-52834D01*
X85691Y-52764D01*
X85599Y-52726D01*
X85524Y-52725D01*
X85462Y-52787D01*
X85462Y-53113D01*
X85738Y-53113D01*
X85800Y-53051D01*
X85800Y-53449D01*
X85738Y-53387D01*
X85462Y-53387D01*
X85462Y-53713D01*
X85524Y-53775D01*
X85599Y-53774D01*
X85691Y-53736D01*
X85761Y-53666D01*
X85799Y-53575D01*
X85799Y-53476D01*
X85800Y-53449D01*
X85800Y-55440D01*
X85633Y-55440D01*
X85556Y-55472D01*
X85538Y-55490D01*
X85485Y-55490D01*
X85485Y-55158D01*
X85453Y-55081D01*
X85394Y-55022D01*
X85391Y-55021D01*
X85416Y-55011D01*
X85486Y-54941D01*
X85524Y-54849D01*
X85525Y-54774D01*
X85525Y-54476D01*
X85524Y-54401D01*
X85486Y-54309D01*
X85416Y-54239D01*
X85325Y-54201D01*
X85226Y-54201D01*
X85199Y-54200D01*
X85137Y-54262D01*
X85137Y-54538D01*
X85463Y-54538D01*
X85525Y-54476D01*
X85525Y-54774D01*
X85463Y-54712D01*
X85137Y-54712D01*
X85137Y-54800D01*
X84863Y-54800D01*
X84863Y-54712D01*
X84863Y-54538D01*
X84863Y-54262D01*
X84801Y-54200D01*
X84774Y-54201D01*
X84675Y-54201D01*
X84584Y-54239D01*
X84514Y-54309D01*
X84476Y-54401D01*
X84475Y-54476D01*
X84537Y-54538D01*
X84863Y-54538D01*
X84863Y-54712D01*
X84537Y-54712D01*
X84475Y-54774D01*
X84476Y-54849D01*
X84514Y-54941D01*
X84584Y-55011D01*
X84608Y-55021D01*
X84606Y-55022D01*
X84547Y-55081D01*
X84532Y-55115D01*
X84217Y-55115D01*
X84203Y-55081D01*
X84144Y-55022D01*
X84141Y-55021D01*
X84166Y-55011D01*
X84236Y-54941D01*
X84274Y-54849D01*
X84275Y-54774D01*
X84275Y-54476D01*
X84274Y-54401D01*
X84236Y-54309D01*
X84166Y-54239D01*
X84075Y-54201D01*
X83976Y-54201D01*
X83949Y-54200D01*
X83887Y-54262D01*
X83887Y-54538D01*
X84213Y-54538D01*
X84275Y-54476D01*
X84275Y-54774D01*
X84213Y-54712D01*
X83887Y-54712D01*
X83887Y-54800D01*
X83613Y-54800D01*
X83613Y-54712D01*
X83550Y-54712D01*
X83550Y-54538D01*
X83613Y-54538D01*
X83613Y-54262D01*
X83551Y-54200D01*
X83524Y-54201D01*
X83425Y-54201D01*
X83350Y-54232D01*
X83300Y-54182D01*
X83300Y-53449D01*
X83300Y-53051D01*
X83299Y-53024D01*
X83299Y-52925D01*
X83261Y-52834D01*
X83191Y-52764D01*
X83099Y-52726D01*
X83024Y-52725D01*
X82962Y-52787D01*
X82962Y-53113D01*
X83238Y-53113D01*
X83300Y-53051D01*
X83300Y-53449D01*
X83238Y-53387D01*
X82962Y-53387D01*
X82962Y-53713D01*
X83024Y-53775D01*
X83099Y-53774D01*
X83191Y-53736D01*
X83261Y-53666D01*
X83299Y-53575D01*
X83299Y-53476D01*
X83300Y-53449D01*
X83300Y-54182D01*
X82934Y-53816D01*
X82850Y-53760D01*
X82759Y-53741D01*
X82788Y-53713D01*
X82788Y-53387D01*
X82700Y-53387D01*
X82700Y-53113D01*
X82788Y-53113D01*
X82788Y-52787D01*
X82726Y-52725D01*
X82651Y-52726D01*
X82559Y-52764D01*
X82489Y-52834D01*
X82478Y-52856D01*
X82419Y-52797D01*
X82385Y-52782D01*
X82385Y-52467D01*
X82419Y-52453D01*
X82478Y-52394D01*
X82500Y-52341D01*
X82522Y-52394D01*
X82581Y-52453D01*
X82658Y-52485D01*
X82742Y-52485D01*
X83092Y-52485D01*
X83169Y-52453D01*
X83228Y-52394D01*
X83260Y-52317D01*
X83260Y-52233D01*
X83260Y-51683D01*
X83237Y-51630D01*
X83358Y-51510D01*
X88392Y-51510D01*
X88615Y-51733D01*
X88615Y-51826D01*
X88673Y-51968D01*
X88782Y-52076D01*
X88923Y-52135D01*
X89076Y-52135D01*
X89218Y-52077D01*
X89326Y-51968D01*
X89385Y-51827D01*
X89385Y-51674D01*
X89327Y-51532D01*
X89218Y-51424D01*
X89077Y-51365D01*
X88983Y-51365D01*
X88878Y-51260D01*
X88965Y-51260D01*
X89032Y-51326D01*
X89173Y-51385D01*
X89326Y-51385D01*
X89468Y-51327D01*
X89576Y-51218D01*
X89635Y-51077D01*
X89635Y-50924D01*
X89577Y-50782D01*
X89468Y-50674D01*
X89327Y-50615D01*
X89174Y-50615D01*
X89032Y-50673D01*
X88965Y-50740D01*
X87644Y-50740D01*
X87702Y-50702D01*
X87763Y-50609D01*
X87785Y-50500D01*
X87785Y-49750D01*
X87763Y-49641D01*
X87702Y-49548D01*
X87609Y-49487D01*
X87500Y-49465D01*
X79500Y-49465D01*
X79391Y-49487D01*
X79298Y-49548D01*
X79237Y-49641D01*
X79215Y-49750D01*
X79215Y-50500D01*
X79237Y-50609D01*
X79298Y-50702D01*
X79391Y-50763D01*
X79500Y-50785D01*
X80613Y-50785D01*
X80566Y-50816D01*
X79867Y-51515D01*
X79658Y-51515D01*
X79581Y-51547D01*
X79522Y-51606D01*
X79500Y-51658D01*
X79478Y-51606D01*
X79419Y-51547D01*
X79342Y-51515D01*
X79258Y-51515D01*
X78908Y-51515D01*
X78831Y-51547D01*
X78772Y-51606D01*
X78740Y-51683D01*
X78740Y-51767D01*
X78740Y-52317D01*
X78772Y-52394D01*
X78831Y-52453D01*
X78865Y-52467D01*
X78865Y-52782D01*
X78831Y-52797D01*
X78772Y-52856D01*
X78740Y-52933D01*
X78740Y-53017D01*
X78740Y-53567D01*
X78772Y-53644D01*
X78831Y-53703D01*
X78908Y-53735D01*
X78992Y-53735D01*
X79342Y-53735D01*
X79419Y-53703D01*
X79478Y-53644D01*
X79478Y-53641D01*
X79489Y-53666D01*
X79559Y-53736D01*
X79651Y-53774D01*
X79726Y-53775D01*
X79788Y-53713D01*
X79788Y-53387D01*
X79700Y-53387D01*
X79700Y-53113D01*
X79788Y-53113D01*
X79788Y-52787D01*
X79726Y-52725D01*
X79651Y-52726D01*
X79559Y-52764D01*
X79489Y-52834D01*
X79478Y-52856D01*
X79419Y-52797D01*
X79385Y-52782D01*
X79385Y-52467D01*
X79419Y-52453D01*
X79478Y-52394D01*
X79500Y-52341D01*
X79522Y-52394D01*
X79581Y-52453D01*
X79658Y-52485D01*
X79742Y-52485D01*
X80092Y-52485D01*
X80169Y-52453D01*
X80228Y-52394D01*
X80260Y-52317D01*
X80260Y-52233D01*
X80260Y-51858D01*
X80858Y-51260D01*
X82872Y-51260D01*
X82691Y-51441D01*
X82635Y-51524D01*
X82581Y-51547D01*
X82522Y-51606D01*
X82500Y-51658D01*
X82478Y-51606D01*
X82419Y-51547D01*
X82342Y-51515D01*
X82258Y-51515D01*
X81908Y-51515D01*
X81831Y-51547D01*
X81772Y-51606D01*
X81740Y-51683D01*
X81740Y-51767D01*
X81740Y-52317D01*
X81772Y-52394D01*
X81831Y-52453D01*
X81865Y-52467D01*
X81865Y-52782D01*
X81831Y-52797D01*
X81772Y-52856D01*
X81740Y-52933D01*
X81740Y-53017D01*
X81740Y-53567D01*
X81772Y-53644D01*
X81831Y-53703D01*
X81908Y-53735D01*
X81992Y-53735D01*
X82342Y-53735D01*
X82419Y-53703D01*
X82478Y-53644D01*
X82478Y-53641D01*
X82489Y-53666D01*
X82559Y-53736D01*
X82568Y-53740D01*
X80784Y-53740D01*
X80718Y-53674D01*
X80577Y-53615D01*
X80424Y-53615D01*
X80300Y-53665D01*
X80300Y-53449D01*
X80300Y-53051D01*
X80299Y-53024D01*
X80299Y-52925D01*
X80261Y-52834D01*
X80191Y-52764D01*
X80099Y-52726D01*
X80024Y-52725D01*
X79962Y-52787D01*
X79962Y-53113D01*
X80238Y-53113D01*
X80300Y-53051D01*
X80300Y-53449D01*
X80238Y-53387D01*
X79962Y-53387D01*
X79962Y-53713D01*
X80024Y-53775D01*
X80099Y-53774D01*
X80191Y-53736D01*
X80261Y-53666D01*
X80299Y-53575D01*
X80299Y-53476D01*
X80300Y-53449D01*
X80300Y-53665D01*
X80282Y-53673D01*
X80174Y-53782D01*
X80115Y-53923D01*
X80115Y-54076D01*
X80173Y-54218D01*
X80282Y-54326D01*
X80423Y-54385D01*
X80576Y-54385D01*
X80718Y-54327D01*
X80784Y-54260D01*
X82063Y-54260D01*
X82014Y-54309D01*
X81976Y-54401D01*
X81975Y-54476D01*
X82037Y-54538D01*
X82363Y-54538D01*
X82363Y-54450D01*
X82637Y-54450D01*
X82637Y-54538D01*
X82700Y-54538D01*
X82700Y-54712D01*
X82637Y-54712D01*
X82637Y-54800D01*
X82363Y-54800D01*
X82363Y-54712D01*
X82037Y-54712D01*
X81975Y-54774D01*
X81976Y-54849D01*
X82014Y-54941D01*
X82084Y-55011D01*
X82108Y-55021D01*
X82106Y-55022D01*
X82047Y-55081D01*
X82015Y-55158D01*
X82015Y-55242D01*
X82015Y-55592D01*
X82047Y-55669D01*
X82106Y-55728D01*
X82183Y-55760D01*
X82242Y-55760D01*
X82260Y-55850D01*
X82316Y-55934D01*
X82473Y-56091D01*
X82421Y-56113D01*
X82362Y-56172D01*
X82330Y-56249D01*
X82330Y-56333D01*
X82330Y-56727D01*
X82362Y-56804D01*
X82421Y-56863D01*
X82498Y-56895D01*
X82582Y-56895D01*
X83172Y-56895D01*
X83249Y-56863D01*
X83308Y-56804D01*
X83331Y-56748D01*
X83380Y-56748D01*
X83439Y-56806D01*
X83441Y-56809D01*
X83523Y-56863D01*
X83524Y-56863D01*
X83547Y-56919D01*
X83606Y-56978D01*
X83658Y-57000D01*
X83606Y-57022D01*
X83547Y-57081D01*
X83524Y-57136D01*
X83523Y-57136D01*
X83441Y-57191D01*
X83439Y-57193D01*
X83380Y-57252D01*
X83331Y-57252D01*
X83308Y-57196D01*
X83249Y-57137D01*
X83172Y-57105D01*
X83088Y-57105D01*
X82498Y-57105D01*
X82421Y-57137D01*
X82362Y-57196D01*
X82330Y-57273D01*
X82330Y-57357D01*
X82330Y-57663D01*
X82323Y-57670D01*
X82269Y-57751D01*
X82250Y-57847D01*
X82250Y-58240D01*
X82183Y-58240D01*
X82106Y-58272D01*
X82047Y-58331D01*
X82015Y-58408D01*
X82015Y-58492D01*
X82015Y-58842D01*
X82047Y-58919D01*
X82106Y-58978D01*
X82084Y-58989D01*
X82014Y-59059D01*
X81986Y-59125D01*
X81975Y-59125D01*
X81975Y-59226D01*
X81975Y-59358D01*
X80496Y-57879D01*
X80534Y-57879D01*
X80611Y-57847D01*
X80670Y-57788D01*
X80702Y-57711D01*
X80702Y-57627D01*
X80702Y-56289D01*
X80670Y-56212D01*
X80611Y-56153D01*
X80534Y-56121D01*
X80450Y-56121D01*
X79466Y-56121D01*
X79389Y-56153D01*
X79330Y-56212D01*
X79298Y-56289D01*
X79298Y-56373D01*
X79298Y-57711D01*
X79310Y-57740D01*
X78534Y-57740D01*
X78468Y-57674D01*
X78327Y-57615D01*
X78174Y-57615D01*
X78032Y-57673D01*
X77924Y-57782D01*
X77865Y-57923D01*
X77865Y-58076D01*
X77923Y-58218D01*
X78032Y-58326D01*
X78173Y-58385D01*
X78326Y-58385D01*
X78468Y-58327D01*
X78534Y-58260D01*
X79634Y-58260D01*
X79606Y-58272D01*
X79547Y-58331D01*
X79529Y-58374D01*
X79528Y-58374D01*
X79476Y-58385D01*
X79391Y-58441D01*
X79389Y-58443D01*
X78759Y-59073D01*
X78759Y-58899D01*
X78682Y-58712D01*
X78538Y-58569D01*
X78351Y-58491D01*
X78149Y-58491D01*
X77962Y-58568D01*
X77819Y-58712D01*
X77776Y-58814D01*
X77774Y-58804D01*
X77691Y-58771D01*
X77479Y-58983D01*
X77479Y-58559D01*
X77446Y-58476D01*
X77230Y-58441D01*
X77054Y-58476D01*
X77021Y-58559D01*
X77250Y-58788D01*
X77479Y-58559D01*
X77479Y-58983D01*
X77462Y-59000D01*
X77691Y-59229D01*
X77774Y-59196D01*
X77775Y-59185D01*
X77818Y-59288D01*
X77962Y-59431D01*
X78127Y-59499D01*
X77962Y-59568D01*
X77819Y-59712D01*
X77750Y-59877D01*
X77682Y-59712D01*
X77538Y-59569D01*
X77435Y-59526D01*
X77446Y-59524D01*
X77479Y-59441D01*
X77250Y-59212D01*
X77038Y-59424D01*
X77038Y-59000D01*
X76809Y-58771D01*
X76726Y-58804D01*
X76691Y-59020D01*
X76726Y-59196D01*
X76809Y-59229D01*
X77038Y-59000D01*
X77038Y-59424D01*
X77021Y-59441D01*
X77054Y-59524D01*
X77064Y-59525D01*
X76962Y-59568D01*
X76819Y-59712D01*
X76807Y-59740D01*
X76750Y-59740D01*
X76651Y-59760D01*
X76566Y-59816D01*
X76510Y-59901D01*
X76490Y-60000D01*
X76490Y-61715D01*
X76424Y-61782D01*
X76365Y-61923D01*
X76365Y-62076D01*
X76423Y-62218D01*
X76532Y-62326D01*
X76673Y-62385D01*
X76826Y-62385D01*
X76968Y-62327D01*
X77076Y-62218D01*
X77135Y-62077D01*
X77135Y-61924D01*
X77077Y-61782D01*
X77010Y-61715D01*
X77010Y-61451D01*
X77149Y-61509D01*
X77351Y-61509D01*
X77538Y-61432D01*
X77681Y-61288D01*
X77740Y-61146D01*
X77740Y-61342D01*
X77772Y-61419D01*
X77831Y-61478D01*
X77908Y-61510D01*
X77992Y-61510D01*
X78592Y-61510D01*
X78669Y-61478D01*
X78728Y-61419D01*
X78760Y-61342D01*
X78760Y-61258D01*
X78760Y-60658D01*
X78728Y-60581D01*
X78669Y-60522D01*
X78592Y-60490D01*
X78508Y-60490D01*
X78397Y-60490D01*
X78538Y-60432D01*
X78681Y-60288D01*
X78759Y-60101D01*
X78759Y-59899D01*
X78732Y-59835D01*
X79597Y-58969D01*
X79606Y-58978D01*
X79658Y-59000D01*
X79606Y-59022D01*
X79547Y-59081D01*
X79515Y-59158D01*
X79515Y-59242D01*
X79515Y-59592D01*
X79547Y-59669D01*
X79606Y-59728D01*
X79683Y-59760D01*
X79740Y-59760D01*
X79740Y-60078D01*
X79712Y-60090D01*
X79653Y-60149D01*
X79621Y-60226D01*
X79621Y-60310D01*
X79621Y-60604D01*
X79653Y-60681D01*
X79712Y-60740D01*
X79736Y-60750D01*
X79712Y-60760D01*
X79653Y-60819D01*
X79621Y-60896D01*
X79621Y-60980D01*
X79621Y-61274D01*
X79649Y-61341D01*
X79615Y-61423D01*
X79615Y-61576D01*
X79673Y-61718D01*
X79782Y-61826D01*
X79923Y-61885D01*
X80076Y-61885D01*
X80218Y-61827D01*
X80249Y-61795D01*
X80260Y-61850D01*
X80316Y-61934D01*
X80564Y-62181D01*
X80566Y-62184D01*
X80597Y-62215D01*
X79500Y-62215D01*
X79391Y-62237D01*
X79298Y-62298D01*
X79237Y-62391D01*
X79215Y-62500D01*
X79215Y-63250D01*
X79237Y-63359D01*
X79298Y-63452D01*
X79391Y-63513D01*
X79500Y-63535D01*
X87500Y-63535D01*
X87609Y-63513D01*
X87702Y-63452D01*
X87763Y-63359D01*
X87785Y-63250D01*
X87785Y-62503D01*
X87785Y-62502D01*
X87849Y-62490D01*
X87850Y-62490D01*
X87934Y-62434D01*
X88934Y-61434D01*
X88990Y-61350D01*
X88990Y-61349D01*
X89010Y-61250D01*
X89010Y-60000D01*
X89010Y-58500D01*
X88990Y-58401D01*
X88989Y-58400D01*
X88934Y-58316D01*
X88931Y-58314D01*
X88684Y-58066D01*
X88600Y-58010D01*
X89509Y-58010D01*
X89509Y-58092D01*
X89571Y-58154D01*
X89862Y-58154D01*
X89862Y-58091D01*
X90068Y-58091D01*
X90068Y-58154D01*
X90119Y-58154D01*
X90119Y-58428D01*
X90068Y-58428D01*
X90068Y-58491D01*
X89862Y-58491D01*
X89862Y-58428D01*
X89571Y-58428D01*
X89509Y-58490D01*
X89510Y-58615D01*
X89548Y-58707D01*
X89609Y-58768D01*
X89585Y-58792D01*
X89529Y-58927D01*
X89529Y-59073D01*
X89585Y-59208D01*
X89609Y-59232D01*
X89548Y-59293D01*
X89510Y-59385D01*
X89509Y-59510D01*
X89571Y-59572D01*
X89862Y-59572D01*
X89862Y-59509D01*
X90068Y-59509D01*
X90068Y-59572D01*
X90119Y-59572D01*
X90119Y-59846D01*
X90068Y-59846D01*
X90068Y-60172D01*
X90129Y-60233D01*
X90221Y-60233D01*
X90275Y-60210D01*
X90275Y-60930D01*
X90174Y-61032D01*
X90115Y-61173D01*
X90115Y-61326D01*
X90173Y-61468D01*
X90282Y-61576D01*
X90423Y-61635D01*
X90576Y-61635D01*
X90700Y-61584D01*
X90700Y-63700D01*
X90700Y-63700D01*
G37*
G54D24*
X90700Y-63700D02*
X89862Y-63700D01*
X89862Y-60172D01*
X89862Y-59846D01*
X89571Y-59846D01*
X89509Y-59908D01*
X89510Y-60033D01*
X89548Y-60125D01*
X89618Y-60195D01*
X89709Y-60233D01*
X89801Y-60233D01*
X89862Y-60172D01*
X89862Y-63700D01*
X76300Y-63700D01*
X76300Y-49300D01*
X90700Y-49300D01*
X90700Y-51916D01*
X90577Y-51865D01*
X90424Y-51865D01*
X90282Y-51923D01*
X90174Y-52032D01*
X90115Y-52173D01*
X90115Y-52326D01*
X90173Y-52468D01*
X90275Y-52569D01*
X90275Y-52789D01*
X90221Y-52767D01*
X90129Y-52767D01*
X90068Y-52828D01*
X90068Y-53154D01*
X90119Y-53154D01*
X90119Y-53428D01*
X90068Y-53428D01*
X90068Y-53491D01*
X89862Y-53491D01*
X89862Y-53428D01*
X89862Y-53154D01*
X89862Y-52828D01*
X89801Y-52767D01*
X89709Y-52767D01*
X89618Y-52805D01*
X89548Y-52875D01*
X89510Y-52967D01*
X89509Y-53092D01*
X89571Y-53154D01*
X89862Y-53154D01*
X89862Y-53428D01*
X89571Y-53428D01*
X89509Y-53490D01*
X89510Y-53615D01*
X89548Y-53707D01*
X89609Y-53768D01*
X89585Y-53792D01*
X89529Y-53927D01*
X89529Y-54073D01*
X89585Y-54208D01*
X89609Y-54232D01*
X89548Y-54293D01*
X89510Y-54385D01*
X89509Y-54510D01*
X89571Y-54572D01*
X89862Y-54572D01*
X89862Y-54509D01*
X90068Y-54509D01*
X90068Y-54572D01*
X90119Y-54572D01*
X90119Y-54846D01*
X90068Y-54846D01*
X90068Y-55172D01*
X90129Y-55233D01*
X90221Y-55233D01*
X90275Y-55210D01*
X90275Y-55680D01*
X90250Y-55704D01*
X90240Y-55651D01*
X90239Y-55650D01*
X90184Y-55566D01*
X90181Y-55564D01*
X89934Y-55316D01*
X89862Y-55268D01*
X89862Y-55172D01*
X89862Y-54846D01*
X89571Y-54846D01*
X89509Y-54908D01*
X89510Y-55033D01*
X89548Y-55125D01*
X89618Y-55195D01*
X89709Y-55233D01*
X89801Y-55233D01*
X89862Y-55172D01*
X89862Y-55268D01*
X89850Y-55260D01*
X89750Y-55240D01*
X89608Y-55240D01*
X89260Y-54892D01*
X89260Y-52750D01*
X89240Y-52651D01*
X89239Y-52650D01*
X89184Y-52566D01*
X89181Y-52564D01*
X88434Y-51816D01*
X88350Y-51760D01*
X88260Y-51742D01*
X88260Y-51683D01*
X88228Y-51606D01*
X88169Y-51547D01*
X88092Y-51515D01*
X88008Y-51515D01*
X87658Y-51515D01*
X87581Y-51547D01*
X87522Y-51606D01*
X87500Y-51658D01*
X87478Y-51606D01*
X87419Y-51547D01*
X87342Y-51515D01*
X87258Y-51515D01*
X86908Y-51515D01*
X86831Y-51547D01*
X86772Y-51606D01*
X86740Y-51683D01*
X86740Y-51767D01*
X86740Y-52317D01*
X86772Y-52394D01*
X86831Y-52453D01*
X86865Y-52467D01*
X86865Y-52782D01*
X86831Y-52797D01*
X86772Y-52856D01*
X86760Y-52884D01*
X86760Y-52500D01*
X86740Y-52401D01*
X86740Y-52400D01*
X86684Y-52316D01*
X86184Y-51816D01*
X86100Y-51760D01*
X86000Y-51740D01*
X85760Y-51740D01*
X85760Y-51683D01*
X85728Y-51606D01*
X85669Y-51547D01*
X85592Y-51515D01*
X85508Y-51515D01*
X85158Y-51515D01*
X85081Y-51547D01*
X85022Y-51606D01*
X85000Y-51658D01*
X84978Y-51606D01*
X84919Y-51547D01*
X84842Y-51515D01*
X84758Y-51515D01*
X84408Y-51515D01*
X84331Y-51547D01*
X84272Y-51606D01*
X84240Y-51683D01*
X84240Y-51767D01*
X84240Y-52317D01*
X84272Y-52394D01*
X84331Y-52453D01*
X84365Y-52467D01*
X84365Y-52782D01*
X84331Y-52797D01*
X84272Y-52856D01*
X84240Y-52933D01*
X84240Y-53017D01*
X84240Y-53567D01*
X84272Y-53644D01*
X84331Y-53703D01*
X84408Y-53735D01*
X84492Y-53735D01*
X84842Y-53735D01*
X84919Y-53703D01*
X84978Y-53644D01*
X84978Y-53641D01*
X84989Y-53666D01*
X85059Y-53736D01*
X85151Y-53774D01*
X85226Y-53775D01*
X85288Y-53713D01*
X85288Y-53387D01*
X85200Y-53387D01*
X85200Y-53113D01*
X85288Y-53113D01*
X85288Y-52787D01*
X85226Y-52725D01*
X85151Y-52726D01*
X85059Y-52764D01*
X84989Y-52834D01*
X84978Y-52856D01*
X84919Y-52797D01*
X84885Y-52782D01*
X84885Y-52467D01*
X84919Y-52453D01*
X84978Y-52394D01*
X85000Y-52341D01*
X85022Y-52394D01*
X85081Y-52453D01*
X85158Y-52485D01*
X85242Y-52485D01*
X85592Y-52485D01*
X85669Y-52453D01*
X85728Y-52394D01*
X85760Y-52317D01*
X85760Y-52260D01*
X85892Y-52260D01*
X86240Y-52608D01*
X86240Y-54750D01*
X86240Y-55000D01*
X86260Y-55099D01*
X86316Y-55184D01*
X86401Y-55240D01*
X86500Y-55260D01*
X86599Y-55240D01*
X86613Y-55230D01*
X86990Y-55607D01*
X86990Y-57000D01*
X87010Y-57100D01*
X87066Y-57184D01*
X87314Y-57431D01*
X87316Y-57434D01*
X87400Y-57489D01*
X87401Y-57490D01*
X87500Y-57510D01*
X87618Y-57510D01*
X87597Y-57531D01*
X87565Y-57608D01*
X87565Y-57692D01*
X87565Y-57892D01*
X87597Y-57969D01*
X87628Y-58000D01*
X87597Y-58031D01*
X87565Y-58108D01*
X87565Y-58192D01*
X87565Y-58392D01*
X87597Y-58469D01*
X87628Y-58500D01*
X87597Y-58531D01*
X87565Y-58608D01*
X87565Y-58692D01*
X87565Y-58892D01*
X87597Y-58969D01*
X87656Y-59028D01*
X87733Y-59060D01*
X87740Y-59060D01*
X87740Y-60000D01*
X87740Y-61142D01*
X87142Y-61740D01*
X86025Y-61740D01*
X86025Y-61274D01*
X85963Y-61212D01*
X85637Y-61212D01*
X85637Y-61488D01*
X85699Y-61550D01*
X85726Y-61549D01*
X85825Y-61549D01*
X85916Y-61511D01*
X85986Y-61441D01*
X86024Y-61349D01*
X86025Y-61274D01*
X86025Y-61740D01*
X83107Y-61740D01*
X83010Y-61642D01*
X83010Y-61510D01*
X83067Y-61510D01*
X83144Y-61478D01*
X83203Y-61419D01*
X83235Y-61342D01*
X83235Y-61258D01*
X83235Y-60908D01*
X83203Y-60831D01*
X83144Y-60772D01*
X83091Y-60750D01*
X83144Y-60728D01*
X83203Y-60669D01*
X83235Y-60592D01*
X83235Y-60508D01*
X83235Y-60158D01*
X83203Y-60081D01*
X83144Y-60022D01*
X83115Y-60010D01*
X83500Y-60010D01*
X83599Y-59990D01*
X83600Y-59990D01*
X83684Y-59934D01*
X83983Y-59635D01*
X84032Y-59635D01*
X84047Y-59669D01*
X84106Y-59728D01*
X84183Y-59760D01*
X84267Y-59760D01*
X84817Y-59760D01*
X84894Y-59728D01*
X84953Y-59669D01*
X84985Y-59592D01*
X84985Y-59508D01*
X84985Y-59158D01*
X84953Y-59081D01*
X84894Y-59022D01*
X84841Y-59000D01*
X84894Y-58978D01*
X84953Y-58919D01*
X84985Y-58842D01*
X84985Y-58758D01*
X84985Y-58408D01*
X84973Y-58380D01*
X85017Y-58336D01*
X85019Y-58346D01*
X85073Y-58427D01*
X85250Y-58603D01*
X85250Y-59455D01*
X85174Y-59532D01*
X85115Y-59673D01*
X85115Y-59826D01*
X85173Y-59968D01*
X85195Y-59990D01*
X85183Y-59990D01*
X85106Y-60022D01*
X85047Y-60081D01*
X85040Y-60096D01*
X84968Y-60024D01*
X84827Y-59965D01*
X84674Y-59965D01*
X84532Y-60023D01*
X84459Y-60096D01*
X84453Y-60081D01*
X84394Y-60022D01*
X84317Y-59990D01*
X84233Y-59990D01*
X83683Y-59990D01*
X83606Y-60022D01*
X83547Y-60081D01*
X83515Y-60158D01*
X83515Y-60242D01*
X83515Y-60592D01*
X83547Y-60669D01*
X83606Y-60728D01*
X83658Y-60750D01*
X83606Y-60772D01*
X83547Y-60831D01*
X83515Y-60908D01*
X83515Y-60992D01*
X83515Y-61342D01*
X83547Y-61419D01*
X83606Y-61478D01*
X83683Y-61510D01*
X83767Y-61510D01*
X84317Y-61510D01*
X84394Y-61478D01*
X84453Y-61419D01*
X84467Y-61385D01*
X84625Y-61385D01*
X84657Y-61378D01*
X84673Y-61385D01*
X84826Y-61385D01*
X84968Y-61327D01*
X84975Y-61319D01*
X84975Y-61375D01*
X84986Y-61375D01*
X85014Y-61441D01*
X85084Y-61511D01*
X85175Y-61549D01*
X85274Y-61549D01*
X85301Y-61550D01*
X85363Y-61488D01*
X85363Y-61212D01*
X85300Y-61212D01*
X85300Y-61038D01*
X85363Y-61038D01*
X85363Y-60950D01*
X85637Y-60950D01*
X85637Y-61038D01*
X85963Y-61038D01*
X86025Y-60976D01*
X86024Y-60901D01*
X85986Y-60809D01*
X85916Y-60739D01*
X85891Y-60728D01*
X85894Y-60728D01*
X85953Y-60669D01*
X85985Y-60592D01*
X85985Y-60508D01*
X85985Y-60279D01*
X86032Y-60326D01*
X86173Y-60385D01*
X86326Y-60385D01*
X86392Y-60357D01*
X86365Y-60423D01*
X86365Y-60576D01*
X86423Y-60718D01*
X86532Y-60826D01*
X86673Y-60885D01*
X86826Y-60885D01*
X86968Y-60827D01*
X87076Y-60718D01*
X87135Y-60577D01*
X87135Y-60424D01*
X87107Y-60357D01*
X87173Y-60385D01*
X87326Y-60385D01*
X87468Y-60327D01*
X87576Y-60218D01*
X87635Y-60077D01*
X87635Y-59924D01*
X87577Y-59782D01*
X87510Y-59715D01*
X87510Y-58750D01*
X87490Y-58651D01*
X87490Y-58650D01*
X87434Y-58566D01*
X86434Y-57566D01*
X86350Y-57510D01*
X86276Y-57495D01*
X86303Y-57469D01*
X86335Y-57392D01*
X86335Y-57308D01*
X86335Y-57108D01*
X86303Y-57031D01*
X86272Y-57000D01*
X86303Y-56969D01*
X86335Y-56892D01*
X86335Y-56808D01*
X86335Y-56608D01*
X86303Y-56531D01*
X86272Y-56500D01*
X86303Y-56469D01*
X86335Y-56392D01*
X86335Y-56308D01*
X86335Y-56108D01*
X86303Y-56031D01*
X86272Y-56000D01*
X86303Y-55969D01*
X86335Y-55892D01*
X86335Y-55808D01*
X86335Y-55608D01*
X86303Y-55531D01*
X86244Y-55472D01*
X86167Y-55440D01*
X86083Y-55440D01*
X85800Y-55440D01*
X85800Y-53449D01*
X85800Y-53051D01*
X85799Y-53024D01*
X85799Y-52925D01*
X85761Y-52834D01*
X85691Y-52764D01*
X85599Y-52726D01*
X85524Y-52725D01*
X85462Y-52787D01*
X85462Y-53113D01*
X85738Y-53113D01*
X85800Y-53051D01*
X85800Y-53449D01*
X85738Y-53387D01*
X85462Y-53387D01*
X85462Y-53713D01*
X85524Y-53775D01*
X85599Y-53774D01*
X85691Y-53736D01*
X85761Y-53666D01*
X85799Y-53575D01*
X85799Y-53476D01*
X85800Y-53449D01*
X85800Y-55440D01*
X85633Y-55440D01*
X85556Y-55472D01*
X85538Y-55490D01*
X85485Y-55490D01*
X85485Y-55158D01*
X85453Y-55081D01*
X85394Y-55022D01*
X85391Y-55021D01*
X85416Y-55011D01*
X85486Y-54941D01*
X85524Y-54849D01*
X85525Y-54774D01*
X85525Y-54476D01*
X85524Y-54401D01*
X85486Y-54309D01*
X85416Y-54239D01*
X85325Y-54201D01*
X85226Y-54201D01*
X85199Y-54200D01*
X85137Y-54262D01*
X85137Y-54538D01*
X85463Y-54538D01*
X85525Y-54476D01*
X85525Y-54774D01*
X85463Y-54712D01*
X85137Y-54712D01*
X85137Y-54800D01*
X84863Y-54800D01*
X84863Y-54712D01*
X84863Y-54538D01*
X84863Y-54262D01*
X84801Y-54200D01*
X84774Y-54201D01*
X84675Y-54201D01*
X84584Y-54239D01*
X84514Y-54309D01*
X84476Y-54401D01*
X84475Y-54476D01*
X84537Y-54538D01*
X84863Y-54538D01*
X84863Y-54712D01*
X84537Y-54712D01*
X84475Y-54774D01*
X84476Y-54849D01*
X84514Y-54941D01*
X84584Y-55011D01*
X84608Y-55021D01*
X84606Y-55022D01*
X84547Y-55081D01*
X84532Y-55115D01*
X84217Y-55115D01*
X84203Y-55081D01*
X84144Y-55022D01*
X84141Y-55021D01*
X84166Y-55011D01*
X84236Y-54941D01*
X84274Y-54849D01*
X84275Y-54774D01*
X84275Y-54476D01*
X84274Y-54401D01*
X84236Y-54309D01*
X84166Y-54239D01*
X84075Y-54201D01*
X83976Y-54201D01*
X83949Y-54200D01*
X83887Y-54262D01*
X83887Y-54538D01*
X84213Y-54538D01*
X84275Y-54476D01*
X84275Y-54774D01*
X84213Y-54712D01*
X83887Y-54712D01*
X83887Y-54800D01*
X83613Y-54800D01*
X83613Y-54712D01*
X83550Y-54712D01*
X83550Y-54538D01*
X83613Y-54538D01*
X83613Y-54262D01*
X83551Y-54200D01*
X83524Y-54201D01*
X83425Y-54201D01*
X83350Y-54232D01*
X83300Y-54182D01*
X83300Y-53449D01*
X83300Y-53051D01*
X83299Y-53024D01*
X83299Y-52925D01*
X83261Y-52834D01*
X83191Y-52764D01*
X83099Y-52726D01*
X83024Y-52725D01*
X82962Y-52787D01*
X82962Y-53113D01*
X83238Y-53113D01*
X83300Y-53051D01*
X83300Y-53449D01*
X83238Y-53387D01*
X82962Y-53387D01*
X82962Y-53713D01*
X83024Y-53775D01*
X83099Y-53774D01*
X83191Y-53736D01*
X83261Y-53666D01*
X83299Y-53575D01*
X83299Y-53476D01*
X83300Y-53449D01*
X83300Y-54182D01*
X82934Y-53816D01*
X82850Y-53760D01*
X82759Y-53741D01*
X82788Y-53713D01*
X82788Y-53387D01*
X82700Y-53387D01*
X82700Y-53113D01*
X82788Y-53113D01*
X82788Y-52787D01*
X82726Y-52725D01*
X82651Y-52726D01*
X82559Y-52764D01*
X82489Y-52834D01*
X82478Y-52856D01*
X82419Y-52797D01*
X82385Y-52782D01*
X82385Y-52467D01*
X82419Y-52453D01*
X82478Y-52394D01*
X82500Y-52341D01*
X82522Y-52394D01*
X82581Y-52453D01*
X82658Y-52485D01*
X82742Y-52485D01*
X83092Y-52485D01*
X83169Y-52453D01*
X83228Y-52394D01*
X83260Y-52317D01*
X83260Y-52233D01*
X83260Y-51683D01*
X83237Y-51630D01*
X83358Y-51510D01*
X88392Y-51510D01*
X88615Y-51733D01*
X88615Y-51826D01*
X88673Y-51968D01*
X88782Y-52076D01*
X88923Y-52135D01*
X89076Y-52135D01*
X89218Y-52077D01*
X89326Y-51968D01*
X89385Y-51827D01*
X89385Y-51674D01*
X89327Y-51532D01*
X89218Y-51424D01*
X89077Y-51365D01*
X88983Y-51365D01*
X88878Y-51260D01*
X88965Y-51260D01*
X89032Y-51326D01*
X89173Y-51385D01*
X89326Y-51385D01*
X89468Y-51327D01*
X89576Y-51218D01*
X89635Y-51077D01*
X89635Y-50924D01*
X89577Y-50782D01*
X89468Y-50674D01*
X89327Y-50615D01*
X89174Y-50615D01*
X89032Y-50673D01*
X88965Y-50740D01*
X87644Y-50740D01*
X87702Y-50702D01*
X87763Y-50609D01*
X87785Y-50500D01*
X87785Y-49750D01*
X87763Y-49641D01*
X87702Y-49548D01*
X87609Y-49487D01*
X87500Y-49465D01*
X79500Y-49465D01*
X79391Y-49487D01*
X79298Y-49548D01*
X79237Y-49641D01*
X79215Y-49750D01*
X79215Y-50500D01*
X79237Y-50609D01*
X79298Y-50702D01*
X79391Y-50763D01*
X79500Y-50785D01*
X80613Y-50785D01*
X80566Y-50816D01*
X79867Y-51515D01*
X79658Y-51515D01*
X79581Y-51547D01*
X79522Y-51606D01*
X79500Y-51658D01*
X79478Y-51606D01*
X79419Y-51547D01*
X79342Y-51515D01*
X79258Y-51515D01*
X78908Y-51515D01*
X78831Y-51547D01*
X78772Y-51606D01*
X78740Y-51683D01*
X78740Y-51767D01*
X78740Y-52317D01*
X78772Y-52394D01*
X78831Y-52453D01*
X78865Y-52467D01*
X78865Y-52782D01*
X78831Y-52797D01*
X78772Y-52856D01*
X78740Y-52933D01*
X78740Y-53017D01*
X78740Y-53567D01*
X78772Y-53644D01*
X78831Y-53703D01*
X78908Y-53735D01*
X78992Y-53735D01*
X79342Y-53735D01*
X79419Y-53703D01*
X79478Y-53644D01*
X79478Y-53641D01*
X79489Y-53666D01*
X79559Y-53736D01*
X79651Y-53774D01*
X79726Y-53775D01*
X79788Y-53713D01*
X79788Y-53387D01*
X79700Y-53387D01*
X79700Y-53113D01*
X79788Y-53113D01*
X79788Y-52787D01*
X79726Y-52725D01*
X79651Y-52726D01*
X79559Y-52764D01*
X79489Y-52834D01*
X79478Y-52856D01*
X79419Y-52797D01*
X79385Y-52782D01*
X79385Y-52467D01*
X79419Y-52453D01*
X79478Y-52394D01*
X79500Y-52341D01*
X79522Y-52394D01*
X79581Y-52453D01*
X79658Y-52485D01*
X79742Y-52485D01*
X80092Y-52485D01*
X80169Y-52453D01*
X80228Y-52394D01*
X80260Y-52317D01*
X80260Y-52233D01*
X80260Y-51858D01*
X80858Y-51260D01*
X82872Y-51260D01*
X82691Y-51441D01*
X82635Y-51524D01*
X82581Y-51547D01*
X82522Y-51606D01*
X82500Y-51658D01*
X82478Y-51606D01*
X82419Y-51547D01*
X82342Y-51515D01*
X82258Y-51515D01*
X81908Y-51515D01*
X81831Y-51547D01*
X81772Y-51606D01*
X81740Y-51683D01*
X81740Y-51767D01*
X81740Y-52317D01*
X81772Y-52394D01*
X81831Y-52453D01*
X81865Y-52467D01*
X81865Y-52782D01*
X81831Y-52797D01*
X81772Y-52856D01*
X81740Y-52933D01*
X81740Y-53017D01*
X81740Y-53567D01*
X81772Y-53644D01*
X81831Y-53703D01*
X81908Y-53735D01*
X81992Y-53735D01*
X82342Y-53735D01*
X82419Y-53703D01*
X82478Y-53644D01*
X82478Y-53641D01*
X82489Y-53666D01*
X82559Y-53736D01*
X82568Y-53740D01*
X80784Y-53740D01*
X80718Y-53674D01*
X80577Y-53615D01*
X80424Y-53615D01*
X80300Y-53665D01*
X80300Y-53449D01*
X80300Y-53051D01*
X80299Y-53024D01*
X80299Y-52925D01*
X80261Y-52834D01*
X80191Y-52764D01*
X80099Y-52726D01*
X80024Y-52725D01*
X79962Y-52787D01*
X79962Y-53113D01*
X80238Y-53113D01*
X80300Y-53051D01*
X80300Y-53449D01*
X80238Y-53387D01*
X79962Y-53387D01*
X79962Y-53713D01*
X80024Y-53775D01*
X80099Y-53774D01*
X80191Y-53736D01*
X80261Y-53666D01*
X80299Y-53575D01*
X80299Y-53476D01*
X80300Y-53449D01*
X80300Y-53665D01*
X80282Y-53673D01*
X80174Y-53782D01*
X80115Y-53923D01*
X80115Y-54076D01*
X80173Y-54218D01*
X80282Y-54326D01*
X80423Y-54385D01*
X80576Y-54385D01*
X80718Y-54327D01*
X80784Y-54260D01*
X82063Y-54260D01*
X82014Y-54309D01*
X81976Y-54401D01*
X81975Y-54476D01*
X82037Y-54538D01*
X82363Y-54538D01*
X82363Y-54450D01*
X82637Y-54450D01*
X82637Y-54538D01*
X82700Y-54538D01*
X82700Y-54712D01*
X82637Y-54712D01*
X82637Y-54800D01*
X82363Y-54800D01*
X82363Y-54712D01*
X82037Y-54712D01*
X81975Y-54774D01*
X81976Y-54849D01*
X82014Y-54941D01*
X82084Y-55011D01*
X82108Y-55021D01*
X82106Y-55022D01*
X82047Y-55081D01*
X82015Y-55158D01*
X82015Y-55242D01*
X82015Y-55592D01*
X82047Y-55669D01*
X82106Y-55728D01*
X82183Y-55760D01*
X82242Y-55760D01*
X82260Y-55850D01*
X82316Y-55934D01*
X82473Y-56091D01*
X82421Y-56113D01*
X82362Y-56172D01*
X82330Y-56249D01*
X82330Y-56333D01*
X82330Y-56727D01*
X82362Y-56804D01*
X82421Y-56863D01*
X82498Y-56895D01*
X82582Y-56895D01*
X83172Y-56895D01*
X83249Y-56863D01*
X83308Y-56804D01*
X83331Y-56748D01*
X83380Y-56748D01*
X83439Y-56806D01*
X83441Y-56809D01*
X83523Y-56863D01*
X83524Y-56863D01*
X83547Y-56919D01*
X83606Y-56978D01*
X83658Y-57000D01*
X83606Y-57022D01*
X83547Y-57081D01*
X83524Y-57136D01*
X83523Y-57136D01*
X83441Y-57191D01*
X83439Y-57193D01*
X83380Y-57252D01*
X83331Y-57252D01*
X83308Y-57196D01*
X83249Y-57137D01*
X83172Y-57105D01*
X83088Y-57105D01*
X82498Y-57105D01*
X82421Y-57137D01*
X82362Y-57196D01*
X82330Y-57273D01*
X82330Y-57357D01*
X82330Y-57663D01*
X82323Y-57670D01*
X82269Y-57751D01*
X82250Y-57847D01*
X82250Y-58240D01*
X82183Y-58240D01*
X82106Y-58272D01*
X82047Y-58331D01*
X82015Y-58408D01*
X82015Y-58492D01*
X82015Y-58842D01*
X82047Y-58919D01*
X82106Y-58978D01*
X82084Y-58989D01*
X82014Y-59059D01*
X81986Y-59125D01*
X81975Y-59125D01*
X81975Y-59226D01*
X81975Y-59358D01*
X80496Y-57879D01*
X80534Y-57879D01*
X80611Y-57847D01*
X80670Y-57788D01*
X80702Y-57711D01*
X80702Y-57627D01*
X80702Y-56289D01*
X80670Y-56212D01*
X80611Y-56153D01*
X80534Y-56121D01*
X80450Y-56121D01*
X79466Y-56121D01*
X79389Y-56153D01*
X79330Y-56212D01*
X79298Y-56289D01*
X79298Y-56373D01*
X79298Y-57711D01*
X79310Y-57740D01*
X78534Y-57740D01*
X78468Y-57674D01*
X78327Y-57615D01*
X78174Y-57615D01*
X78032Y-57673D01*
X77924Y-57782D01*
X77865Y-57923D01*
X77865Y-58076D01*
X77923Y-58218D01*
X78032Y-58326D01*
X78173Y-58385D01*
X78326Y-58385D01*
X78468Y-58327D01*
X78534Y-58260D01*
X79634Y-58260D01*
X79606Y-58272D01*
X79547Y-58331D01*
X79529Y-58374D01*
X79528Y-58374D01*
X79476Y-58385D01*
X79391Y-58441D01*
X79389Y-58443D01*
X78759Y-59073D01*
X78759Y-58899D01*
X78682Y-58712D01*
X78538Y-58569D01*
X78351Y-58491D01*
X78149Y-58491D01*
X77962Y-58568D01*
X77819Y-58712D01*
X77776Y-58814D01*
X77774Y-58804D01*
X77691Y-58771D01*
X77479Y-58983D01*
X77479Y-58559D01*
X77446Y-58476D01*
X77230Y-58441D01*
X77054Y-58476D01*
X77021Y-58559D01*
X77250Y-58788D01*
X77479Y-58559D01*
X77479Y-58983D01*
X77462Y-59000D01*
X77691Y-59229D01*
X77774Y-59196D01*
X77775Y-59185D01*
X77818Y-59288D01*
X77962Y-59431D01*
X78127Y-59499D01*
X77962Y-59568D01*
X77819Y-59712D01*
X77750Y-59877D01*
X77682Y-59712D01*
X77538Y-59569D01*
X77435Y-59526D01*
X77446Y-59524D01*
X77479Y-59441D01*
X77250Y-59212D01*
X77038Y-59424D01*
X77038Y-59000D01*
X76809Y-58771D01*
X76726Y-58804D01*
X76691Y-59020D01*
X76726Y-59196D01*
X76809Y-59229D01*
X77038Y-59000D01*
X77038Y-59424D01*
X77021Y-59441D01*
X77054Y-59524D01*
X77064Y-59525D01*
X76962Y-59568D01*
X76819Y-59712D01*
X76807Y-59740D01*
X76750Y-59740D01*
X76651Y-59760D01*
X76566Y-59816D01*
X76510Y-59901D01*
X76490Y-60000D01*
X76490Y-61715D01*
X76424Y-61782D01*
X76365Y-61923D01*
X76365Y-62076D01*
X76423Y-62218D01*
X76532Y-62326D01*
X76673Y-62385D01*
X76826Y-62385D01*
X76968Y-62327D01*
X77076Y-62218D01*
X77135Y-62077D01*
X77135Y-61924D01*
X77077Y-61782D01*
X77010Y-61715D01*
X77010Y-61451D01*
X77149Y-61509D01*
X77351Y-61509D01*
X77538Y-61432D01*
X77681Y-61288D01*
X77740Y-61146D01*
X77740Y-61342D01*
X77772Y-61419D01*
X77831Y-61478D01*
X77908Y-61510D01*
X77992Y-61510D01*
X78592Y-61510D01*
X78669Y-61478D01*
X78728Y-61419D01*
X78760Y-61342D01*
X78760Y-61258D01*
X78760Y-60658D01*
X78728Y-60581D01*
X78669Y-60522D01*
X78592Y-60490D01*
X78508Y-60490D01*
X78397Y-60490D01*
X78538Y-60432D01*
X78681Y-60288D01*
X78759Y-60101D01*
X78759Y-59899D01*
X78732Y-59835D01*
X79597Y-58969D01*
X79606Y-58978D01*
X79658Y-59000D01*
X79606Y-59022D01*
X79547Y-59081D01*
X79515Y-59158D01*
X79515Y-59242D01*
X79515Y-59592D01*
X79547Y-59669D01*
X79606Y-59728D01*
X79683Y-59760D01*
X79740Y-59760D01*
X79740Y-60078D01*
X79712Y-60090D01*
X79653Y-60149D01*
X79621Y-60226D01*
X79621Y-60310D01*
X79621Y-60604D01*
X79653Y-60681D01*
X79712Y-60740D01*
X79736Y-60750D01*
X79712Y-60760D01*
X79653Y-60819D01*
X79621Y-60896D01*
X79621Y-60980D01*
X79621Y-61274D01*
X79649Y-61341D01*
X79615Y-61423D01*
X79615Y-61576D01*
X79673Y-61718D01*
X79782Y-61826D01*
X79923Y-61885D01*
X80076Y-61885D01*
X80218Y-61827D01*
X80249Y-61795D01*
X80260Y-61850D01*
X80316Y-61934D01*
X80564Y-62181D01*
X80566Y-62184D01*
X80597Y-62215D01*
X79500Y-62215D01*
X79391Y-62237D01*
X79298Y-62298D01*
X79237Y-62391D01*
X79215Y-62500D01*
X79215Y-63250D01*
X79237Y-63359D01*
X79298Y-63452D01*
X79391Y-63513D01*
X79500Y-63535D01*
X87500Y-63535D01*
X87609Y-63513D01*
X87702Y-63452D01*
X87763Y-63359D01*
X87785Y-63250D01*
X87785Y-62503D01*
X87785Y-62502D01*
X87849Y-62490D01*
X87850Y-62490D01*
X87934Y-62434D01*
X88934Y-61434D01*
X88990Y-61350D01*
X88990Y-61349D01*
X89010Y-61250D01*
X89010Y-60000D01*
X89010Y-58500D01*
X88990Y-58401D01*
X88989Y-58400D01*
X88934Y-58316D01*
X88931Y-58314D01*
X88684Y-58066D01*
X88600Y-58010D01*
X89509Y-58010D01*
X89509Y-58092D01*
X89571Y-58154D01*
X89862Y-58154D01*
X89862Y-58091D01*
X90068Y-58091D01*
X90068Y-58154D01*
X90119Y-58154D01*
X90119Y-58428D01*
X90068Y-58428D01*
X90068Y-58491D01*
X89862Y-58491D01*
X89862Y-58428D01*
X89571Y-58428D01*
X89509Y-58490D01*
X89510Y-58615D01*
X89548Y-58707D01*
X89609Y-58768D01*
X89585Y-58792D01*
X89529Y-58927D01*
X89529Y-59073D01*
X89585Y-59208D01*
X89609Y-59232D01*
X89548Y-59293D01*
X89510Y-59385D01*
X89509Y-59510D01*
X89571Y-59572D01*
X89862Y-59572D01*
X89862Y-59509D01*
X90068Y-59509D01*
X90068Y-59572D01*
X90119Y-59572D01*
X90119Y-59846D01*
X90068Y-59846D01*
X90068Y-60172D01*
X90129Y-60233D01*
X90221Y-60233D01*
X90275Y-60210D01*
X90275Y-60930D01*
X90174Y-61032D01*
X90115Y-61173D01*
X90115Y-61326D01*
X90173Y-61468D01*
X90282Y-61576D01*
X90423Y-61635D01*
X90576Y-61635D01*
X90700Y-61584D01*
X90700Y-63700D01*
M02*
