G04 (created by PCBNEW-RS274X (2011-nov-30)-testing) date Mon 10 Sep 2012 05:33:44 PM EDT*
%MOIN*%
G04 Gerber Fmt 3.4, Leading zero omitted, Abs format*
%FSLAX34Y34*%
G01*
G70*
G90*
G04 APERTURE LIST*
%ADD10C,0.006*%
%ADD11C,0.015*%
%ADD12R,0.075X0.055*%
%ADD13R,0.0791X0.0594*%
%ADD14R,0.1184X0.1539*%
%ADD15C,0.0515*%
%ADD16R,0.0613X0.0751*%
%ADD17R,0.065X0.04*%
%ADD18R,0.055X0.075*%
%ADD19R,0.0594X0.0495*%
%ADD20R,0.08X0.08*%
%ADD21C,0.08*%
G04 APERTURE END LIST*
G54D10*
G54D11*
X79500Y-62500D02*
X87500Y-62500D01*
X87500Y-62500D02*
X87500Y-63250D01*
X87500Y-63250D02*
X79500Y-63250D01*
X79500Y-63250D02*
X79500Y-62500D01*
X79500Y-50500D02*
X79500Y-49750D01*
X87500Y-50500D02*
X79500Y-50500D01*
X87500Y-49750D02*
X87500Y-50500D01*
X79500Y-49750D02*
X87500Y-49750D01*
X91000Y-64000D02*
X91000Y-49000D01*
X76000Y-64000D02*
X91000Y-64000D01*
X76000Y-49000D02*
X76000Y-64000D01*
X76000Y-64000D02*
X76000Y-49000D01*
X76000Y-49000D02*
X91000Y-49000D01*
G54D12*
X84000Y-57375D03*
X84000Y-56625D03*
X84500Y-58625D03*
X84500Y-59375D03*
X85000Y-55375D03*
X85000Y-54625D03*
X83750Y-55375D03*
X83750Y-54625D03*
X82500Y-55375D03*
X82500Y-54625D03*
G54D13*
X82835Y-57512D03*
X82835Y-56488D03*
G54D14*
X80000Y-57000D03*
G54D15*
X90604Y-59000D03*
G54D16*
X89965Y-58291D03*
X90535Y-59709D03*
X90535Y-58291D03*
X89965Y-59709D03*
G54D15*
X89896Y-59000D03*
X90604Y-54000D03*
G54D16*
X89965Y-53291D03*
X90535Y-54709D03*
X90535Y-53291D03*
X89965Y-54709D03*
G54D15*
X89896Y-54000D03*
G54D17*
X85900Y-55750D03*
X85900Y-56250D03*
X85900Y-56750D03*
X85900Y-57250D03*
X85900Y-57750D03*
X85900Y-58250D03*
X85900Y-58750D03*
X88000Y-58750D03*
X88000Y-58250D03*
X88000Y-57750D03*
X88000Y-57250D03*
X88000Y-56750D03*
X88000Y-56250D03*
X88000Y-55750D03*
G54D18*
X79875Y-53000D03*
X79125Y-53000D03*
G54D12*
X85500Y-60375D03*
X85500Y-61125D03*
G54D18*
X87875Y-53000D03*
X87125Y-53000D03*
X85375Y-53000D03*
X84625Y-53000D03*
X82875Y-53000D03*
X82125Y-53000D03*
G54D12*
X84000Y-61125D03*
X84000Y-60375D03*
X82750Y-61125D03*
X82750Y-60375D03*
X80000Y-58625D03*
X80000Y-59375D03*
G54D18*
X79875Y-52000D03*
X79125Y-52000D03*
X82875Y-52000D03*
X82125Y-52000D03*
X85375Y-52000D03*
X84625Y-52000D03*
X87875Y-52000D03*
X87125Y-52000D03*
G54D12*
X82500Y-58625D03*
X82500Y-59375D03*
G54D19*
X80028Y-61085D03*
X80028Y-60415D03*
X80972Y-60415D03*
X80972Y-61085D03*
G54D20*
X78250Y-61000D03*
G54D21*
X77250Y-61000D03*
X78250Y-60000D03*
X77250Y-60000D03*
X78250Y-59000D03*
X77250Y-59000D03*
M02*
