M48
;DRILL file {Pcbnew (2011-nov-30)-testing} date Mon 10 Sep 2012 05:33:58 PM EDT
;FORMAT={2:4/ absolute / inch / suppress trailing zeros}
FMAT,2
INCH,LZ
T1C0.025
T2C0.029
T3C0.040
%
G90
G05
M72
T1
X07675Y-062
X07825Y-058
X07975Y-0545
X08Y-0615
X0805Y-054
X081675Y-061075
X082Y-0616
X08325Y-05825
X08475Y-06035
X08475Y-061
X0855Y-05975
X08625Y-052
X08625Y-06
X0865Y-06125
X08675Y-0605
X087Y-05425
X08725Y-06
X08775Y-05425
X089Y-05175
X089Y-05675
X08925Y-051
X0895Y-05625
X09Y-062
X0905Y-05225
X0905Y-056
X0905Y-05725
X0905Y-06125
T2
X089896Y-054
X089896Y-059
X090604Y-054
X090604Y-059
T3
X07725Y-059
X07725Y-06
X07725Y-061
X07825Y-059
X07825Y-06
X07825Y-061
T0
M30
