M48
;DRILL file {Pcbnew (2011-nov-30)-testing} date Sun 09 Sep 2012 01:24:24 PM EDT
;FORMAT={-:-/ absolute / inch / decimal}
FMAT,2
INCH,TZ
T1C0.025
T2C0.029
T3C0.040
%
G90
G05
M72
T1
X7.675Y-6.2
X7.825Y-5.8
X7.975Y-5.45
X8.Y-6.15
X8.05Y-5.4
X8.1675Y-6.1075
X8.2Y-6.16
X8.325Y-5.825
X8.475Y-6.035
X8.475Y-6.1
X8.55Y-5.975
X8.625Y-6.
X8.65Y-6.125
X8.675Y-6.05
X8.725Y-6.
X8.775Y-5.425
X8.9Y-5.175
X8.9Y-5.675
X8.925Y-5.1
X8.95Y-5.625
X9.Y-6.2
X9.05Y-5.225
X9.05Y-5.6
X9.05Y-5.725
X9.05Y-6.125
T2
X8.9896Y-5.4
X8.9896Y-5.9
X9.0604Y-5.4
X9.0604Y-5.9
T3
X7.725Y-5.9
X7.725Y-6.
X7.725Y-6.1
X7.825Y-5.9
X7.825Y-6.
X7.825Y-6.1
T0
M30
