G04 (created by PCBNEW-RS274X (2011-nov-30)-testing) date Mon 10 Sep 2012 05:33:44 PM EDT*
%MOIN*%
G04 Gerber Fmt 3.4, Leading zero omitted, Abs format*
%FSLAX34Y34*%
G01*
G70*
G90*
G04 APERTURE LIST*
%ADD10C,0.006*%
%ADD11C,0.015*%
%ADD12C,0.0315*%
%ADD13R,0.13X0.13*%
%ADD14R,0.2X0.2*%
%ADD15R,0.06X0.06*%
%ADD16C,0.06*%
%ADD17C,0.035*%
%ADD18C,0.008*%
%ADD19C,0.01*%
G04 APERTURE END LIST*
G54D10*
G54D11*
X79500Y-62500D02*
X87500Y-62500D01*
X87500Y-62500D02*
X87500Y-63250D01*
X87500Y-63250D02*
X79500Y-63250D01*
X79500Y-63250D02*
X79500Y-62500D01*
X79500Y-50500D02*
X79500Y-49750D01*
X87500Y-50500D02*
X79500Y-50500D01*
X87500Y-49750D02*
X87500Y-50500D01*
X79500Y-49750D02*
X87500Y-49750D01*
X91000Y-64000D02*
X91000Y-49000D01*
X76000Y-64000D02*
X91000Y-64000D01*
X76000Y-49000D02*
X76000Y-64000D01*
X76000Y-64000D02*
X76000Y-49000D01*
X76000Y-49000D02*
X91000Y-49000D01*
G54D12*
X90604Y-59000D03*
X89896Y-59000D03*
X90604Y-54000D03*
X89896Y-54000D03*
G54D13*
X87500Y-56500D03*
X79500Y-56500D03*
G54D14*
X83500Y-56500D03*
G54D15*
X78250Y-61000D03*
G54D16*
X77250Y-61000D03*
X78250Y-60000D03*
X77250Y-60000D03*
X78250Y-59000D03*
X77250Y-59000D03*
G54D17*
X85500Y-59750D03*
X87750Y-54250D03*
X83250Y-58250D03*
X79750Y-54500D03*
X86500Y-61250D03*
X90000Y-62000D03*
X89500Y-56250D03*
X89250Y-51000D03*
X89000Y-56750D03*
X89000Y-51750D03*
X87000Y-54250D03*
X86250Y-52000D03*
X82000Y-61600D03*
X76750Y-62000D03*
X86250Y-60000D03*
X84750Y-61000D03*
X84750Y-60350D03*
X81675Y-61075D03*
X90500Y-52250D03*
X90500Y-56000D03*
X87250Y-60000D03*
X90500Y-57250D03*
X90500Y-61250D03*
X86750Y-60500D03*
X78250Y-58000D03*
X80000Y-61500D03*
X80500Y-54000D03*
G54D18*
X85500Y-59750D02*
X84750Y-59000D01*
G54D19*
X78250Y-59000D02*
X80750Y-59000D01*
G54D18*
X84750Y-59000D02*
X80750Y-59000D01*
G54D19*
X87750Y-54250D02*
X86750Y-55250D01*
X86750Y-55250D02*
X84750Y-55250D01*
X84750Y-55250D02*
X83500Y-56500D01*
X83500Y-56500D02*
X83500Y-58000D01*
X83500Y-58000D02*
X83250Y-58250D01*
X83500Y-56500D02*
X81750Y-56500D01*
X81750Y-56500D02*
X79750Y-54500D01*
X86500Y-61250D02*
X87250Y-62000D01*
X87250Y-62000D02*
X90000Y-62000D01*
X89500Y-56250D02*
X89500Y-54500D01*
X89250Y-51000D02*
X89500Y-51250D01*
X89500Y-51250D02*
X89500Y-54500D01*
X89000Y-51750D02*
X89000Y-56750D01*
G54D18*
X86250Y-53500D02*
X87000Y-54250D01*
X86250Y-52000D02*
X86250Y-53500D01*
G54D19*
X78250Y-61000D02*
X80750Y-61000D01*
X81350Y-61600D02*
X82000Y-61600D01*
X80750Y-61000D02*
X81350Y-61600D01*
X76750Y-62000D02*
X77500Y-62000D01*
X84750Y-61000D02*
X85250Y-61000D01*
X85250Y-61000D02*
X86250Y-60000D01*
X83750Y-62000D02*
X84750Y-61000D01*
X77500Y-62000D02*
X83750Y-62000D01*
X82400Y-60350D02*
X84750Y-60350D01*
X81675Y-61075D02*
X82400Y-60350D01*
X90500Y-56000D02*
X90500Y-55250D01*
X90500Y-52750D02*
X90500Y-52250D01*
X90250Y-53000D02*
X90500Y-52750D01*
X90250Y-55000D02*
X90250Y-53000D01*
X90500Y-55250D02*
X90250Y-55000D01*
X89250Y-57250D02*
X90500Y-56000D01*
X89250Y-59750D02*
X89250Y-57250D01*
X89000Y-60000D02*
X89250Y-59750D01*
X87250Y-60000D02*
X89000Y-60000D01*
X90500Y-60750D02*
X90500Y-61250D01*
X90250Y-60500D02*
X90500Y-60750D01*
X90250Y-57500D02*
X90250Y-60500D01*
X90500Y-57250D02*
X90250Y-57500D01*
X87500Y-61250D02*
X90500Y-61250D01*
X86750Y-60500D02*
X87500Y-61250D01*
G54D10*
G36*
X90700Y-63700D02*
X86700Y-63700D01*
X86650Y-63700D01*
X76300Y-63700D01*
X76300Y-49300D01*
X90700Y-49300D01*
X90700Y-51915D01*
X90577Y-51865D01*
X90424Y-51864D01*
X90282Y-51923D01*
X90173Y-52031D01*
X90115Y-52173D01*
X90114Y-52326D01*
X90173Y-52468D01*
X90240Y-52535D01*
X90240Y-52642D01*
X90066Y-52816D01*
X90010Y-52900D01*
X89990Y-53000D01*
X89990Y-53641D01*
X89969Y-53633D01*
X89823Y-53633D01*
X89760Y-53659D01*
X89760Y-51250D01*
X89740Y-51151D01*
X89739Y-51150D01*
X89684Y-51066D01*
X89681Y-51064D01*
X89635Y-51018D01*
X89636Y-50924D01*
X89577Y-50782D01*
X89469Y-50673D01*
X89327Y-50615D01*
X89174Y-50614D01*
X89032Y-50673D01*
X88923Y-50781D01*
X88865Y-50923D01*
X88864Y-51076D01*
X88923Y-51218D01*
X89031Y-51327D01*
X89173Y-51385D01*
X89240Y-51385D01*
X89240Y-51444D01*
X89219Y-51423D01*
X89077Y-51365D01*
X88924Y-51364D01*
X88782Y-51423D01*
X88673Y-51531D01*
X88615Y-51673D01*
X88614Y-51826D01*
X88673Y-51968D01*
X88740Y-52035D01*
X88740Y-56464D01*
X88673Y-56531D01*
X88615Y-56673D01*
X88614Y-56826D01*
X88673Y-56968D01*
X88781Y-57077D01*
X88923Y-57135D01*
X89019Y-57135D01*
X89010Y-57150D01*
X88990Y-57250D01*
X88990Y-59642D01*
X88892Y-59740D01*
X88400Y-59740D01*
X88400Y-56762D01*
X88400Y-56238D01*
X88399Y-55899D01*
X88399Y-55800D01*
X88361Y-55709D01*
X88291Y-55639D01*
X88199Y-55601D01*
X87762Y-55600D01*
X87700Y-55662D01*
X87700Y-56300D01*
X88338Y-56300D01*
X88400Y-56238D01*
X88400Y-56762D01*
X88338Y-56700D01*
X87700Y-56700D01*
X87700Y-57338D01*
X87762Y-57400D01*
X88199Y-57399D01*
X88291Y-57361D01*
X88361Y-57291D01*
X88399Y-57200D01*
X88399Y-57101D01*
X88400Y-56762D01*
X88400Y-59740D01*
X87535Y-59740D01*
X87469Y-59673D01*
X87327Y-59615D01*
X87174Y-59614D01*
X87032Y-59673D01*
X86923Y-59781D01*
X86865Y-59923D01*
X86864Y-60076D01*
X86891Y-60141D01*
X86827Y-60115D01*
X86700Y-60114D01*
X86674Y-60114D01*
X86608Y-60141D01*
X86635Y-60077D01*
X86636Y-59924D01*
X86577Y-59782D01*
X86469Y-59673D01*
X86327Y-59615D01*
X86174Y-59614D01*
X86032Y-59673D01*
X85923Y-59781D01*
X85865Y-59923D01*
X85864Y-60017D01*
X85142Y-60740D01*
X85035Y-60740D01*
X84970Y-60674D01*
X85077Y-60569D01*
X85135Y-60427D01*
X85136Y-60274D01*
X85077Y-60132D01*
X84969Y-60023D01*
X84827Y-59965D01*
X84674Y-59964D01*
X84532Y-60023D01*
X84464Y-60090D01*
X82400Y-60090D01*
X82301Y-60110D01*
X82216Y-60166D01*
X81692Y-60689D01*
X81599Y-60689D01*
X81457Y-60748D01*
X81348Y-60856D01*
X81290Y-60998D01*
X81289Y-61151D01*
X81303Y-61186D01*
X80934Y-60816D01*
X80850Y-60760D01*
X80750Y-60740D01*
X78760Y-60740D01*
X78760Y-60658D01*
X78728Y-60581D01*
X78669Y-60522D01*
X78592Y-60490D01*
X78508Y-60490D01*
X78397Y-60490D01*
X78538Y-60432D01*
X78681Y-60289D01*
X78759Y-60102D01*
X78759Y-59899D01*
X78682Y-59712D01*
X78539Y-59569D01*
X78373Y-59499D01*
X78538Y-59432D01*
X78681Y-59289D01*
X78693Y-59260D01*
X80400Y-59260D01*
X80400Y-59550D01*
X84946Y-59550D01*
X85114Y-59717D01*
X85114Y-59826D01*
X85173Y-59968D01*
X85281Y-60077D01*
X85423Y-60135D01*
X85576Y-60136D01*
X85718Y-60077D01*
X85827Y-59969D01*
X85885Y-59827D01*
X85886Y-59674D01*
X85834Y-59550D01*
X86700Y-59550D01*
X86700Y-57352D01*
X86709Y-57361D01*
X86801Y-57399D01*
X87238Y-57400D01*
X87300Y-57338D01*
X87300Y-56750D01*
X87300Y-56700D01*
X87300Y-56300D01*
X87300Y-56250D01*
X87300Y-55662D01*
X87238Y-55600D01*
X86801Y-55601D01*
X86709Y-55639D01*
X86700Y-55648D01*
X86700Y-55510D01*
X86750Y-55510D01*
X86849Y-55490D01*
X86850Y-55490D01*
X86934Y-55434D01*
X87732Y-54635D01*
X87826Y-54636D01*
X87968Y-54577D01*
X88077Y-54469D01*
X88135Y-54327D01*
X88136Y-54174D01*
X88077Y-54032D01*
X87969Y-53923D01*
X87827Y-53865D01*
X87785Y-53864D01*
X87785Y-50500D01*
X87785Y-49750D01*
X87763Y-49641D01*
X87702Y-49548D01*
X87609Y-49487D01*
X87500Y-49465D01*
X79500Y-49465D01*
X79391Y-49487D01*
X79298Y-49548D01*
X79237Y-49641D01*
X79215Y-49750D01*
X79215Y-50500D01*
X79237Y-50609D01*
X79298Y-50702D01*
X79391Y-50763D01*
X79500Y-50785D01*
X87500Y-50785D01*
X87609Y-50763D01*
X87702Y-50702D01*
X87763Y-50609D01*
X87785Y-50500D01*
X87785Y-53864D01*
X87674Y-53864D01*
X87532Y-53923D01*
X87423Y-54031D01*
X87375Y-54148D01*
X87327Y-54032D01*
X87219Y-53923D01*
X87077Y-53865D01*
X86967Y-53864D01*
X86500Y-53396D01*
X86500Y-52295D01*
X86577Y-52219D01*
X86635Y-52077D01*
X86636Y-51924D01*
X86577Y-51782D01*
X86469Y-51673D01*
X86327Y-51615D01*
X86174Y-51614D01*
X86032Y-51673D01*
X85923Y-51781D01*
X85865Y-51923D01*
X85864Y-52076D01*
X85923Y-52218D01*
X86000Y-52295D01*
X86000Y-53500D01*
X86019Y-53596D01*
X86073Y-53677D01*
X86614Y-54217D01*
X86614Y-54300D01*
X86170Y-54300D01*
X85227Y-53407D01*
X84210Y-53000D01*
X83143Y-53000D01*
X82126Y-53305D01*
X81076Y-54155D01*
X80305Y-54375D01*
X80400Y-54471D01*
X80400Y-54782D01*
X80135Y-54517D01*
X80136Y-54424D01*
X80077Y-54282D01*
X79969Y-54173D01*
X79827Y-54115D01*
X79674Y-54114D01*
X79532Y-54173D01*
X79423Y-54281D01*
X79365Y-54423D01*
X79364Y-54576D01*
X79423Y-54718D01*
X79531Y-54827D01*
X79673Y-54885D01*
X79767Y-54885D01*
X80400Y-55518D01*
X80400Y-56238D01*
X80399Y-55899D01*
X80399Y-55800D01*
X80361Y-55709D01*
X80291Y-55639D01*
X80199Y-55601D01*
X79762Y-55600D01*
X79700Y-55662D01*
X79700Y-56250D01*
X79700Y-56300D01*
X79700Y-56700D01*
X79700Y-56750D01*
X79700Y-57338D01*
X79762Y-57400D01*
X80199Y-57399D01*
X80291Y-57361D01*
X80361Y-57291D01*
X80399Y-57200D01*
X80399Y-57101D01*
X80400Y-56762D01*
X80400Y-58740D01*
X79300Y-58740D01*
X79300Y-57338D01*
X79300Y-56700D01*
X79300Y-56300D01*
X79300Y-55662D01*
X79238Y-55600D01*
X78801Y-55601D01*
X78709Y-55639D01*
X78639Y-55709D01*
X78601Y-55800D01*
X78601Y-55899D01*
X78600Y-56238D01*
X78662Y-56300D01*
X79300Y-56300D01*
X79300Y-56700D01*
X78662Y-56700D01*
X78600Y-56762D01*
X78601Y-57101D01*
X78601Y-57200D01*
X78639Y-57291D01*
X78709Y-57361D01*
X78801Y-57399D01*
X79238Y-57400D01*
X79300Y-57338D01*
X79300Y-58740D01*
X78693Y-58740D01*
X78682Y-58712D01*
X78539Y-58569D01*
X78352Y-58491D01*
X78149Y-58491D01*
X77962Y-58568D01*
X77819Y-58711D01*
X77749Y-58876D01*
X77682Y-58712D01*
X77539Y-58569D01*
X77352Y-58491D01*
X77149Y-58491D01*
X76962Y-58568D01*
X76819Y-58711D01*
X76741Y-58898D01*
X76741Y-59101D01*
X76818Y-59288D01*
X76961Y-59431D01*
X77126Y-59500D01*
X76962Y-59568D01*
X76819Y-59711D01*
X76741Y-59898D01*
X76741Y-60101D01*
X76818Y-60288D01*
X76961Y-60431D01*
X77064Y-60473D01*
X77054Y-60476D01*
X77021Y-60559D01*
X77250Y-60788D01*
X77479Y-60559D01*
X77446Y-60476D01*
X77435Y-60474D01*
X77538Y-60432D01*
X77681Y-60289D01*
X77750Y-60123D01*
X77818Y-60288D01*
X77961Y-60431D01*
X78102Y-60490D01*
X77908Y-60490D01*
X77831Y-60522D01*
X77772Y-60581D01*
X77740Y-60658D01*
X77740Y-60742D01*
X77740Y-60790D01*
X77691Y-60771D01*
X77462Y-61000D01*
X77691Y-61229D01*
X77740Y-61209D01*
X77740Y-61342D01*
X77772Y-61419D01*
X77831Y-61478D01*
X77908Y-61510D01*
X77992Y-61510D01*
X78592Y-61510D01*
X78669Y-61478D01*
X78728Y-61419D01*
X78760Y-61342D01*
X78760Y-61260D01*
X80642Y-61260D01*
X81122Y-61740D01*
X77500Y-61740D01*
X77479Y-61740D01*
X77479Y-61441D01*
X77250Y-61212D01*
X77038Y-61424D01*
X77038Y-61000D01*
X76809Y-60771D01*
X76726Y-60804D01*
X76691Y-61020D01*
X76726Y-61196D01*
X76809Y-61229D01*
X77038Y-61000D01*
X77038Y-61424D01*
X77021Y-61441D01*
X77054Y-61524D01*
X77270Y-61559D01*
X77446Y-61524D01*
X77479Y-61441D01*
X77479Y-61740D01*
X77035Y-61740D01*
X76969Y-61673D01*
X76827Y-61615D01*
X76674Y-61614D01*
X76532Y-61673D01*
X76423Y-61781D01*
X76365Y-61923D01*
X76364Y-62076D01*
X76423Y-62218D01*
X76531Y-62327D01*
X76673Y-62385D01*
X76826Y-62386D01*
X76968Y-62327D01*
X77035Y-62260D01*
X77500Y-62260D01*
X79355Y-62260D01*
X79298Y-62298D01*
X79237Y-62391D01*
X79215Y-62500D01*
X79215Y-63250D01*
X79237Y-63359D01*
X79298Y-63452D01*
X79391Y-63513D01*
X79500Y-63535D01*
X86700Y-63535D01*
X87500Y-63535D01*
X87609Y-63513D01*
X87702Y-63452D01*
X87763Y-63359D01*
X87785Y-63250D01*
X87785Y-62500D01*
X87763Y-62391D01*
X87702Y-62298D01*
X87644Y-62260D01*
X89714Y-62260D01*
X89781Y-62327D01*
X89923Y-62385D01*
X90076Y-62386D01*
X90218Y-62327D01*
X90327Y-62219D01*
X90385Y-62077D01*
X90386Y-61924D01*
X90327Y-61782D01*
X90219Y-61673D01*
X90077Y-61615D01*
X89924Y-61614D01*
X89782Y-61673D01*
X89714Y-61740D01*
X87357Y-61740D01*
X86885Y-61267D01*
X86886Y-61174D01*
X86827Y-61032D01*
X86719Y-60923D01*
X86700Y-60915D01*
X86577Y-60865D01*
X86424Y-60864D01*
X86282Y-60923D01*
X86173Y-61031D01*
X86115Y-61173D01*
X86114Y-61326D01*
X86173Y-61468D01*
X86281Y-61577D01*
X86423Y-61635D01*
X86517Y-61635D01*
X86700Y-61817D01*
X87064Y-62181D01*
X87066Y-62184D01*
X87113Y-62215D01*
X86700Y-62215D01*
X83887Y-62215D01*
X83934Y-62184D01*
X84732Y-61385D01*
X84826Y-61386D01*
X84968Y-61327D01*
X85035Y-61260D01*
X85250Y-61260D01*
X85349Y-61240D01*
X85350Y-61240D01*
X85434Y-61184D01*
X86232Y-60385D01*
X86326Y-60386D01*
X86391Y-60358D01*
X86365Y-60423D01*
X86364Y-60576D01*
X86423Y-60718D01*
X86531Y-60827D01*
X86673Y-60885D01*
X86700Y-60885D01*
X86767Y-60885D01*
X87314Y-61431D01*
X87316Y-61434D01*
X87400Y-61489D01*
X87401Y-61490D01*
X87500Y-61510D01*
X90214Y-61510D01*
X90281Y-61577D01*
X90423Y-61635D01*
X90576Y-61636D01*
X90700Y-61584D01*
X90700Y-63700D01*
X90700Y-63700D01*
G37*
G54D19*
X90700Y-63700D02*
X86700Y-63700D01*
X86650Y-63700D01*
X76300Y-63700D01*
X76300Y-49300D01*
X90700Y-49300D01*
X90700Y-51915D01*
X90577Y-51865D01*
X90424Y-51864D01*
X90282Y-51923D01*
X90173Y-52031D01*
X90115Y-52173D01*
X90114Y-52326D01*
X90173Y-52468D01*
X90240Y-52535D01*
X90240Y-52642D01*
X90066Y-52816D01*
X90010Y-52900D01*
X89990Y-53000D01*
X89990Y-53641D01*
X89969Y-53633D01*
X89823Y-53633D01*
X89760Y-53659D01*
X89760Y-51250D01*
X89740Y-51151D01*
X89739Y-51150D01*
X89684Y-51066D01*
X89681Y-51064D01*
X89635Y-51018D01*
X89636Y-50924D01*
X89577Y-50782D01*
X89469Y-50673D01*
X89327Y-50615D01*
X89174Y-50614D01*
X89032Y-50673D01*
X88923Y-50781D01*
X88865Y-50923D01*
X88864Y-51076D01*
X88923Y-51218D01*
X89031Y-51327D01*
X89173Y-51385D01*
X89240Y-51385D01*
X89240Y-51444D01*
X89219Y-51423D01*
X89077Y-51365D01*
X88924Y-51364D01*
X88782Y-51423D01*
X88673Y-51531D01*
X88615Y-51673D01*
X88614Y-51826D01*
X88673Y-51968D01*
X88740Y-52035D01*
X88740Y-56464D01*
X88673Y-56531D01*
X88615Y-56673D01*
X88614Y-56826D01*
X88673Y-56968D01*
X88781Y-57077D01*
X88923Y-57135D01*
X89019Y-57135D01*
X89010Y-57150D01*
X88990Y-57250D01*
X88990Y-59642D01*
X88892Y-59740D01*
X88400Y-59740D01*
X88400Y-56762D01*
X88400Y-56238D01*
X88399Y-55899D01*
X88399Y-55800D01*
X88361Y-55709D01*
X88291Y-55639D01*
X88199Y-55601D01*
X87762Y-55600D01*
X87700Y-55662D01*
X87700Y-56300D01*
X88338Y-56300D01*
X88400Y-56238D01*
X88400Y-56762D01*
X88338Y-56700D01*
X87700Y-56700D01*
X87700Y-57338D01*
X87762Y-57400D01*
X88199Y-57399D01*
X88291Y-57361D01*
X88361Y-57291D01*
X88399Y-57200D01*
X88399Y-57101D01*
X88400Y-56762D01*
X88400Y-59740D01*
X87535Y-59740D01*
X87469Y-59673D01*
X87327Y-59615D01*
X87174Y-59614D01*
X87032Y-59673D01*
X86923Y-59781D01*
X86865Y-59923D01*
X86864Y-60076D01*
X86891Y-60141D01*
X86827Y-60115D01*
X86700Y-60114D01*
X86674Y-60114D01*
X86608Y-60141D01*
X86635Y-60077D01*
X86636Y-59924D01*
X86577Y-59782D01*
X86469Y-59673D01*
X86327Y-59615D01*
X86174Y-59614D01*
X86032Y-59673D01*
X85923Y-59781D01*
X85865Y-59923D01*
X85864Y-60017D01*
X85142Y-60740D01*
X85035Y-60740D01*
X84970Y-60674D01*
X85077Y-60569D01*
X85135Y-60427D01*
X85136Y-60274D01*
X85077Y-60132D01*
X84969Y-60023D01*
X84827Y-59965D01*
X84674Y-59964D01*
X84532Y-60023D01*
X84464Y-60090D01*
X82400Y-60090D01*
X82301Y-60110D01*
X82216Y-60166D01*
X81692Y-60689D01*
X81599Y-60689D01*
X81457Y-60748D01*
X81348Y-60856D01*
X81290Y-60998D01*
X81289Y-61151D01*
X81303Y-61186D01*
X80934Y-60816D01*
X80850Y-60760D01*
X80750Y-60740D01*
X78760Y-60740D01*
X78760Y-60658D01*
X78728Y-60581D01*
X78669Y-60522D01*
X78592Y-60490D01*
X78508Y-60490D01*
X78397Y-60490D01*
X78538Y-60432D01*
X78681Y-60289D01*
X78759Y-60102D01*
X78759Y-59899D01*
X78682Y-59712D01*
X78539Y-59569D01*
X78373Y-59499D01*
X78538Y-59432D01*
X78681Y-59289D01*
X78693Y-59260D01*
X80400Y-59260D01*
X80400Y-59550D01*
X84946Y-59550D01*
X85114Y-59717D01*
X85114Y-59826D01*
X85173Y-59968D01*
X85281Y-60077D01*
X85423Y-60135D01*
X85576Y-60136D01*
X85718Y-60077D01*
X85827Y-59969D01*
X85885Y-59827D01*
X85886Y-59674D01*
X85834Y-59550D01*
X86700Y-59550D01*
X86700Y-57352D01*
X86709Y-57361D01*
X86801Y-57399D01*
X87238Y-57400D01*
X87300Y-57338D01*
X87300Y-56750D01*
X87300Y-56700D01*
X87300Y-56300D01*
X87300Y-56250D01*
X87300Y-55662D01*
X87238Y-55600D01*
X86801Y-55601D01*
X86709Y-55639D01*
X86700Y-55648D01*
X86700Y-55510D01*
X86750Y-55510D01*
X86849Y-55490D01*
X86850Y-55490D01*
X86934Y-55434D01*
X87732Y-54635D01*
X87826Y-54636D01*
X87968Y-54577D01*
X88077Y-54469D01*
X88135Y-54327D01*
X88136Y-54174D01*
X88077Y-54032D01*
X87969Y-53923D01*
X87827Y-53865D01*
X87785Y-53864D01*
X87785Y-50500D01*
X87785Y-49750D01*
X87763Y-49641D01*
X87702Y-49548D01*
X87609Y-49487D01*
X87500Y-49465D01*
X79500Y-49465D01*
X79391Y-49487D01*
X79298Y-49548D01*
X79237Y-49641D01*
X79215Y-49750D01*
X79215Y-50500D01*
X79237Y-50609D01*
X79298Y-50702D01*
X79391Y-50763D01*
X79500Y-50785D01*
X87500Y-50785D01*
X87609Y-50763D01*
X87702Y-50702D01*
X87763Y-50609D01*
X87785Y-50500D01*
X87785Y-53864D01*
X87674Y-53864D01*
X87532Y-53923D01*
X87423Y-54031D01*
X87375Y-54148D01*
X87327Y-54032D01*
X87219Y-53923D01*
X87077Y-53865D01*
X86967Y-53864D01*
X86500Y-53396D01*
X86500Y-52295D01*
X86577Y-52219D01*
X86635Y-52077D01*
X86636Y-51924D01*
X86577Y-51782D01*
X86469Y-51673D01*
X86327Y-51615D01*
X86174Y-51614D01*
X86032Y-51673D01*
X85923Y-51781D01*
X85865Y-51923D01*
X85864Y-52076D01*
X85923Y-52218D01*
X86000Y-52295D01*
X86000Y-53500D01*
X86019Y-53596D01*
X86073Y-53677D01*
X86614Y-54217D01*
X86614Y-54300D01*
X86170Y-54300D01*
X85227Y-53407D01*
X84210Y-53000D01*
X83143Y-53000D01*
X82126Y-53305D01*
X81076Y-54155D01*
X80305Y-54375D01*
X80400Y-54471D01*
X80400Y-54782D01*
X80135Y-54517D01*
X80136Y-54424D01*
X80077Y-54282D01*
X79969Y-54173D01*
X79827Y-54115D01*
X79674Y-54114D01*
X79532Y-54173D01*
X79423Y-54281D01*
X79365Y-54423D01*
X79364Y-54576D01*
X79423Y-54718D01*
X79531Y-54827D01*
X79673Y-54885D01*
X79767Y-54885D01*
X80400Y-55518D01*
X80400Y-56238D01*
X80399Y-55899D01*
X80399Y-55800D01*
X80361Y-55709D01*
X80291Y-55639D01*
X80199Y-55601D01*
X79762Y-55600D01*
X79700Y-55662D01*
X79700Y-56250D01*
X79700Y-56300D01*
X79700Y-56700D01*
X79700Y-56750D01*
X79700Y-57338D01*
X79762Y-57400D01*
X80199Y-57399D01*
X80291Y-57361D01*
X80361Y-57291D01*
X80399Y-57200D01*
X80399Y-57101D01*
X80400Y-56762D01*
X80400Y-58740D01*
X79300Y-58740D01*
X79300Y-57338D01*
X79300Y-56700D01*
X79300Y-56300D01*
X79300Y-55662D01*
X79238Y-55600D01*
X78801Y-55601D01*
X78709Y-55639D01*
X78639Y-55709D01*
X78601Y-55800D01*
X78601Y-55899D01*
X78600Y-56238D01*
X78662Y-56300D01*
X79300Y-56300D01*
X79300Y-56700D01*
X78662Y-56700D01*
X78600Y-56762D01*
X78601Y-57101D01*
X78601Y-57200D01*
X78639Y-57291D01*
X78709Y-57361D01*
X78801Y-57399D01*
X79238Y-57400D01*
X79300Y-57338D01*
X79300Y-58740D01*
X78693Y-58740D01*
X78682Y-58712D01*
X78539Y-58569D01*
X78352Y-58491D01*
X78149Y-58491D01*
X77962Y-58568D01*
X77819Y-58711D01*
X77749Y-58876D01*
X77682Y-58712D01*
X77539Y-58569D01*
X77352Y-58491D01*
X77149Y-58491D01*
X76962Y-58568D01*
X76819Y-58711D01*
X76741Y-58898D01*
X76741Y-59101D01*
X76818Y-59288D01*
X76961Y-59431D01*
X77126Y-59500D01*
X76962Y-59568D01*
X76819Y-59711D01*
X76741Y-59898D01*
X76741Y-60101D01*
X76818Y-60288D01*
X76961Y-60431D01*
X77064Y-60473D01*
X77054Y-60476D01*
X77021Y-60559D01*
X77250Y-60788D01*
X77479Y-60559D01*
X77446Y-60476D01*
X77435Y-60474D01*
X77538Y-60432D01*
X77681Y-60289D01*
X77750Y-60123D01*
X77818Y-60288D01*
X77961Y-60431D01*
X78102Y-60490D01*
X77908Y-60490D01*
X77831Y-60522D01*
X77772Y-60581D01*
X77740Y-60658D01*
X77740Y-60742D01*
X77740Y-60790D01*
X77691Y-60771D01*
X77462Y-61000D01*
X77691Y-61229D01*
X77740Y-61209D01*
X77740Y-61342D01*
X77772Y-61419D01*
X77831Y-61478D01*
X77908Y-61510D01*
X77992Y-61510D01*
X78592Y-61510D01*
X78669Y-61478D01*
X78728Y-61419D01*
X78760Y-61342D01*
X78760Y-61260D01*
X80642Y-61260D01*
X81122Y-61740D01*
X77500Y-61740D01*
X77479Y-61740D01*
X77479Y-61441D01*
X77250Y-61212D01*
X77038Y-61424D01*
X77038Y-61000D01*
X76809Y-60771D01*
X76726Y-60804D01*
X76691Y-61020D01*
X76726Y-61196D01*
X76809Y-61229D01*
X77038Y-61000D01*
X77038Y-61424D01*
X77021Y-61441D01*
X77054Y-61524D01*
X77270Y-61559D01*
X77446Y-61524D01*
X77479Y-61441D01*
X77479Y-61740D01*
X77035Y-61740D01*
X76969Y-61673D01*
X76827Y-61615D01*
X76674Y-61614D01*
X76532Y-61673D01*
X76423Y-61781D01*
X76365Y-61923D01*
X76364Y-62076D01*
X76423Y-62218D01*
X76531Y-62327D01*
X76673Y-62385D01*
X76826Y-62386D01*
X76968Y-62327D01*
X77035Y-62260D01*
X77500Y-62260D01*
X79355Y-62260D01*
X79298Y-62298D01*
X79237Y-62391D01*
X79215Y-62500D01*
X79215Y-63250D01*
X79237Y-63359D01*
X79298Y-63452D01*
X79391Y-63513D01*
X79500Y-63535D01*
X86700Y-63535D01*
X87500Y-63535D01*
X87609Y-63513D01*
X87702Y-63452D01*
X87763Y-63359D01*
X87785Y-63250D01*
X87785Y-62500D01*
X87763Y-62391D01*
X87702Y-62298D01*
X87644Y-62260D01*
X89714Y-62260D01*
X89781Y-62327D01*
X89923Y-62385D01*
X90076Y-62386D01*
X90218Y-62327D01*
X90327Y-62219D01*
X90385Y-62077D01*
X90386Y-61924D01*
X90327Y-61782D01*
X90219Y-61673D01*
X90077Y-61615D01*
X89924Y-61614D01*
X89782Y-61673D01*
X89714Y-61740D01*
X87357Y-61740D01*
X86885Y-61267D01*
X86886Y-61174D01*
X86827Y-61032D01*
X86719Y-60923D01*
X86700Y-60915D01*
X86577Y-60865D01*
X86424Y-60864D01*
X86282Y-60923D01*
X86173Y-61031D01*
X86115Y-61173D01*
X86114Y-61326D01*
X86173Y-61468D01*
X86281Y-61577D01*
X86423Y-61635D01*
X86517Y-61635D01*
X86700Y-61817D01*
X87064Y-62181D01*
X87066Y-62184D01*
X87113Y-62215D01*
X86700Y-62215D01*
X83887Y-62215D01*
X83934Y-62184D01*
X84732Y-61385D01*
X84826Y-61386D01*
X84968Y-61327D01*
X85035Y-61260D01*
X85250Y-61260D01*
X85349Y-61240D01*
X85350Y-61240D01*
X85434Y-61184D01*
X86232Y-60385D01*
X86326Y-60386D01*
X86391Y-60358D01*
X86365Y-60423D01*
X86364Y-60576D01*
X86423Y-60718D01*
X86531Y-60827D01*
X86673Y-60885D01*
X86700Y-60885D01*
X86767Y-60885D01*
X87314Y-61431D01*
X87316Y-61434D01*
X87400Y-61489D01*
X87401Y-61490D01*
X87500Y-61510D01*
X90214Y-61510D01*
X90281Y-61577D01*
X90423Y-61635D01*
X90576Y-61636D01*
X90700Y-61584D01*
X90700Y-63700D01*
M02*
