G04 (created by PCBNEW-RS274X (2011-nov-30)-testing) date Mon 10 Sep 2012 05:33:44 PM EDT*
%MOIN*%
G04 Gerber Fmt 3.4, Leading zero omitted, Abs format*
%FSLAX34Y34*%
G01*
G70*
G90*
G04 APERTURE LIST*
%ADD10C,0.006*%
%ADD11C,0.015*%
%ADD12C,0.005*%
%ADD13C,0.01*%
%ADD14C,0.008*%
%ADD15C,0.012*%
G04 APERTURE END LIST*
G54D10*
X77243Y-55333D02*
X77243Y-55524D01*
X76643Y-55524D01*
X76929Y-55200D02*
X76929Y-55066D01*
X77243Y-55009D02*
X77243Y-55200D01*
X76643Y-55200D01*
X76643Y-55009D01*
X77243Y-54838D02*
X76643Y-54838D01*
X76643Y-54743D01*
X76671Y-54685D01*
X76729Y-54647D01*
X76786Y-54628D01*
X76900Y-54609D01*
X76986Y-54609D01*
X77100Y-54628D01*
X77157Y-54647D01*
X77214Y-54685D01*
X77243Y-54743D01*
X77243Y-54838D01*
X76643Y-54171D02*
X77243Y-54076D01*
X76814Y-53999D01*
X77243Y-53923D01*
X76643Y-53828D01*
X77243Y-53504D02*
X76929Y-53504D01*
X76871Y-53523D01*
X76843Y-53561D01*
X76843Y-53638D01*
X76871Y-53676D01*
X77214Y-53504D02*
X77243Y-53542D01*
X77243Y-53638D01*
X77214Y-53676D01*
X77157Y-53695D01*
X77100Y-53695D01*
X77043Y-53676D01*
X77014Y-53638D01*
X77014Y-53542D01*
X76986Y-53504D01*
X76843Y-53371D02*
X76843Y-53219D01*
X76643Y-53314D02*
X77157Y-53314D01*
X77214Y-53295D01*
X77243Y-53257D01*
X77243Y-53219D01*
X77214Y-52913D02*
X77243Y-52951D01*
X77243Y-53028D01*
X77214Y-53066D01*
X77186Y-53085D01*
X77129Y-53104D01*
X76957Y-53104D01*
X76900Y-53085D01*
X76871Y-53066D01*
X76843Y-53028D01*
X76843Y-52951D01*
X76871Y-52913D01*
X77243Y-52742D02*
X76643Y-52742D01*
X77243Y-52570D02*
X76929Y-52570D01*
X76871Y-52589D01*
X76843Y-52627D01*
X76843Y-52685D01*
X76871Y-52723D01*
X76900Y-52742D01*
X77443Y-51960D02*
X77443Y-52056D01*
X76586Y-52056D01*
X76586Y-51960D01*
X77243Y-51579D02*
X76957Y-51713D01*
X77243Y-51808D02*
X76643Y-51808D01*
X76643Y-51655D01*
X76671Y-51617D01*
X76700Y-51598D01*
X76757Y-51579D01*
X76843Y-51579D01*
X76900Y-51598D01*
X76929Y-51617D01*
X76957Y-51655D01*
X76957Y-51808D01*
X77214Y-51255D02*
X77243Y-51293D01*
X77243Y-51370D01*
X77214Y-51408D01*
X77157Y-51427D01*
X76929Y-51427D01*
X76871Y-51408D01*
X76843Y-51370D01*
X76843Y-51293D01*
X76871Y-51255D01*
X76929Y-51236D01*
X76986Y-51236D01*
X77043Y-51427D01*
X76843Y-51103D02*
X77243Y-51008D01*
X76843Y-50912D01*
X77186Y-50760D02*
X77214Y-50741D01*
X77243Y-50760D01*
X77214Y-50779D01*
X77186Y-50760D01*
X77243Y-50760D01*
X77071Y-50284D02*
X77071Y-50093D01*
X77243Y-50322D02*
X76643Y-50189D01*
X77243Y-50055D01*
X77443Y-49960D02*
X77443Y-49865D01*
X76586Y-49865D01*
X76586Y-49960D01*
X78086Y-53580D02*
X78114Y-53599D01*
X78143Y-53656D01*
X78143Y-53694D01*
X78114Y-53752D01*
X78057Y-53790D01*
X78000Y-53809D01*
X77886Y-53828D01*
X77800Y-53828D01*
X77686Y-53809D01*
X77629Y-53790D01*
X77571Y-53752D01*
X77543Y-53694D01*
X77543Y-53656D01*
X77571Y-53599D01*
X77600Y-53580D01*
X78143Y-53409D02*
X77543Y-53409D01*
X78143Y-53237D02*
X77829Y-53237D01*
X77771Y-53256D01*
X77743Y-53294D01*
X77743Y-53352D01*
X77771Y-53390D01*
X77800Y-53409D01*
X78143Y-53047D02*
X77743Y-53047D01*
X77857Y-53047D02*
X77800Y-53028D01*
X77771Y-53009D01*
X77743Y-52971D01*
X77743Y-52932D01*
X78143Y-52799D02*
X77743Y-52799D01*
X77543Y-52799D02*
X77571Y-52818D01*
X77600Y-52799D01*
X77571Y-52780D01*
X77543Y-52799D01*
X77600Y-52799D01*
X78114Y-52628D02*
X78143Y-52590D01*
X78143Y-52514D01*
X78114Y-52475D01*
X78057Y-52456D01*
X78029Y-52456D01*
X77971Y-52475D01*
X77943Y-52514D01*
X77943Y-52571D01*
X77914Y-52609D01*
X77857Y-52628D01*
X77829Y-52628D01*
X77771Y-52609D01*
X77743Y-52571D01*
X77743Y-52514D01*
X77771Y-52475D01*
X77543Y-52018D02*
X78143Y-51923D01*
X77714Y-51846D01*
X78143Y-51770D01*
X77543Y-51675D01*
X78143Y-51466D02*
X78114Y-51504D01*
X78086Y-51523D01*
X78029Y-51542D01*
X77857Y-51542D01*
X77800Y-51523D01*
X77771Y-51504D01*
X77743Y-51466D01*
X77743Y-51408D01*
X77771Y-51370D01*
X77800Y-51351D01*
X77857Y-51332D01*
X78029Y-51332D01*
X78086Y-51351D01*
X78114Y-51370D01*
X78143Y-51408D01*
X78143Y-51466D01*
X78143Y-51104D02*
X78114Y-51142D01*
X78086Y-51161D01*
X78029Y-51180D01*
X77857Y-51180D01*
X77800Y-51161D01*
X77771Y-51142D01*
X77743Y-51104D01*
X77743Y-51046D01*
X77771Y-51008D01*
X77800Y-50989D01*
X77857Y-50970D01*
X78029Y-50970D01*
X78086Y-50989D01*
X78114Y-51008D01*
X78143Y-51046D01*
X78143Y-51104D01*
X78143Y-50627D02*
X77543Y-50627D01*
X78114Y-50627D02*
X78143Y-50665D01*
X78143Y-50742D01*
X78114Y-50780D01*
X78086Y-50799D01*
X78029Y-50818D01*
X77857Y-50818D01*
X77800Y-50799D01*
X77771Y-50780D01*
X77743Y-50742D01*
X77743Y-50665D01*
X77771Y-50627D01*
X78143Y-50265D02*
X77829Y-50265D01*
X77771Y-50284D01*
X77743Y-50322D01*
X77743Y-50399D01*
X77771Y-50437D01*
X78114Y-50265D02*
X78143Y-50303D01*
X78143Y-50399D01*
X78114Y-50437D01*
X78057Y-50456D01*
X78000Y-50456D01*
X77943Y-50437D01*
X77914Y-50399D01*
X77914Y-50303D01*
X77886Y-50265D01*
X78143Y-50018D02*
X78114Y-50056D01*
X78057Y-50075D01*
X77543Y-50075D01*
X78143Y-49808D02*
X78114Y-49846D01*
X78057Y-49865D01*
X77543Y-49865D01*
G54D11*
X78350Y-62000D02*
X78400Y-62000D01*
X78200Y-61850D02*
X78350Y-62000D01*
X78050Y-62000D02*
X78200Y-61850D01*
X78250Y-62000D02*
X78050Y-62000D01*
X78250Y-61700D02*
X78250Y-62000D01*
X78550Y-62000D02*
X78250Y-61700D01*
X77950Y-62000D02*
X78550Y-62000D01*
X78250Y-61700D02*
X77950Y-62000D01*
X79500Y-62500D02*
X87500Y-62500D01*
X87500Y-62500D02*
X87500Y-63250D01*
X87500Y-63250D02*
X79500Y-63250D01*
X79500Y-63250D02*
X79500Y-62500D01*
X79500Y-50500D02*
X79500Y-49750D01*
X87500Y-50500D02*
X79500Y-50500D01*
X87500Y-49750D02*
X87500Y-50500D01*
X79500Y-49750D02*
X87500Y-49750D01*
X91000Y-64000D02*
X91000Y-49000D01*
X76000Y-64000D02*
X91000Y-64000D01*
X76000Y-49000D02*
X76000Y-64000D01*
X76000Y-64000D02*
X76000Y-49000D01*
X76000Y-49000D02*
X91000Y-49000D01*
G54D12*
X84350Y-57650D02*
G75*
G03X84350Y-57650I-50J0D01*
G74*
G01*
X84300Y-57200D02*
X84300Y-57600D01*
X84300Y-57600D02*
X83700Y-57600D01*
X83700Y-57600D02*
X83700Y-57200D01*
X83700Y-56800D02*
X83700Y-56400D01*
X83700Y-56400D02*
X84300Y-56400D01*
X84300Y-56400D02*
X84300Y-56800D01*
X84250Y-58350D02*
G75*
G03X84250Y-58350I-50J0D01*
G74*
G01*
X84200Y-58800D02*
X84200Y-58400D01*
X84200Y-58400D02*
X84800Y-58400D01*
X84800Y-58400D02*
X84800Y-58800D01*
X84800Y-59200D02*
X84800Y-59600D01*
X84800Y-59600D02*
X84200Y-59600D01*
X84200Y-59600D02*
X84200Y-59200D01*
X85350Y-55650D02*
G75*
G03X85350Y-55650I-50J0D01*
G74*
G01*
X85300Y-55200D02*
X85300Y-55600D01*
X85300Y-55600D02*
X84700Y-55600D01*
X84700Y-55600D02*
X84700Y-55200D01*
X84700Y-54800D02*
X84700Y-54400D01*
X84700Y-54400D02*
X85300Y-54400D01*
X85300Y-54400D02*
X85300Y-54800D01*
X84100Y-55650D02*
G75*
G03X84100Y-55650I-50J0D01*
G74*
G01*
X84050Y-55200D02*
X84050Y-55600D01*
X84050Y-55600D02*
X83450Y-55600D01*
X83450Y-55600D02*
X83450Y-55200D01*
X83450Y-54800D02*
X83450Y-54400D01*
X83450Y-54400D02*
X84050Y-54400D01*
X84050Y-54400D02*
X84050Y-54800D01*
X82850Y-55650D02*
G75*
G03X82850Y-55650I-50J0D01*
G74*
G01*
X82800Y-55200D02*
X82800Y-55600D01*
X82800Y-55600D02*
X82200Y-55600D01*
X82200Y-55600D02*
X82200Y-55200D01*
X82200Y-54800D02*
X82200Y-54400D01*
X82200Y-54400D02*
X82800Y-54400D01*
X82800Y-54400D02*
X82800Y-54800D01*
G54D13*
X81150Y-56800D02*
X81350Y-56800D01*
X81350Y-56800D02*
X81350Y-57200D01*
X81350Y-57200D02*
X81150Y-57200D01*
X81150Y-57200D02*
X81150Y-56800D01*
X81500Y-56750D02*
X81500Y-57250D01*
X81500Y-57250D02*
X81500Y-57000D01*
X81500Y-57000D02*
X81750Y-57000D01*
X80750Y-57000D02*
X81000Y-57000D01*
X81000Y-57000D02*
X81000Y-56750D01*
X81000Y-56750D02*
X81000Y-57250D01*
X82250Y-57500D02*
X82250Y-56500D01*
X82250Y-56500D02*
X79250Y-56500D01*
X79250Y-56500D02*
X79250Y-57500D01*
X79250Y-57500D02*
X82250Y-57500D01*
G54D11*
X91000Y-59750D02*
X90900Y-59750D01*
X91000Y-58250D02*
X90900Y-58250D01*
X91000Y-59650D02*
X91100Y-59550D01*
X91100Y-59550D02*
X91100Y-58400D01*
X91100Y-58400D02*
X91000Y-58300D01*
X91000Y-58300D02*
X91000Y-59750D01*
X91000Y-59550D02*
X91100Y-59550D01*
X91100Y-59550D02*
X91100Y-58400D01*
X91100Y-58400D02*
X91000Y-58400D01*
X89500Y-58250D02*
X89650Y-58250D01*
X89500Y-59750D02*
X89650Y-59750D01*
X89500Y-59750D02*
X89500Y-58250D01*
X91000Y-58250D02*
X91000Y-59750D01*
X91000Y-54750D02*
X90900Y-54750D01*
X91000Y-53250D02*
X90900Y-53250D01*
X91000Y-54650D02*
X91100Y-54550D01*
X91100Y-54550D02*
X91100Y-53400D01*
X91100Y-53400D02*
X91000Y-53300D01*
X91000Y-53300D02*
X91000Y-54750D01*
X91000Y-54550D02*
X91100Y-54550D01*
X91100Y-54550D02*
X91100Y-53400D01*
X91100Y-53400D02*
X91000Y-53400D01*
X89500Y-53250D02*
X89650Y-53250D01*
X89500Y-54750D02*
X89650Y-54750D01*
X89500Y-54750D02*
X89500Y-53250D01*
X91000Y-53250D02*
X91000Y-54750D01*
G54D14*
X87700Y-55350D02*
X87700Y-59150D01*
X87700Y-59150D02*
X86200Y-59150D01*
X86200Y-59150D02*
X86200Y-55350D01*
X86200Y-55350D02*
X87700Y-55350D01*
X87200Y-55350D02*
X87200Y-55650D01*
X87200Y-55650D02*
X86800Y-55650D01*
X86800Y-55650D02*
X86800Y-55350D01*
G54D12*
X80200Y-52700D02*
G75*
G03X80200Y-52700I-50J0D01*
G74*
G01*
X79700Y-52700D02*
X80100Y-52700D01*
X80100Y-52700D02*
X80100Y-53300D01*
X80100Y-53300D02*
X79700Y-53300D01*
X79300Y-53300D02*
X78900Y-53300D01*
X78900Y-53300D02*
X78900Y-52700D01*
X78900Y-52700D02*
X79300Y-52700D01*
X85250Y-60100D02*
G75*
G03X85250Y-60100I-50J0D01*
G74*
G01*
X85200Y-60550D02*
X85200Y-60150D01*
X85200Y-60150D02*
X85800Y-60150D01*
X85800Y-60150D02*
X85800Y-60550D01*
X85800Y-60950D02*
X85800Y-61350D01*
X85800Y-61350D02*
X85200Y-61350D01*
X85200Y-61350D02*
X85200Y-60950D01*
X88200Y-52700D02*
G75*
G03X88200Y-52700I-50J0D01*
G74*
G01*
X87700Y-52700D02*
X88100Y-52700D01*
X88100Y-52700D02*
X88100Y-53300D01*
X88100Y-53300D02*
X87700Y-53300D01*
X87300Y-53300D02*
X86900Y-53300D01*
X86900Y-53300D02*
X86900Y-52700D01*
X86900Y-52700D02*
X87300Y-52700D01*
X85700Y-52700D02*
G75*
G03X85700Y-52700I-50J0D01*
G74*
G01*
X85200Y-52700D02*
X85600Y-52700D01*
X85600Y-52700D02*
X85600Y-53300D01*
X85600Y-53300D02*
X85200Y-53300D01*
X84800Y-53300D02*
X84400Y-53300D01*
X84400Y-53300D02*
X84400Y-52700D01*
X84400Y-52700D02*
X84800Y-52700D01*
X83200Y-52700D02*
G75*
G03X83200Y-52700I-50J0D01*
G74*
G01*
X82700Y-52700D02*
X83100Y-52700D01*
X83100Y-52700D02*
X83100Y-53300D01*
X83100Y-53300D02*
X82700Y-53300D01*
X82300Y-53300D02*
X81900Y-53300D01*
X81900Y-53300D02*
X81900Y-52700D01*
X81900Y-52700D02*
X82300Y-52700D01*
X84350Y-61400D02*
G75*
G03X84350Y-61400I-50J0D01*
G74*
G01*
X84300Y-60950D02*
X84300Y-61350D01*
X84300Y-61350D02*
X83700Y-61350D01*
X83700Y-61350D02*
X83700Y-60950D01*
X83700Y-60550D02*
X83700Y-60150D01*
X83700Y-60150D02*
X84300Y-60150D01*
X84300Y-60150D02*
X84300Y-60550D01*
X83100Y-61400D02*
G75*
G03X83100Y-61400I-50J0D01*
G74*
G01*
X83050Y-60950D02*
X83050Y-61350D01*
X83050Y-61350D02*
X82450Y-61350D01*
X82450Y-61350D02*
X82450Y-60950D01*
X82450Y-60550D02*
X82450Y-60150D01*
X82450Y-60150D02*
X83050Y-60150D01*
X83050Y-60150D02*
X83050Y-60550D01*
X79750Y-58350D02*
G75*
G03X79750Y-58350I-50J0D01*
G74*
G01*
X79700Y-58800D02*
X79700Y-58400D01*
X79700Y-58400D02*
X80300Y-58400D01*
X80300Y-58400D02*
X80300Y-58800D01*
X80300Y-59200D02*
X80300Y-59600D01*
X80300Y-59600D02*
X79700Y-59600D01*
X79700Y-59600D02*
X79700Y-59200D01*
X80200Y-51700D02*
G75*
G03X80200Y-51700I-50J0D01*
G74*
G01*
X79700Y-51700D02*
X80100Y-51700D01*
X80100Y-51700D02*
X80100Y-52300D01*
X80100Y-52300D02*
X79700Y-52300D01*
X79300Y-52300D02*
X78900Y-52300D01*
X78900Y-52300D02*
X78900Y-51700D01*
X78900Y-51700D02*
X79300Y-51700D01*
X83200Y-51700D02*
G75*
G03X83200Y-51700I-50J0D01*
G74*
G01*
X82700Y-51700D02*
X83100Y-51700D01*
X83100Y-51700D02*
X83100Y-52300D01*
X83100Y-52300D02*
X82700Y-52300D01*
X82300Y-52300D02*
X81900Y-52300D01*
X81900Y-52300D02*
X81900Y-51700D01*
X81900Y-51700D02*
X82300Y-51700D01*
X85700Y-51700D02*
G75*
G03X85700Y-51700I-50J0D01*
G74*
G01*
X85200Y-51700D02*
X85600Y-51700D01*
X85600Y-51700D02*
X85600Y-52300D01*
X85600Y-52300D02*
X85200Y-52300D01*
X84800Y-52300D02*
X84400Y-52300D01*
X84400Y-52300D02*
X84400Y-51700D01*
X84400Y-51700D02*
X84800Y-51700D01*
X88200Y-51700D02*
G75*
G03X88200Y-51700I-50J0D01*
G74*
G01*
X87700Y-51700D02*
X88100Y-51700D01*
X88100Y-51700D02*
X88100Y-52300D01*
X88100Y-52300D02*
X87700Y-52300D01*
X87300Y-52300D02*
X86900Y-52300D01*
X86900Y-52300D02*
X86900Y-51700D01*
X86900Y-51700D02*
X87300Y-51700D01*
X82250Y-58350D02*
G75*
G03X82250Y-58350I-50J0D01*
G74*
G01*
X82200Y-58800D02*
X82200Y-58400D01*
X82200Y-58400D02*
X82800Y-58400D01*
X82800Y-58400D02*
X82800Y-58800D01*
X82800Y-59200D02*
X82800Y-59600D01*
X82800Y-59600D02*
X82200Y-59600D01*
X82200Y-59600D02*
X82200Y-59200D01*
G54D10*
X80425Y-61125D02*
X80475Y-61125D01*
X80400Y-61025D02*
X80400Y-61400D01*
X80400Y-61375D02*
X80400Y-61200D01*
X80400Y-61200D02*
X80500Y-61125D01*
X80500Y-61125D02*
X80400Y-61050D01*
X80400Y-61050D02*
X80400Y-60075D01*
G54D13*
X81000Y-60650D02*
X81000Y-60850D01*
X80050Y-61300D02*
X80050Y-61400D01*
X80050Y-61400D02*
X81000Y-61400D01*
X81000Y-61400D02*
X81000Y-61300D01*
X80050Y-60650D02*
X80050Y-60850D01*
X80050Y-60200D02*
X80050Y-60100D01*
X80050Y-60100D02*
X80050Y-60050D01*
X80050Y-60050D02*
X80950Y-60050D01*
X80950Y-60050D02*
X80950Y-60200D01*
G54D14*
X78750Y-58500D02*
X78750Y-61500D01*
X76750Y-61500D02*
X76750Y-58500D01*
X76750Y-58500D02*
X78750Y-58500D01*
X78750Y-61500D02*
X76750Y-61500D01*
G54D12*
X84701Y-57042D02*
X84582Y-57125D01*
X84701Y-57184D02*
X84451Y-57184D01*
X84451Y-57089D01*
X84463Y-57065D01*
X84475Y-57054D01*
X84499Y-57042D01*
X84535Y-57042D01*
X84558Y-57054D01*
X84570Y-57065D01*
X84582Y-57089D01*
X84582Y-57184D01*
X84475Y-56946D02*
X84463Y-56934D01*
X84451Y-56911D01*
X84451Y-56851D01*
X84463Y-56827D01*
X84475Y-56815D01*
X84499Y-56804D01*
X84523Y-56804D01*
X84558Y-56815D01*
X84701Y-56958D01*
X84701Y-56804D01*
X85201Y-59042D02*
X85082Y-59125D01*
X85201Y-59184D02*
X84951Y-59184D01*
X84951Y-59089D01*
X84963Y-59065D01*
X84975Y-59054D01*
X84999Y-59042D01*
X85035Y-59042D01*
X85058Y-59054D01*
X85070Y-59065D01*
X85082Y-59089D01*
X85082Y-59184D01*
X85201Y-58804D02*
X85201Y-58946D01*
X85201Y-58875D02*
X84951Y-58875D01*
X84987Y-58899D01*
X85011Y-58923D01*
X85023Y-58946D01*
X84477Y-55042D02*
X84489Y-55054D01*
X84501Y-55089D01*
X84501Y-55113D01*
X84489Y-55149D01*
X84465Y-55173D01*
X84442Y-55184D01*
X84394Y-55196D01*
X84358Y-55196D01*
X84311Y-55184D01*
X84287Y-55173D01*
X84263Y-55149D01*
X84251Y-55113D01*
X84251Y-55089D01*
X84263Y-55054D01*
X84275Y-55042D01*
X84275Y-54946D02*
X84263Y-54934D01*
X84251Y-54911D01*
X84251Y-54851D01*
X84263Y-54827D01*
X84275Y-54815D01*
X84299Y-54804D01*
X84323Y-54804D01*
X84358Y-54815D01*
X84501Y-54958D01*
X84501Y-54804D01*
X83227Y-55042D02*
X83239Y-55054D01*
X83251Y-55089D01*
X83251Y-55113D01*
X83239Y-55149D01*
X83215Y-55173D01*
X83192Y-55184D01*
X83144Y-55196D01*
X83108Y-55196D01*
X83061Y-55184D01*
X83037Y-55173D01*
X83013Y-55149D01*
X83001Y-55113D01*
X83001Y-55089D01*
X83013Y-55054D01*
X83025Y-55042D01*
X83251Y-54804D02*
X83251Y-54946D01*
X83251Y-54875D02*
X83001Y-54875D01*
X83037Y-54899D01*
X83061Y-54923D01*
X83073Y-54946D01*
X82077Y-55042D02*
X82089Y-55054D01*
X82101Y-55089D01*
X82101Y-55113D01*
X82089Y-55149D01*
X82065Y-55173D01*
X82042Y-55184D01*
X81994Y-55196D01*
X81958Y-55196D01*
X81911Y-55184D01*
X81887Y-55173D01*
X81863Y-55149D01*
X81851Y-55113D01*
X81851Y-55089D01*
X81863Y-55054D01*
X81875Y-55042D01*
X81935Y-54827D02*
X82101Y-54827D01*
X81839Y-54887D02*
X82018Y-54946D01*
X82018Y-54792D01*
G54D15*
X78015Y-56643D02*
X78415Y-57243D01*
X78415Y-56643D02*
X78015Y-57243D01*
X78957Y-57243D02*
X78614Y-57243D01*
X78786Y-57243D02*
X78786Y-56643D01*
X78729Y-56729D01*
X78671Y-56786D01*
X78614Y-56814D01*
X89214Y-59800D02*
X89243Y-59714D01*
X89243Y-59571D01*
X89214Y-59514D01*
X89186Y-59485D01*
X89129Y-59457D01*
X89071Y-59457D01*
X89014Y-59485D01*
X88986Y-59514D01*
X88957Y-59571D01*
X88929Y-59685D01*
X88900Y-59743D01*
X88871Y-59771D01*
X88814Y-59800D01*
X88757Y-59800D01*
X88700Y-59771D01*
X88671Y-59743D01*
X88643Y-59685D01*
X88643Y-59543D01*
X88671Y-59457D01*
X88643Y-59257D02*
X89243Y-59114D01*
X88814Y-59000D01*
X89243Y-58886D01*
X88643Y-58743D01*
X88700Y-58543D02*
X88671Y-58514D01*
X88643Y-58457D01*
X88643Y-58314D01*
X88671Y-58257D01*
X88700Y-58228D01*
X88757Y-58200D01*
X88814Y-58200D01*
X88900Y-58228D01*
X89243Y-58571D01*
X89243Y-58200D01*
X89214Y-54800D02*
X89243Y-54714D01*
X89243Y-54571D01*
X89214Y-54514D01*
X89186Y-54485D01*
X89129Y-54457D01*
X89071Y-54457D01*
X89014Y-54485D01*
X88986Y-54514D01*
X88957Y-54571D01*
X88929Y-54685D01*
X88900Y-54743D01*
X88871Y-54771D01*
X88814Y-54800D01*
X88757Y-54800D01*
X88700Y-54771D01*
X88671Y-54743D01*
X88643Y-54685D01*
X88643Y-54543D01*
X88671Y-54457D01*
X88643Y-54257D02*
X89243Y-54114D01*
X88814Y-54000D01*
X89243Y-53886D01*
X88643Y-53743D01*
X89243Y-53200D02*
X89243Y-53543D01*
X89243Y-53371D02*
X88643Y-53371D01*
X88729Y-53428D01*
X88786Y-53486D01*
X88814Y-53543D01*
G54D12*
X87462Y-57689D02*
X87062Y-57689D01*
X87424Y-57218D02*
X87443Y-57239D01*
X87462Y-57303D01*
X87462Y-57346D01*
X87443Y-57411D01*
X87405Y-57453D01*
X87367Y-57475D01*
X87290Y-57496D01*
X87233Y-57496D01*
X87157Y-57475D01*
X87119Y-57453D01*
X87081Y-57411D01*
X87062Y-57346D01*
X87062Y-57303D01*
X87081Y-57239D01*
X87100Y-57218D01*
X87462Y-56789D02*
X87462Y-57046D01*
X87462Y-56918D02*
X87062Y-56918D01*
X87119Y-56961D01*
X87157Y-57003D01*
X87176Y-57046D01*
X79458Y-52601D02*
X79375Y-52482D01*
X79316Y-52601D02*
X79316Y-52351D01*
X79411Y-52351D01*
X79435Y-52363D01*
X79446Y-52375D01*
X79458Y-52399D01*
X79458Y-52435D01*
X79446Y-52458D01*
X79435Y-52470D01*
X79411Y-52482D01*
X79316Y-52482D01*
X79577Y-52601D02*
X79625Y-52601D01*
X79649Y-52589D01*
X79661Y-52577D01*
X79685Y-52542D01*
X79696Y-52494D01*
X79696Y-52399D01*
X79685Y-52375D01*
X79673Y-52363D01*
X79649Y-52351D01*
X79601Y-52351D01*
X79577Y-52363D01*
X79566Y-52375D01*
X79554Y-52399D01*
X79554Y-52458D01*
X79566Y-52482D01*
X79577Y-52494D01*
X79601Y-52506D01*
X79649Y-52506D01*
X79673Y-52494D01*
X79685Y-52482D01*
X79696Y-52458D01*
X85458Y-61827D02*
X85446Y-61839D01*
X85411Y-61851D01*
X85387Y-61851D01*
X85351Y-61839D01*
X85327Y-61815D01*
X85316Y-61792D01*
X85304Y-61744D01*
X85304Y-61708D01*
X85316Y-61661D01*
X85327Y-61637D01*
X85351Y-61613D01*
X85387Y-61601D01*
X85411Y-61601D01*
X85446Y-61613D01*
X85458Y-61625D01*
X85542Y-61601D02*
X85696Y-61601D01*
X85613Y-61696D01*
X85649Y-61696D01*
X85673Y-61708D01*
X85685Y-61720D01*
X85696Y-61744D01*
X85696Y-61804D01*
X85685Y-61827D01*
X85673Y-61839D01*
X85649Y-61851D01*
X85577Y-61851D01*
X85554Y-61839D01*
X85542Y-61827D01*
X87458Y-52601D02*
X87375Y-52482D01*
X87316Y-52601D02*
X87316Y-52351D01*
X87411Y-52351D01*
X87435Y-52363D01*
X87446Y-52375D01*
X87458Y-52399D01*
X87458Y-52435D01*
X87446Y-52458D01*
X87435Y-52470D01*
X87411Y-52482D01*
X87316Y-52482D01*
X87542Y-52351D02*
X87696Y-52351D01*
X87613Y-52446D01*
X87649Y-52446D01*
X87673Y-52458D01*
X87685Y-52470D01*
X87696Y-52494D01*
X87696Y-52554D01*
X87685Y-52577D01*
X87673Y-52589D01*
X87649Y-52601D01*
X87577Y-52601D01*
X87554Y-52589D01*
X87542Y-52577D01*
X84958Y-52601D02*
X84875Y-52482D01*
X84816Y-52601D02*
X84816Y-52351D01*
X84911Y-52351D01*
X84935Y-52363D01*
X84946Y-52375D01*
X84958Y-52399D01*
X84958Y-52435D01*
X84946Y-52458D01*
X84935Y-52470D01*
X84911Y-52482D01*
X84816Y-52482D01*
X85185Y-52351D02*
X85066Y-52351D01*
X85054Y-52470D01*
X85066Y-52458D01*
X85089Y-52446D01*
X85149Y-52446D01*
X85173Y-52458D01*
X85185Y-52470D01*
X85196Y-52494D01*
X85196Y-52554D01*
X85185Y-52577D01*
X85173Y-52589D01*
X85149Y-52601D01*
X85089Y-52601D01*
X85066Y-52589D01*
X85054Y-52577D01*
X82458Y-52601D02*
X82375Y-52482D01*
X82316Y-52601D02*
X82316Y-52351D01*
X82411Y-52351D01*
X82435Y-52363D01*
X82446Y-52375D01*
X82458Y-52399D01*
X82458Y-52435D01*
X82446Y-52458D01*
X82435Y-52470D01*
X82411Y-52482D01*
X82316Y-52482D01*
X82601Y-52458D02*
X82577Y-52446D01*
X82566Y-52435D01*
X82554Y-52411D01*
X82554Y-52399D01*
X82566Y-52375D01*
X82577Y-52363D01*
X82601Y-52351D01*
X82649Y-52351D01*
X82673Y-52363D01*
X82685Y-52375D01*
X82696Y-52399D01*
X82696Y-52411D01*
X82685Y-52435D01*
X82673Y-52446D01*
X82649Y-52458D01*
X82601Y-52458D01*
X82577Y-52470D01*
X82566Y-52482D01*
X82554Y-52506D01*
X82554Y-52554D01*
X82566Y-52577D01*
X82577Y-52589D01*
X82601Y-52601D01*
X82649Y-52601D01*
X82673Y-52589D01*
X82685Y-52577D01*
X82696Y-52554D01*
X82696Y-52506D01*
X82685Y-52482D01*
X82673Y-52470D01*
X82649Y-52458D01*
X83958Y-61851D02*
X83875Y-61732D01*
X83816Y-61851D02*
X83816Y-61601D01*
X83911Y-61601D01*
X83935Y-61613D01*
X83946Y-61625D01*
X83958Y-61649D01*
X83958Y-61685D01*
X83946Y-61708D01*
X83935Y-61720D01*
X83911Y-61732D01*
X83816Y-61732D01*
X84173Y-61685D02*
X84173Y-61851D01*
X84113Y-61589D02*
X84054Y-61768D01*
X84208Y-61768D01*
X82708Y-61851D02*
X82625Y-61732D01*
X82566Y-61851D02*
X82566Y-61601D01*
X82661Y-61601D01*
X82685Y-61613D01*
X82696Y-61625D01*
X82708Y-61649D01*
X82708Y-61685D01*
X82696Y-61708D01*
X82685Y-61720D01*
X82661Y-61732D01*
X82566Y-61732D01*
X82923Y-61601D02*
X82875Y-61601D01*
X82851Y-61613D01*
X82839Y-61625D01*
X82816Y-61661D01*
X82804Y-61708D01*
X82804Y-61804D01*
X82816Y-61827D01*
X82827Y-61839D01*
X82851Y-61851D01*
X82899Y-61851D01*
X82923Y-61839D01*
X82935Y-61827D01*
X82946Y-61804D01*
X82946Y-61744D01*
X82935Y-61720D01*
X82923Y-61708D01*
X82899Y-61696D01*
X82851Y-61696D01*
X82827Y-61708D01*
X82816Y-61720D01*
X82804Y-61744D01*
X79601Y-59042D02*
X79482Y-59125D01*
X79601Y-59184D02*
X79351Y-59184D01*
X79351Y-59089D01*
X79363Y-59065D01*
X79375Y-59054D01*
X79399Y-59042D01*
X79435Y-59042D01*
X79458Y-59054D01*
X79470Y-59065D01*
X79482Y-59089D01*
X79482Y-59184D01*
X79351Y-58958D02*
X79351Y-58792D01*
X79601Y-58899D01*
X79316Y-51601D02*
X79316Y-51351D01*
X79375Y-51351D01*
X79411Y-51363D01*
X79435Y-51387D01*
X79446Y-51411D01*
X79458Y-51458D01*
X79458Y-51494D01*
X79446Y-51542D01*
X79435Y-51565D01*
X79411Y-51589D01*
X79375Y-51601D01*
X79316Y-51601D01*
X79685Y-51351D02*
X79566Y-51351D01*
X79554Y-51470D01*
X79566Y-51458D01*
X79589Y-51446D01*
X79649Y-51446D01*
X79673Y-51458D01*
X79685Y-51470D01*
X79696Y-51494D01*
X79696Y-51554D01*
X79685Y-51577D01*
X79673Y-51589D01*
X79649Y-51601D01*
X79589Y-51601D01*
X79566Y-51589D01*
X79554Y-51577D01*
X82316Y-51601D02*
X82316Y-51351D01*
X82375Y-51351D01*
X82411Y-51363D01*
X82435Y-51387D01*
X82446Y-51411D01*
X82458Y-51458D01*
X82458Y-51494D01*
X82446Y-51542D01*
X82435Y-51565D01*
X82411Y-51589D01*
X82375Y-51601D01*
X82316Y-51601D01*
X82673Y-51435D02*
X82673Y-51601D01*
X82613Y-51339D02*
X82554Y-51518D01*
X82708Y-51518D01*
X84816Y-51601D02*
X84816Y-51351D01*
X84875Y-51351D01*
X84911Y-51363D01*
X84935Y-51387D01*
X84946Y-51411D01*
X84958Y-51458D01*
X84958Y-51494D01*
X84946Y-51542D01*
X84935Y-51565D01*
X84911Y-51589D01*
X84875Y-51601D01*
X84816Y-51601D01*
X85054Y-51375D02*
X85066Y-51363D01*
X85089Y-51351D01*
X85149Y-51351D01*
X85173Y-51363D01*
X85185Y-51375D01*
X85196Y-51399D01*
X85196Y-51423D01*
X85185Y-51458D01*
X85042Y-51601D01*
X85196Y-51601D01*
X87316Y-51601D02*
X87316Y-51351D01*
X87375Y-51351D01*
X87411Y-51363D01*
X87435Y-51387D01*
X87446Y-51411D01*
X87458Y-51458D01*
X87458Y-51494D01*
X87446Y-51542D01*
X87435Y-51565D01*
X87411Y-51589D01*
X87375Y-51601D01*
X87316Y-51601D01*
X87696Y-51601D02*
X87554Y-51601D01*
X87625Y-51601D02*
X87625Y-51351D01*
X87601Y-51387D01*
X87577Y-51411D01*
X87554Y-51423D01*
X83177Y-59042D02*
X83189Y-59054D01*
X83201Y-59089D01*
X83201Y-59113D01*
X83189Y-59149D01*
X83165Y-59173D01*
X83142Y-59184D01*
X83094Y-59196D01*
X83058Y-59196D01*
X83011Y-59184D01*
X82987Y-59173D01*
X82963Y-59149D01*
X82951Y-59113D01*
X82951Y-59089D01*
X82963Y-59054D01*
X82975Y-59042D01*
X82951Y-58815D02*
X82951Y-58934D01*
X83070Y-58946D01*
X83058Y-58934D01*
X83046Y-58911D01*
X83046Y-58851D01*
X83058Y-58827D01*
X83070Y-58815D01*
X83094Y-58804D01*
X83154Y-58804D01*
X83177Y-58815D01*
X83189Y-58827D01*
X83201Y-58851D01*
X83201Y-58911D01*
X83189Y-58934D01*
X83177Y-58946D01*
G54D15*
X80808Y-59743D02*
X80808Y-59143D01*
X80951Y-59143D01*
X81036Y-59171D01*
X81094Y-59229D01*
X81122Y-59286D01*
X81151Y-59400D01*
X81151Y-59486D01*
X81122Y-59600D01*
X81094Y-59657D01*
X81036Y-59714D01*
X80951Y-59743D01*
X80808Y-59743D01*
X81351Y-59143D02*
X81722Y-59143D01*
X81522Y-59371D01*
X81608Y-59371D01*
X81665Y-59400D01*
X81694Y-59429D01*
X81722Y-59486D01*
X81722Y-59629D01*
X81694Y-59686D01*
X81665Y-59714D01*
X81608Y-59743D01*
X81436Y-59743D01*
X81379Y-59714D01*
X81351Y-59686D01*
G54D14*
X76715Y-58224D02*
X76696Y-58243D01*
X76639Y-58262D01*
X76601Y-58262D01*
X76543Y-58243D01*
X76505Y-58205D01*
X76486Y-58167D01*
X76467Y-58090D01*
X76467Y-58033D01*
X76486Y-57957D01*
X76505Y-57919D01*
X76543Y-57881D01*
X76601Y-57862D01*
X76639Y-57862D01*
X76696Y-57881D01*
X76715Y-57900D01*
X76962Y-57862D02*
X77039Y-57862D01*
X77077Y-57881D01*
X77115Y-57919D01*
X77134Y-57995D01*
X77134Y-58129D01*
X77115Y-58205D01*
X77077Y-58243D01*
X77039Y-58262D01*
X76962Y-58262D01*
X76924Y-58243D01*
X76886Y-58205D01*
X76867Y-58129D01*
X76867Y-57995D01*
X76886Y-57919D01*
X76924Y-57881D01*
X76962Y-57862D01*
X77305Y-58262D02*
X77305Y-57862D01*
X77534Y-58262D01*
X77534Y-57862D01*
X77934Y-58262D02*
X77705Y-58262D01*
X77819Y-58262D02*
X77819Y-57862D01*
X77781Y-57919D01*
X77743Y-57957D01*
X77705Y-57976D01*
M02*
